<svg xmlns="http://www.w3.org/2000/svg" xmlns:xlink="http://www.w3.org/1999/xlink" version="1.1" class="marks" width="440" height="347" viewBox="0 0 440 347"><rect width="440" height="347" fill="white"/><g fill="none" stroke-miterlimit="10" transform="translate(33,10)"><g class="mark-group role-frame root" role="graphics-object" aria-roledescription="group mark container"><g transform="translate(0,0)"><path class="background" aria-hidden="true" d="M0.5,0.5h400v300h-400Z" stroke="#ddd"/><g><g class="mark-group role-axis" aria-hidden="true"><g transform="translate(0.5,300.5)"><path class="background" aria-hidden="true" d="M0,0h0v0h0Z" pointer-events="none"/><g><g class="mark-rule role-axis-grid" pointer-events="none"><line transform="translate(6,-300)" x2="0" y2="300" stroke="#ddd" stroke-width="1" opacity="1"/><line transform="translate(40,-300)" x2="0" y2="300" stroke="#ddd" stroke-width="1" opacity="1"/><line transform="translate(76,-300)" x2="0" y2="300" stroke="#ddd" stroke-width="1" opacity="1"/><line transform="translate(112,-300)" x2="0" y2="300" stroke="#ddd" stroke-width="1" opacity="1"/><line transform="translate(147,-300)" x2="0" y2="300" stroke="#ddd" stroke-width="1" opacity="1"/><line transform="translate(183,-300)" x2="0" y2="300" stroke="#ddd" stroke-width="1" opacity="1"/><line transform="translate(217,-300)" x2="0" y2="300" stroke="#ddd" stroke-width="1" opacity="1"/><line transform="translate(253,-300)" x2="0" y2="300" stroke="#ddd" stroke-width="1" opacity="1"/><line transform="translate(289,-300)" x2="0" y2="300" stroke="#ddd" stroke-width="1" opacity="1"/><line transform="translate(321,-300)" x2="0" y2="300" stroke="#ddd" stroke-width="1" opacity="1"/><line transform="translate(357,-300)" x2="0" y2="300" stroke="#ddd" stroke-width="1" opacity="1"/><line transform="translate(392,-300)" x2="0" y2="300" stroke="#ddd" stroke-width="1" opacity="1"/></g></g><path class="foreground" aria-hidden="true" d="" pointer-events="none" display="none"/></g></g><g class="mark-group role-axis" aria-hidden="true"><g transform="translate(0.5,0.5)"><path class="background" aria-hidden="true" d="M0,0h0v0h0Z" pointer-events="none"/><g><g class="mark-rule role-axis-grid" pointer-events="none"><line transform="translate(0,300)" x2="400" y2="0" stroke="#ddd" stroke-width="1" opacity="1"/><line transform="translate(0,263)" x2="400" y2="0" stroke="#ddd" stroke-width="1" opacity="1"/><line transform="translate(0,225)" x2="400" y2="0" stroke="#ddd" stroke-width="1" opacity="1"/><line transform="translate(0,188)" x2="400" y2="0" stroke="#ddd" stroke-width="1" opacity="1"/><line transform="translate(0,150)" x2="400" y2="0" stroke="#ddd" stroke-width="1" opacity="1"/><line transform="translate(0,113)" x2="400" y2="0" stroke="#ddd" stroke-width="1" opacity="1"/><line transform="translate(0,75)" x2="400" y2="0" stroke="#ddd" stroke-width="1" opacity="1"/><line transform="translate(0,38)" x2="400" y2="0" stroke="#ddd" stroke-width="1" opacity="1"/><line transform="translate(0,0)" x2="400" y2="0" stroke="#ddd" stroke-width="1" opacity="1"/></g></g><path class="foreground" aria-hidden="true" d="" pointer-events="none" display="none"/></g></g><g class="mark-group role-axis" role="graphics-symbol" aria-roledescription="axis" aria-label="X-axis titled 'Attrition Date' for a time scale with values from Thursday, 27 May 2021, 12:00:00 AM to Sunday, 08 May 2022, 12:00:00 AM"><g transform="translate(0.5,300.5)"><path class="background" aria-hidden="true" d="M0,0h0v0h0Z" pointer-events="none"/><g><g class="mark-rule role-axis-tick" pointer-events="none"><line transform="translate(6,0)" x2="0" y2="5" stroke="#888" stroke-width="1" opacity="1"/><line transform="translate(40,0)" x2="0" y2="5" stroke="#888" stroke-width="1" opacity="1"/><line transform="translate(76,0)" x2="0" y2="5" stroke="#888" stroke-width="1" opacity="1"/><line transform="translate(112,0)" x2="0" y2="5" stroke="#888" stroke-width="1" opacity="1"/><line transform="translate(147,0)" x2="0" y2="5" stroke="#888" stroke-width="1" opacity="1"/><line transform="translate(183,0)" x2="0" y2="5" stroke="#888" stroke-width="1" opacity="1"/><line transform="translate(217,0)" x2="0" y2="5" stroke="#888" stroke-width="1" opacity="1"/><line transform="translate(253,0)" x2="0" y2="5" stroke="#888" stroke-width="1" opacity="1"/><line transform="translate(289,0)" x2="0" y2="5" stroke="#888" stroke-width="1" opacity="1"/><line transform="translate(321,0)" x2="0" y2="5" stroke="#888" stroke-width="1" opacity="1"/><line transform="translate(357,0)" x2="0" y2="5" stroke="#888" stroke-width="1" opacity="1"/><line transform="translate(392,0)" x2="0" y2="5" stroke="#888" stroke-width="1" opacity="1"/></g><g class="mark-text role-axis-label" pointer-events="none"><text text-anchor="middle" transform="translate(5.780346820809249,15)" font-family="sans-serif" font-size="10px" fill="#000" opacity="1">June</text><text text-anchor="middle" transform="translate(40.46242774566474,15)" font-family="sans-serif" font-size="10px" fill="#000" opacity="0">July</text><text text-anchor="middle" transform="translate(76.30057803468208,15)" font-family="sans-serif" font-size="10px" fill="#000" opacity="1">August</text><text text-anchor="middle" transform="translate(112.13872832369943,15)" font-family="sans-serif" font-size="10px" fill="#000" opacity="0">September</text><text text-anchor="middle" transform="translate(146.82080924855492,15)" font-family="sans-serif" font-size="10px" fill="#000" opacity="1">October</text><text text-anchor="middle" transform="translate(182.65895953757226,15)" font-family="sans-serif" font-size="10px" fill="#000" opacity="0">November</text><text text-anchor="middle" transform="translate(217.3892100192678,15)" font-family="sans-serif" font-size="10px" fill="#000" opacity="1">December</text><text text-anchor="middle" transform="translate(253.22736030828517,15)" font-family="sans-serif" font-size="10px" fill="#000" opacity="0">2022</text><text text-anchor="middle" transform="translate(289.06551059730253,15)" font-family="sans-serif" font-size="10px" fill="#000" opacity="1">February</text><text text-anchor="middle" transform="translate(321.4354527938343,15)" font-family="sans-serif" font-size="10px" fill="#000" opacity="0">March</text><text text-anchor="middle" transform="translate(357.22543352601156,15)" font-family="sans-serif" font-size="10px" fill="#000" opacity="1">April</text><text text-anchor="middle" transform="translate(391.90751445086704,15)" font-family="sans-serif" font-size="10px" fill="#000" opacity="0">May</text></g><g class="mark-rule role-axis-domain" pointer-events="none"><line transform="translate(0,0)" x2="400" y2="0" stroke="#888" stroke-width="1" opacity="1"/></g><g class="mark-text role-axis-title" pointer-events="none"><text text-anchor="middle" transform="translate(200,30)" font-family="sans-serif" font-size="11px" font-weight="bold" fill="#000" opacity="1">Attrition Date</text></g></g><path class="foreground" aria-hidden="true" d="" pointer-events="none" display="none"/></g></g><g class="mark-group role-axis" role="graphics-symbol" aria-roledescription="axis" aria-label="Y-axis titled 'headcount' for a linear scale with values from 0 to 8"><g transform="translate(0.5,0.5)"><path class="background" aria-hidden="true" d="M0,0h0v0h0Z" pointer-events="none"/><g><g class="mark-rule role-axis-tick" pointer-events="none"><line transform="translate(0,300)" x2="-5" y2="0" stroke="#888" stroke-width="1" opacity="1"/><line transform="translate(0,263)" x2="-5" y2="0" stroke="#888" stroke-width="1" opacity="1"/><line transform="translate(0,225)" x2="-5" y2="0" stroke="#888" stroke-width="1" opacity="1"/><line transform="translate(0,188)" x2="-5" y2="0" stroke="#888" stroke-width="1" opacity="1"/><line transform="translate(0,150)" x2="-5" y2="0" stroke="#888" stroke-width="1" opacity="1"/><line transform="translate(0,113)" x2="-5" y2="0" stroke="#888" stroke-width="1" opacity="1"/><line transform="translate(0,75)" x2="-5" y2="0" stroke="#888" stroke-width="1" opacity="1"/><line transform="translate(0,38)" x2="-5" y2="0" stroke="#888" stroke-width="1" opacity="1"/><line transform="translate(0,0)" x2="-5" y2="0" stroke="#888" stroke-width="1" opacity="1"/></g><g class="mark-text role-axis-label" pointer-events="none"><text text-anchor="end" transform="translate(-7,303)" font-family="sans-serif" font-size="10px" fill="#000" opacity="1">0</text><text text-anchor="end" transform="translate(-7,265.5)" font-family="sans-serif" font-size="10px" fill="#000" opacity="1">1</text><text text-anchor="end" transform="translate(-7,228)" font-family="sans-serif" font-size="10px" fill="#000" opacity="1">2</text><text text-anchor="end" transform="translate(-7,190.5)" font-family="sans-serif" font-size="10px" fill="#000" opacity="1">3</text><text text-anchor="end" transform="translate(-7,153)" font-family="sans-serif" font-size="10px" fill="#000" opacity="1">4</text><text text-anchor="end" transform="translate(-7,115.5)" font-family="sans-serif" font-size="10px" fill="#000" opacity="1">5</text><text text-anchor="end" transform="translate(-7,78)" font-family="sans-serif" font-size="10px" fill="#000" opacity="1">6</text><text text-anchor="end" transform="translate(-7,40.5)" font-family="sans-serif" font-size="10px" fill="#000" opacity="1">7</text><text text-anchor="end" transform="translate(-7,3)" font-family="sans-serif" font-size="10px" fill="#000" opacity="1">8</text></g><g class="mark-rule role-axis-domain" pointer-events="none"><line transform="translate(0,300)" x2="0" y2="-300" stroke="#888" stroke-width="1" opacity="1"/></g><g class="mark-text role-axis-title" pointer-events="none"><text text-anchor="middle" transform="translate(-16.5615234375,150) rotate(-90) translate(0,-2)" font-family="sans-serif" font-size="11px" font-weight="bold" fill="#000" opacity="1">headcount</text></g></g><path class="foreground" aria-hidden="true" d="" pointer-events="none" display="none"/></g></g><g class="mark-line role-mark marks" role="graphics-object" aria-roledescription="line mark container"><path aria-label="Attrition Date: May 27, 2021; headcount: 1" role="graphics-symbol" aria-roledescription="line mark" d="M0,262.5L2.312,262.5L10.405,262.5L19.653,262.5L24.277,262.5L25.434,262.5L30.058,225L40.462,187.5L45.087,187.5L48.555,262.5L60.116,225L75.145,262.5L86.705,262.5L91.329,262.5L93.642,262.5L100.578,262.5L105.202,262.5L113.295,262.5L114.451,262.5L124.855,262.5L130.636,225L145.665,225L150.289,225L160.694,225L165.318,225L166.474,225L171.098,262.5L174.566,262.5L176.879,225L180.347,262.5L182.659,262.5L183.815,262.5L189.595,262.5L191.956,262.5L193.112,262.5L195.424,262.5L197.736,225L201.204,262.5L203.516,262.5L208.141,225L211.609,187.5L213.921,262.5L219.701,225L220.857,225L225.482,225L227.794,262.5L235.886,225L239.355,187.5L243.979,262.5L247.447,262.5L250.915,262.5L253.227,262.5L255.539,150L257.852,262.5L260.164,262.5L262.476,262.5L265.944,225L270.568,75L276.349,187.5L279.817,262.5L280.973,262.5L284.441,150L285.597,262.5L291.378,262.5L292.534,262.5L296.002,225L300.626,112.5L301.782,225L307.563,225L311.031,262.5L312.187,150L313.343,225L315.655,225L316.811,225L319.123,262.5L320.279,225L324.904,112.5L326.06,262.5L327.216,225L328.372,225L330.684,262.5L331.84,150L332.996,112.5L334.152,262.5L336.416,262.5L338.728,262.5L341.04,187.5L344.509,225L345.665,187.5L349.133,225L350.289,262.5L353.757,225L356.069,187.5L357.225,225L359.538,225L360.694,37.5L364.162,262.5L368.786,187.5L371.098,112.5L373.41,262.5L374.566,262.5L375.723,37.5L376.879,262.5L379.191,262.5L381.503,225L382.659,187.5L384.971,112.5L386.127,150L387.283,187.5L389.595,75L390.751,0L393.064,225L394.22,262.5L395.376,262.5L397.688,150L400,262.5" stroke="#4c78a8" stroke-width="2"/></g></g><path class="foreground" aria-hidden="true" d="" display="none"/></g></g></g></svg>