<svg xmlns="http://www.w3.org/2000/svg" xmlns:xlink="http://www.w3.org/1999/xlink" version="1.1" class="marks" width="499" height="189" viewBox="0 0 499 189"><rect width="499" height="189" fill="white"/><g fill="none" stroke-miterlimit="10" transform="translate(53,5)"><g class="mark-group role-frame root" role="graphics-object" aria-roledescription="group mark container"><g transform="translate(0,0)"><path class="background" aria-hidden="true" d="M0.5,0.5h380v120h-380Z" stroke="#ddd"/><g><g class="mark-rect role-mark marks" role="graphics-object" aria-roledescription="rect mark container"><path aria-label="admission_date: 2023-04; admission_time: 00-04; patients: 76" role="graphics-symbol" aria-roledescription="rect mark" d="M0,0h20v20h-20Z" fill="rgb(134, 208, 187)"/><path aria-label="admission_date: 2023-04; admission_time: 04-08; patients: 72" role="graphics-symbol" aria-roledescription="rect mark" d="M0,20h20v20h-20Z" fill="rgb(165, 220, 183)"/><path aria-label="admission_date: 2023-04; admission_time: 08-12; patients: 79" role="graphics-symbol" aria-roledescription="rect mark" d="M0,40h20v20h-20Z" fill="rgb(110, 199, 189)"/><path aria-label="admission_date: 2023-04; admission_time: 12-16; patients: 83" role="graphics-symbol" aria-roledescription="rect mark" d="M0,60h20v20h-20Z" fill="rgb(82, 186, 193)"/><path aria-label="admission_date: 2023-04; admission_time: 16-20; patients: 82" role="graphics-symbol" aria-roledescription="rect mark" d="M0,80h20v20h-20Z" fill="rgb(89, 189, 192)"/><path aria-label="admission_date: 2023-04; admission_time: 20-00; patients: 87" role="graphics-symbol" aria-roledescription="rect mark" d="M0,100h20v20h-20Z" fill="rgb(60, 172, 193)"/><path aria-label="admission_date: 2023-05; admission_time: 00-04; patients: 80" role="graphics-symbol" aria-roledescription="rect mark" d="M20,0h20v20h-20Z" fill="rgb(102, 196, 190)"/><path aria-label="admission_date: 2023-05; admission_time: 04-08; patients: 97" role="graphics-symbol" aria-roledescription="rect mark" d="M20,20h20v20h-20Z" fill="rgb(33, 123, 181)"/><path aria-label="admission_date: 2023-05; admission_time: 08-12; patients: 78" role="graphics-symbol" aria-roledescription="rect mark" d="M20,40h20v20h-20Z" fill="rgb(118, 202, 189)"/><path aria-label="admission_date: 2023-05; admission_time: 12-16; patients: 78" role="graphics-symbol" aria-roledescription="rect mark" d="M20,60h20v20h-20Z" fill="rgb(118, 202, 189)"/><path aria-label="admission_date: 2023-05; admission_time: 16-20; patients: 84" role="graphics-symbol" aria-roledescription="rect mark" d="M20,80h20v20h-20Z" fill="rgb(76, 183, 193)"/><path aria-label="admission_date: 2023-05; admission_time: 20-00; patients: 63" role="graphics-symbol" aria-roledescription="rect mark" d="M20,100h20v20h-20Z" fill="rgb(220, 242, 181)"/><path aria-label="admission_date: 2023-06; admission_time: 00-04; patients: 93" role="graphics-symbol" aria-roledescription="rect mark" d="M40,0h20v20h-20Z" fill="rgb(39, 145, 188)"/><path aria-label="admission_date: 2023-06; admission_time: 04-08; patients: 87" role="graphics-symbol" aria-roledescription="rect mark" d="M40,20h20v20h-20Z" fill="rgb(60, 172, 193)"/><path aria-label="admission_date: 2023-06; admission_time: 08-12; patients: 89" role="graphics-symbol" aria-roledescription="rect mark" d="M40,40h20v20h-20Z" fill="rgb(50, 164, 193)"/><path aria-label="admission_date: 2023-06; admission_time: 12-16; patients: 91" role="graphics-symbol" aria-roledescription="rect mark" d="M40,60h20v20h-20Z" fill="rgb(43, 155, 191)"/><path aria-label="admission_date: 2023-06; admission_time: 16-20; patients: 58" role="graphics-symbol" aria-roledescription="rect mark" d="M40,80h20v20h-20Z" fill="rgb(239, 249, 189)"/><path aria-label="admission_date: 2023-06; admission_time: 20-00; patients: 88" role="graphics-symbol" aria-roledescription="rect mark" d="M40,100h20v20h-20Z" fill="rgb(55, 168, 193)"/><path aria-label="admission_date: 2023-07; admission_time: 00-04; patients: 95" role="graphics-symbol" aria-roledescription="rect mark" d="M60,0h20v20h-20Z" fill="rgb(35, 134, 185)"/><path aria-label="admission_date: 2023-07; admission_time: 04-08; patients: 72" role="graphics-symbol" aria-roledescription="rect mark" d="M60,20h20v20h-20Z" fill="rgb(165, 220, 183)"/><path aria-label="admission_date: 2023-07; admission_time: 08-12; patients: 70" role="graphics-symbol" aria-roledescription="rect mark" d="M60,40h20v20h-20Z" fill="rgb(180, 225, 182)"/><path aria-label="admission_date: 2023-07; admission_time: 12-16; patients: 75" role="graphics-symbol" aria-roledescription="rect mark" d="M60,60h20v20h-20Z" fill="rgb(142, 211, 186)"/><path aria-label="admission_date: 2023-07; admission_time: 16-20; patients: 69" role="graphics-symbol" aria-roledescription="rect mark" d="M60,80h20v20h-20Z" fill="rgb(187, 228, 181)"/><path aria-label="admission_date: 2023-07; admission_time: 20-00; patients: 83" role="graphics-symbol" aria-roledescription="rect mark" d="M60,100h20v20h-20Z" fill="rgb(82, 186, 193)"/><path aria-label="admission_date: 2023-08; admission_time: 00-04; patients: 84" role="graphics-symbol" aria-roledescription="rect mark" d="M80,0h20v20h-20Z" fill="rgb(76, 183, 193)"/><path aria-label="admission_date: 2023-08; admission_time: 04-08; patients: 84" role="graphics-symbol" aria-roledescription="rect mark" d="M80,20h20v20h-20Z" fill="rgb(76, 183, 193)"/><path aria-label="admission_date: 2023-08; admission_time: 08-12; patients: 80" role="graphics-symbol" aria-roledescription="rect mark" d="M80,40h20v20h-20Z" fill="rgb(102, 196, 190)"/><path aria-label="admission_date: 2023-08; admission_time: 12-16; patients: 76" role="graphics-symbol" aria-roledescription="rect mark" d="M80,60h20v20h-20Z" fill="rgb(134, 208, 187)"/><path aria-label="admission_date: 2023-08; admission_time: 16-20; patients: 79" role="graphics-symbol" aria-roledescription="rect mark" d="M80,80h20v20h-20Z" fill="rgb(110, 199, 189)"/><path aria-label="admission_date: 2023-08; admission_time: 20-00; patients: 91" role="graphics-symbol" aria-roledescription="rect mark" d="M80,100h20v20h-20Z" fill="rgb(43, 155, 191)"/><path aria-label="admission_date: 2023-09; admission_time: 00-04; patients: 78" role="graphics-symbol" aria-roledescription="rect mark" d="M100,0h20v20h-20Z" fill="rgb(118, 202, 189)"/><path aria-label="admission_date: 2023-09; admission_time: 04-08; patients: 79" role="graphics-symbol" aria-roledescription="rect mark" d="M100,20h20v20h-20Z" fill="rgb(110, 199, 189)"/><path aria-label="admission_date: 2023-09; admission_time: 08-12; patients: 72" role="graphics-symbol" aria-roledescription="rect mark" d="M100,40h20v20h-20Z" fill="rgb(165, 220, 183)"/><path aria-label="admission_date: 2023-09; admission_time: 12-16; patients: 93" role="graphics-symbol" aria-roledescription="rect mark" d="M100,60h20v20h-20Z" fill="rgb(39, 145, 188)"/><path aria-label="admission_date: 2023-09; admission_time: 16-20; patients: 73" role="graphics-symbol" aria-roledescription="rect mark" d="M100,80h20v20h-20Z" fill="rgb(157, 217, 184)"/><path aria-label="admission_date: 2023-09; admission_time: 20-00; patients: 74" role="graphics-symbol" aria-roledescription="rect mark" d="M100,100h20v20h-20Z" fill="rgb(150, 214, 185)"/><path aria-label="admission_date: 2023-10; admission_time: 00-04; patients: 69" role="graphics-symbol" aria-roledescription="rect mark" d="M120,0h20v20h-20Z" fill="rgb(187, 228, 181)"/><path aria-label="admission_date: 2023-10; admission_time: 04-08; patients: 86" role="graphics-symbol" aria-roledescription="rect mark" d="M120,20h20v20h-20Z" fill="rgb(64, 176, 194)"/><path aria-label="admission_date: 2023-10; admission_time: 08-12; patients: 92" role="graphics-symbol" aria-roledescription="rect mark" d="M120,40h20v20h-20Z" fill="rgb(41, 150, 190)"/><path aria-label="admission_date: 2023-10; admission_time: 12-16; patients: 88" role="graphics-symbol" aria-roledescription="rect mark" d="M120,60h20v20h-20Z" fill="rgb(55, 168, 193)"/><path aria-label="admission_date: 2023-10; admission_time: 16-20; patients: 88" role="graphics-symbol" aria-roledescription="rect mark" d="M120,80h20v20h-20Z" fill="rgb(55, 168, 193)"/><path aria-label="admission_date: 2023-10; admission_time: 20-00; patients: 70" role="graphics-symbol" aria-roledescription="rect mark" d="M120,100h20v20h-20Z" fill="rgb(180, 225, 182)"/><path aria-label="admission_date: 2023-11; admission_time: 00-04; patients: 84" role="graphics-symbol" aria-roledescription="rect mark" d="M140,0h20v20h-20Z" fill="rgb(76, 183, 193)"/><path aria-label="admission_date: 2023-11; admission_time: 04-08; patients: 83" role="graphics-symbol" aria-roledescription="rect mark" d="M140,20h20v20h-20Z" fill="rgb(82, 186, 193)"/><path aria-label="admission_date: 2023-11; admission_time: 08-12; patients: 69" role="graphics-symbol" aria-roledescription="rect mark" d="M140,40h20v20h-20Z" fill="rgb(187, 228, 181)"/><path aria-label="admission_date: 2023-11; admission_time: 12-16; patients: 89" role="graphics-symbol" aria-roledescription="rect mark" d="M140,60h20v20h-20Z" fill="rgb(50, 164, 193)"/><path aria-label="admission_date: 2023-11; admission_time: 16-20; patients: 70" role="graphics-symbol" aria-roledescription="rect mark" d="M140,80h20v20h-20Z" fill="rgb(180, 225, 182)"/><path aria-label="admission_date: 2023-11; admission_time: 20-00; patients: 69" role="graphics-symbol" aria-roledescription="rect mark" d="M140,100h20v20h-20Z" fill="rgb(187, 228, 181)"/><path aria-label="admission_date: 2023-12; admission_time: 00-04; patients: 90" role="graphics-symbol" aria-roledescription="rect mark" d="M160,0h20v20h-20Z" fill="rgb(46, 160, 192)"/><path aria-label="admission_date: 2023-12; admission_time: 04-08; patients: 73" role="graphics-symbol" aria-roledescription="rect mark" d="M160,20h20v20h-20Z" fill="rgb(157, 217, 184)"/><path aria-label="admission_date: 2023-12; admission_time: 08-12; patients: 66" role="graphics-symbol" aria-roledescription="rect mark" d="M160,40h20v20h-20Z" fill="rgb(205, 235, 180)"/><path aria-label="admission_date: 2023-12; admission_time: 12-16; patients: 82" role="graphics-symbol" aria-roledescription="rect mark" d="M160,60h20v20h-20Z" fill="rgb(89, 189, 192)"/><path aria-label="admission_date: 2023-12; admission_time: 16-20; patients: 84" role="graphics-symbol" aria-roledescription="rect mark" d="M160,80h20v20h-20Z" fill="rgb(76, 183, 193)"/><path aria-label="admission_date: 2023-12; admission_time: 20-00; patients: 94" role="graphics-symbol" aria-roledescription="rect mark" d="M160,100h20v20h-20Z" fill="rgb(37, 139, 187)"/><path aria-label="admission_date: 2024-01; admission_time: 00-04; patients: 79" role="graphics-symbol" aria-roledescription="rect mark" d="M180,0h20v20h-20Z" fill="rgb(110, 199, 189)"/><path aria-label="admission_date: 2024-01; admission_time: 04-08; patients: 74" role="graphics-symbol" aria-roledescription="rect mark" d="M180,20h20v20h-20Z" fill="rgb(150, 214, 185)"/><path aria-label="admission_date: 2024-01; admission_time: 08-12; patients: 112" role="graphics-symbol" aria-roledescription="rect mark" d="M180,40h20v20h-20Z" fill="rgb(28, 49, 133)"/><path aria-label="admission_date: 2024-01; admission_time: 12-16; patients: 76" role="graphics-symbol" aria-roledescription="rect mark" d="M180,60h20v20h-20Z" fill="rgb(134, 208, 187)"/><path aria-label="admission_date: 2024-01; admission_time: 16-20; patients: 84" role="graphics-symbol" aria-roledescription="rect mark" d="M180,80h20v20h-20Z" fill="rgb(76, 183, 193)"/><path aria-label="admission_date: 2024-01; admission_time: 20-00; patients: 88" role="graphics-symbol" aria-roledescription="rect mark" d="M180,100h20v20h-20Z" fill="rgb(55, 168, 193)"/><path aria-label="admission_date: 2024-02; admission_time: 00-04; patients: 62" role="graphics-symbol" aria-roledescription="rect mark" d="M200,0h20v20h-20Z" fill="rgb(224, 243, 182)"/><path aria-label="admission_date: 2024-02; admission_time: 04-08; patients: 67" role="graphics-symbol" aria-roledescription="rect mark" d="M200,20h20v20h-20Z" fill="rgb(199, 233, 181)"/><path aria-label="admission_date: 2024-02; admission_time: 08-12; patients: 83" role="graphics-symbol" aria-roledescription="rect mark" d="M200,40h20v20h-20Z" fill="rgb(82, 186, 193)"/><path aria-label="admission_date: 2024-02; admission_time: 12-16; patients: 67" role="graphics-symbol" aria-roledescription="rect mark" d="M200,60h20v20h-20Z" fill="rgb(199, 233, 181)"/><path aria-label="admission_date: 2024-02; admission_time: 16-20; patients: 68" role="graphics-symbol" aria-roledescription="rect mark" d="M200,80h20v20h-20Z" fill="rgb(193, 231, 181)"/><path aria-label="admission_date: 2024-02; admission_time: 20-00; patients: 84" role="graphics-symbol" aria-roledescription="rect mark" d="M200,100h20v20h-20Z" fill="rgb(76, 183, 193)"/><path aria-label="admission_date: 2024-03; admission_time: 00-04; patients: 67" role="graphics-symbol" aria-roledescription="rect mark" d="M220,0h20v20h-20Z" fill="rgb(199, 233, 181)"/><path aria-label="admission_date: 2024-03; admission_time: 04-08; patients: 89" role="graphics-symbol" aria-roledescription="rect mark" d="M220,20h20v20h-20Z" fill="rgb(50, 164, 193)"/><path aria-label="admission_date: 2024-03; admission_time: 08-12; patients: 97" role="graphics-symbol" aria-roledescription="rect mark" d="M220,40h20v20h-20Z" fill="rgb(33, 123, 181)"/><path aria-label="admission_date: 2024-03; admission_time: 12-16; patients: 81" role="graphics-symbol" aria-roledescription="rect mark" d="M220,60h20v20h-20Z" fill="rgb(96, 193, 191)"/><path aria-label="admission_date: 2024-03; admission_time: 16-20; patients: 95" role="graphics-symbol" aria-roledescription="rect mark" d="M220,80h20v20h-20Z" fill="rgb(35, 134, 185)"/><path aria-label="admission_date: 2024-03; admission_time: 20-00; patients: 77" role="graphics-symbol" aria-roledescription="rect mark" d="M220,100h20v20h-20Z" fill="rgb(126, 205, 188)"/><path aria-label="admission_date: 2024-04; admission_time: 00-04; patients: 68" role="graphics-symbol" aria-roledescription="rect mark" d="M240,0h20v20h-20Z" fill="rgb(193, 231, 181)"/><path aria-label="admission_date: 2024-04; admission_time: 04-08; patients: 83" role="graphics-symbol" aria-roledescription="rect mark" d="M240,20h20v20h-20Z" fill="rgb(82, 186, 193)"/><path aria-label="admission_date: 2024-04; admission_time: 08-12; patients: 79" role="graphics-symbol" aria-roledescription="rect mark" d="M240,40h20v20h-20Z" fill="rgb(110, 199, 189)"/><path aria-label="admission_date: 2024-04; admission_time: 12-16; patients: 77" role="graphics-symbol" aria-roledescription="rect mark" d="M240,60h20v20h-20Z" fill="rgb(126, 205, 188)"/><path aria-label="admission_date: 2024-04; admission_time: 16-20; patients: 71" role="graphics-symbol" aria-roledescription="rect mark" d="M240,80h20v20h-20Z" fill="rgb(172, 222, 183)"/><path aria-label="admission_date: 2024-04; admission_time: 20-00; patients: 91" role="graphics-symbol" aria-roledescription="rect mark" d="M240,100h20v20h-20Z" fill="rgb(43, 155, 191)"/><path aria-label="admission_date: 2024-05; admission_time: 00-04; patients: 99" role="graphics-symbol" aria-roledescription="rect mark" d="M260,0h20v20h-20Z" fill="rgb(33, 112, 176)"/><path aria-label="admission_date: 2024-05; admission_time: 04-08; patients: 105" role="graphics-symbol" aria-roledescription="rect mark" d="M260,20h20v20h-20Z" fill="rgb(34, 79, 160)"/><path aria-label="admission_date: 2024-05; admission_time: 08-12; patients: 81" role="graphics-symbol" aria-roledescription="rect mark" d="M260,40h20v20h-20Z" fill="rgb(96, 193, 191)"/><path aria-label="admission_date: 2024-05; admission_time: 12-16; patients: 83" role="graphics-symbol" aria-roledescription="rect mark" d="M260,60h20v20h-20Z" fill="rgb(82, 186, 193)"/><path aria-label="admission_date: 2024-05; admission_time: 16-20; patients: 73" role="graphics-symbol" aria-roledescription="rect mark" d="M260,80h20v20h-20Z" fill="rgb(157, 217, 184)"/><path aria-label="admission_date: 2024-05; admission_time: 20-00; patients: 78" role="graphics-symbol" aria-roledescription="rect mark" d="M260,100h20v20h-20Z" fill="rgb(118, 202, 189)"/><path aria-label="admission_date: 2024-06; admission_time: 00-04; patients: 80" role="graphics-symbol" aria-roledescription="rect mark" d="M280,0h20v20h-20Z" fill="rgb(102, 196, 190)"/><path aria-label="admission_date: 2024-06; admission_time: 04-08; patients: 75" role="graphics-symbol" aria-roledescription="rect mark" d="M280,20h20v20h-20Z" fill="rgb(142, 211, 186)"/><path aria-label="admission_date: 2024-06; admission_time: 08-12; patients: 75" role="graphics-symbol" aria-roledescription="rect mark" d="M280,40h20v20h-20Z" fill="rgb(142, 211, 186)"/><path aria-label="admission_date: 2024-06; admission_time: 12-16; patients: 73" role="graphics-symbol" aria-roledescription="rect mark" d="M280,60h20v20h-20Z" fill="rgb(157, 217, 184)"/><path aria-label="admission_date: 2024-06; admission_time: 16-20; patients: 92" role="graphics-symbol" aria-roledescription="rect mark" d="M280,80h20v20h-20Z" fill="rgb(41, 150, 190)"/><path aria-label="admission_date: 2024-06; admission_time: 20-00; patients: 90" role="graphics-symbol" aria-roledescription="rect mark" d="M280,100h20v20h-20Z" fill="rgb(46, 160, 192)"/><path aria-label="admission_date: 2024-07; admission_time: 00-04; patients: 84" role="graphics-symbol" aria-roledescription="rect mark" d="M300,0h20v20h-20Z" fill="rgb(76, 183, 193)"/><path aria-label="admission_date: 2024-07; admission_time: 04-08; patients: 82" role="graphics-symbol" aria-roledescription="rect mark" d="M300,20h20v20h-20Z" fill="rgb(89, 189, 192)"/><path aria-label="admission_date: 2024-07; admission_time: 08-12; patients: 72" role="graphics-symbol" aria-roledescription="rect mark" d="M300,40h20v20h-20Z" fill="rgb(165, 220, 183)"/><path aria-label="admission_date: 2024-07; admission_time: 12-16; patients: 98" role="graphics-symbol" aria-roledescription="rect mark" d="M300,60h20v20h-20Z" fill="rgb(33, 117, 178)"/><path aria-label="admission_date: 2024-07; admission_time: 16-20; patients: 71" role="graphics-symbol" aria-roledescription="rect mark" d="M300,80h20v20h-20Z" fill="rgb(172, 222, 183)"/><path aria-label="admission_date: 2024-07; admission_time: 20-00; patients: 81" role="graphics-symbol" aria-roledescription="rect mark" d="M300,100h20v20h-20Z" fill="rgb(96, 193, 191)"/><path aria-label="admission_date: 2024-08; admission_time: 00-04; patients: 100" role="graphics-symbol" aria-roledescription="rect mark" d="M320,0h20v20h-20Z" fill="rgb(33, 106, 173)"/><path aria-label="admission_date: 2024-08; admission_time: 04-08; patients: 104" role="graphics-symbol" aria-roledescription="rect mark" d="M320,20h20v20h-20Z" fill="rgb(34, 84, 163)"/><path aria-label="admission_date: 2024-08; admission_time: 08-12; patients: 86" role="graphics-symbol" aria-roledescription="rect mark" d="M320,40h20v20h-20Z" fill="rgb(64, 176, 194)"/><path aria-label="admission_date: 2024-08; admission_time: 12-16; patients: 79" role="graphics-symbol" aria-roledescription="rect mark" d="M320,60h20v20h-20Z" fill="rgb(110, 199, 189)"/><path aria-label="admission_date: 2024-08; admission_time: 16-20; patients: 86" role="graphics-symbol" aria-roledescription="rect mark" d="M320,80h20v20h-20Z" fill="rgb(64, 176, 194)"/><path aria-label="admission_date: 2024-08; admission_time: 20-00; patients: 75" role="graphics-symbol" aria-roledescription="rect mark" d="M320,100h20v20h-20Z" fill="rgb(142, 211, 186)"/><path aria-label="admission_date: 2024-09; admission_time: 00-04; patients: 78" role="graphics-symbol" aria-roledescription="rect mark" d="M340,0h20v20h-20Z" fill="rgb(118, 202, 189)"/><path aria-label="admission_date: 2024-09; admission_time: 04-08; patients: 77" role="graphics-symbol" aria-roledescription="rect mark" d="M340,20h20v20h-20Z" fill="rgb(126, 205, 188)"/><path aria-label="admission_date: 2024-09; admission_time: 08-12; patients: 71" role="graphics-symbol" aria-roledescription="rect mark" d="M340,40h20v20h-20Z" fill="rgb(172, 222, 183)"/><path aria-label="admission_date: 2024-09; admission_time: 12-16; patients: 74" role="graphics-symbol" aria-roledescription="rect mark" d="M340,60h20v20h-20Z" fill="rgb(150, 214, 185)"/><path aria-label="admission_date: 2024-09; admission_time: 16-20; patients: 79" role="graphics-symbol" aria-roledescription="rect mark" d="M340,80h20v20h-20Z" fill="rgb(110, 199, 189)"/><path aria-label="admission_date: 2024-09; admission_time: 20-00; patients: 87" role="graphics-symbol" aria-roledescription="rect mark" d="M340,100h20v20h-20Z" fill="rgb(60, 172, 193)"/><path aria-label="admission_date: 2024-10; admission_time: 00-04; patients: 73" role="graphics-symbol" aria-roledescription="rect mark" d="M360,0h20v20h-20Z" fill="rgb(157, 217, 184)"/><path aria-label="admission_date: 2024-10; admission_time: 04-08; patients: 78" role="graphics-symbol" aria-roledescription="rect mark" d="M360,20h20v20h-20Z" fill="rgb(118, 202, 189)"/><path aria-label="admission_date: 2024-10; admission_time: 08-12; patients: 75" role="graphics-symbol" aria-roledescription="rect mark" d="M360,40h20v20h-20Z" fill="rgb(142, 211, 186)"/><path aria-label="admission_date: 2024-10; admission_time: 12-16; patients: 75" role="graphics-symbol" aria-roledescription="rect mark" d="M360,60h20v20h-20Z" fill="rgb(142, 211, 186)"/><path aria-label="admission_date: 2024-10; admission_time: 16-20; patients: 84" role="graphics-symbol" aria-roledescription="rect mark" d="M360,80h20v20h-20Z" fill="rgb(76, 183, 193)"/><path aria-label="admission_date: 2024-10; admission_time: 20-00; patients: 86" role="graphics-symbol" aria-roledescription="rect mark" d="M360,100h20v20h-20Z" fill="rgb(64, 176, 194)"/></g><g class="mark-group role-legend" role="graphics-symbol" aria-roledescription="legend" aria-label="Gradient legend titled 'patients' for fill color with values from 58 to 112"><g transform="translate(398,0)"><path class="background" aria-hidden="true" d="M0,0h43v137h-43Z" pointer-events="none"/><g><g class="mark-group role-legend-entry"><g transform="translate(0,16)"><path class="background" aria-hidden="true" d="M0,0h0v0h0Z" pointer-events="none"/><g><g class="mark-rect role-legend-gradient" pointer-events="none"><path d="M0,0h16v120h-16Z" fill="url(#gradient_1)" stroke="#ddd" stroke-width="0" opacity="1"/></g><g class="mark-text role-legend-label" pointer-events="none"><text text-anchor="start" transform="translate(18,118.55555555555556)" font-family="sans-serif" font-size="10px" fill="#000" opacity="1">60</text><text text-anchor="start" transform="translate(18,74.11111111111111)" font-family="sans-serif" font-size="10px" fill="#000" opacity="1">80</text><text text-anchor="start" transform="translate(18,29.666666666666664)" font-family="sans-serif" font-size="10px" fill="#000" opacity="1">100</text></g></g><path class="foreground" aria-hidden="true" d="" pointer-events="none" display="none"/></g></g><g class="mark-text role-legend-title" pointer-events="none"><text text-anchor="start" transform="translate(0,9)" font-family="sans-serif" font-size="11px" font-weight="bold" fill="#000" opacity="1">patients</text></g></g><path class="foreground" aria-hidden="true" d="" pointer-events="none" display="none"/></g></g><g class="mark-group role-axis" role="graphics-symbol" aria-roledescription="axis" aria-label="X-axis titled 'admission_date' for a discrete scale with 19 values: 2023-04, 2023-05, 2023-06, 2023-07, 2023-08, ending with 2024-10"><g transform="translate(0.5,120.5)"><path class="background" aria-hidden="true" d="M0,0h0v0h0Z" pointer-events="none"/><g><g class="mark-rule role-axis-tick" pointer-events="none"><line transform="translate(10,0)" x2="0" y2="5" stroke="#888" stroke-width="1" opacity="1"/><line transform="translate(30,0)" x2="0" y2="5" stroke="#888" stroke-width="1" opacity="1"/><line transform="translate(50,0)" x2="0" y2="5" stroke="#888" stroke-width="1" opacity="1"/><line transform="translate(70,0)" x2="0" y2="5" stroke="#888" stroke-width="1" opacity="1"/><line transform="translate(90,0)" x2="0" y2="5" stroke="#888" stroke-width="1" opacity="1"/><line transform="translate(110,0)" x2="0" y2="5" stroke="#888" stroke-width="1" opacity="1"/><line transform="translate(130,0)" x2="0" y2="5" stroke="#888" stroke-width="1" opacity="1"/><line transform="translate(150,0)" x2="0" y2="5" stroke="#888" stroke-width="1" opacity="1"/><line transform="translate(170,0)" x2="0" y2="5" stroke="#888" stroke-width="1" opacity="1"/><line transform="translate(190,0)" x2="0" y2="5" stroke="#888" stroke-width="1" opacity="1"/><line transform="translate(210,0)" x2="0" y2="5" stroke="#888" stroke-width="1" opacity="1"/><line transform="translate(230,0)" x2="0" y2="5" stroke="#888" stroke-width="1" opacity="1"/><line transform="translate(250,0)" x2="0" y2="5" stroke="#888" stroke-width="1" opacity="1"/><line transform="translate(270,0)" x2="0" y2="5" stroke="#888" stroke-width="1" opacity="1"/><line transform="translate(290,0)" x2="0" y2="5" stroke="#888" stroke-width="1" opacity="1"/><line transform="translate(310,0)" x2="0" y2="5" stroke="#888" stroke-width="1" opacity="1"/><line transform="translate(330,0)" x2="0" y2="5" stroke="#888" stroke-width="1" opacity="1"/><line transform="translate(350,0)" x2="0" y2="5" stroke="#888" stroke-width="1" opacity="1"/><line transform="translate(370,0)" x2="0" y2="5" stroke="#888" stroke-width="1" opacity="1"/></g><g class="mark-text role-axis-label" pointer-events="none"><text text-anchor="end" transform="translate(9.5,7) rotate(270) translate(0,3)" font-family="sans-serif" font-size="10px" fill="#000" opacity="1">2023-04</text><text text-anchor="end" transform="translate(29.5,7) rotate(270) translate(0,3)" font-family="sans-serif" font-size="10px" fill="#000" opacity="1">2023-05</text><text text-anchor="end" transform="translate(49.5,7) rotate(270) translate(0,3)" font-family="sans-serif" font-size="10px" fill="#000" opacity="1">2023-06</text><text text-anchor="end" transform="translate(69.5,7) rotate(270) translate(0,3)" font-family="sans-serif" font-size="10px" fill="#000" opacity="1">2023-07</text><text text-anchor="end" transform="translate(89.5,7) rotate(270) translate(0,3)" font-family="sans-serif" font-size="10px" fill="#000" opacity="1">2023-08</text><text text-anchor="end" transform="translate(109.5,7) rotate(270) translate(0,3)" font-family="sans-serif" font-size="10px" fill="#000" opacity="1">2023-09</text><text text-anchor="end" transform="translate(129.5,7) rotate(270) translate(0,3)" font-family="sans-serif" font-size="10px" fill="#000" opacity="1">2023-10</text><text text-anchor="end" transform="translate(149.5,7) rotate(270) translate(0,3)" font-family="sans-serif" font-size="10px" fill="#000" opacity="1">2023-11</text><text text-anchor="end" transform="translate(169.5,7) rotate(270) translate(0,3)" font-family="sans-serif" font-size="10px" fill="#000" opacity="1">2023-12</text><text text-anchor="end" transform="translate(189.5,7) rotate(270) translate(0,3)" font-family="sans-serif" font-size="10px" fill="#000" opacity="1">2024-01</text><text text-anchor="end" transform="translate(209.5,7) rotate(270) translate(0,3)" font-family="sans-serif" font-size="10px" fill="#000" opacity="1">2024-02</text><text text-anchor="end" transform="translate(229.5,7) rotate(270) translate(0,3)" font-family="sans-serif" font-size="10px" fill="#000" opacity="1">2024-03</text><text text-anchor="end" transform="translate(249.5,7) rotate(270) translate(0,3)" font-family="sans-serif" font-size="10px" fill="#000" opacity="1">2024-04</text><text text-anchor="end" transform="translate(269.5,7) rotate(270) translate(0,3)" font-family="sans-serif" font-size="10px" fill="#000" opacity="1">2024-05</text><text text-anchor="end" transform="translate(289.5,7) rotate(270) translate(0,3)" font-family="sans-serif" font-size="10px" fill="#000" opacity="1">2024-06</text><text text-anchor="end" transform="translate(309.5,7) rotate(270) translate(0,3)" font-family="sans-serif" font-size="10px" fill="#000" opacity="1">2024-07</text><text text-anchor="end" transform="translate(329.5,7) rotate(270) translate(0,3)" font-family="sans-serif" font-size="10px" fill="#000" opacity="1">2024-08</text><text text-anchor="end" transform="translate(349.5,7) rotate(270) translate(0,3)" font-family="sans-serif" font-size="10px" fill="#000" opacity="1">2024-09</text><text text-anchor="end" transform="translate(369.5,7) rotate(270) translate(0,3)" font-family="sans-serif" font-size="10px" fill="#000" opacity="1">2024-10</text></g><g class="mark-rule role-axis-domain" pointer-events="none"><line transform="translate(0,0)" x2="380" y2="0" stroke="#888" stroke-width="1" opacity="1"/></g><g class="mark-text role-axis-title" pointer-events="none"><text text-anchor="middle" transform="translate(190,56.69921875)" font-family="sans-serif" font-size="11px" font-weight="bold" fill="#000" opacity="1">admission_date</text></g></g><path class="foreground" aria-hidden="true" d="" pointer-events="none" display="none"/></g></g><g class="mark-group role-axis" role="graphics-symbol" aria-roledescription="axis" aria-label="Y-axis titled 'admission_time' for a discrete scale with 6 values: 00-04, 04-08, 08-12, 12-16, 16-20, 20-00"><g transform="translate(0.5,0.5)"><path class="background" aria-hidden="true" d="M0,0h0v0h0Z" pointer-events="none"/><g><g class="mark-rule role-axis-tick" pointer-events="none"><line transform="translate(0,10)" x2="-5" y2="0" stroke="#888" stroke-width="1" opacity="1"/><line transform="translate(0,30)" x2="-5" y2="0" stroke="#888" stroke-width="1" opacity="1"/><line transform="translate(0,50)" x2="-5" y2="0" stroke="#888" stroke-width="1" opacity="1"/><line transform="translate(0,70)" x2="-5" y2="0" stroke="#888" stroke-width="1" opacity="1"/><line transform="translate(0,90)" x2="-5" y2="0" stroke="#888" stroke-width="1" opacity="1"/><line transform="translate(0,110)" x2="-5" y2="0" stroke="#888" stroke-width="1" opacity="1"/></g><g class="mark-text role-axis-label" pointer-events="none"><text text-anchor="end" transform="translate(-7,12.5)" font-family="sans-serif" font-size="10px" fill="#000" opacity="1">00-04</text><text text-anchor="end" transform="translate(-7,32.5)" font-family="sans-serif" font-size="10px" fill="#000" opacity="1">04-08</text><text text-anchor="end" transform="translate(-7,52.5)" font-family="sans-serif" font-size="10px" fill="#000" opacity="1">08-12</text><text text-anchor="end" transform="translate(-7,72.5)" font-family="sans-serif" font-size="10px" fill="#000" opacity="1">12-16</text><text text-anchor="end" transform="translate(-7,92.5)" font-family="sans-serif" font-size="10px" fill="#000" opacity="1">16-20</text><text text-anchor="end" transform="translate(-7,112.5)" font-family="sans-serif" font-size="10px" fill="#000" opacity="1">20-00</text></g><g class="mark-rule role-axis-domain" pointer-events="none"><line transform="translate(0,0)" x2="0" y2="120" stroke="#888" stroke-width="1" opacity="1"/></g><g class="mark-text role-axis-title" pointer-events="none"><text text-anchor="middle" transform="translate(-36.576171875,60) rotate(-90) translate(0,-2)" font-family="sans-serif" font-size="11px" font-weight="bold" fill="#000" opacity="1">admission_time</text></g></g><path class="foreground" aria-hidden="true" d="" pointer-events="none" display="none"/></g></g></g><path class="foreground" aria-hidden="true" d="" display="none"/></g></g></g><defs><linearGradient id="gradient_1" x1="0" x2="0" y1="1" y2="0"><stop offset="0" stop-color="rgb(239, 249, 189)"/><stop offset="0.037037037037037035" stop-color="rgb(232, 246, 186)"/><stop offset="0.12962962962962962" stop-color="rgb(210, 237, 180)"/><stop offset="0.2222222222222222" stop-color="rgb(180, 225, 182)"/><stop offset="0.3148148148148148" stop-color="rgb(142, 211, 186)"/><stop offset="0.4074074074074074" stop-color="rgb(102, 196, 190)"/><stop offset="0.5" stop-color="rgb(69, 180, 194)"/><stop offset="0.5925925925925926" stop-color="rgb(46, 160, 192)"/><stop offset="0.6851851851851852" stop-color="rgb(35, 134, 185)"/><stop offset="0.7777777777777778" stop-color="rgb(33, 106, 173)"/><stop offset="0.8703703703703703" stop-color="rgb(34, 79, 160)"/><stop offset="0.9629629629629629" stop-color="rgb(31, 57, 142)"/><stop offset="1" stop-color="rgb(28, 49, 133)"/></linearGradient></defs></svg>