<svg xmlns="http://www.w3.org/2000/svg" xmlns:xlink="http://www.w3.org/1999/xlink" version="1.1" class="marks" width="198" height="319" viewBox="0 0 198 319"><rect width="198" height="319" fill="white"/><g fill="none" stroke-miterlimit="10" transform="translate(53,5)"><g class="mark-group role-frame root" role="graphics-object" aria-roledescription="group mark container"><g transform="translate(0,0)"><path class="background" aria-hidden="true" d="M0.5,0.5h140v150h-140Z" stroke="#ddd"/><g><g class="mark-group role-axis" aria-hidden="true"><g transform="translate(0.5,0.5)"><path class="background" aria-hidden="true" d="M0,0h0v0h0Z" pointer-events="none"/><g><g class="mark-rule role-axis-grid" pointer-events="none"><line transform="translate(0,150)" x2="140" y2="0" stroke="#ddd" stroke-width="1" opacity="1"/><line transform="translate(0,121)" x2="140" y2="0" stroke="#ddd" stroke-width="1" opacity="1"/><line transform="translate(0,92)" x2="140" y2="0" stroke="#ddd" stroke-width="1" opacity="1"/><line transform="translate(0,63)" x2="140" y2="0" stroke="#ddd" stroke-width="1" opacity="1"/><line transform="translate(0,35)" x2="140" y2="0" stroke="#ddd" stroke-width="1" opacity="1"/><line transform="translate(0,6)" x2="140" y2="0" stroke="#ddd" stroke-width="1" opacity="1"/></g></g><path class="foreground" aria-hidden="true" d="" pointer-events="none" display="none"/></g></g><g class="mark-group role-axis" role="graphics-symbol" aria-roledescription="axis" aria-label="X-axis titled 'Patient Race' for a discrete scale with 7 values: African American, Asian, Declined to Identify, Native American/Alaska Native, Pacific Islander, Two or More Races, White"><g transform="translate(0.5,150.5)"><path class="background" aria-hidden="true" d="M0,0h0v0h0Z" pointer-events="none"/><g><g class="mark-rule role-axis-tick" pointer-events="none"><line transform="translate(10,0)" x2="0" y2="5" stroke="#888" stroke-width="1" opacity="1"/><line transform="translate(30,0)" x2="0" y2="5" stroke="#888" stroke-width="1" opacity="1"/><line transform="translate(50,0)" x2="0" y2="5" stroke="#888" stroke-width="1" opacity="1"/><line transform="translate(70,0)" x2="0" y2="5" stroke="#888" stroke-width="1" opacity="1"/><line transform="translate(90,0)" x2="0" y2="5" stroke="#888" stroke-width="1" opacity="1"/><line transform="translate(110,0)" x2="0" y2="5" stroke="#888" stroke-width="1" opacity="1"/><line transform="translate(130,0)" x2="0" y2="5" stroke="#888" stroke-width="1" opacity="1"/></g><g class="mark-text role-axis-label" pointer-events="none"><text text-anchor="end" transform="translate(9.5,7) rotate(270) translate(0,3)" font-family="sans-serif" font-size="10px" fill="#000" opacity="1">African American</text><text text-anchor="end" transform="translate(29.5,7) rotate(270) translate(0,3)" font-family="sans-serif" font-size="10px" fill="#000" opacity="1">Asian</text><text text-anchor="end" transform="translate(49.5,7) rotate(270) translate(0,3)" font-family="sans-serif" font-size="10px" fill="#000" opacity="1">Declined to Identify</text><text text-anchor="end" transform="translate(69.5,7) rotate(270) translate(0,3)" font-family="sans-serif" font-size="10px" fill="#000" opacity="1">Native American/Alaska Native</text><text text-anchor="end" transform="translate(89.5,7) rotate(270) translate(0,3)" font-family="sans-serif" font-size="10px" fill="#000" opacity="1">Pacific Islander</text><text text-anchor="end" transform="translate(109.5,7) rotate(270) translate(0,3)" font-family="sans-serif" font-size="10px" fill="#000" opacity="1">Two or More Races</text><text text-anchor="end" transform="translate(129.5,7) rotate(270) translate(0,3)" font-family="sans-serif" font-size="10px" fill="#000" opacity="1">White</text></g><g class="mark-rule role-axis-domain" pointer-events="none"><line transform="translate(0,0)" x2="140" y2="0" stroke="#888" stroke-width="1" opacity="1"/></g><g class="mark-text role-axis-title" pointer-events="none"><text text-anchor="middle" transform="translate(70,156.7236328125)" font-family="sans-serif" font-size="11px" font-weight="bold" fill="#000" opacity="1">Patient Race</text></g></g><path class="foreground" aria-hidden="true" d="" pointer-events="none" display="none"/></g></g><g class="mark-group role-axis" role="graphics-symbol" aria-roledescription="axis" aria-label="Y-axis titled 'patients' for a linear scale with values from 0 to 2,600"><g transform="translate(0.5,0.5)"><path class="background" aria-hidden="true" d="M0,0h0v0h0Z" pointer-events="none"/><g><g class="mark-rule role-axis-tick" pointer-events="none"><line transform="translate(0,150)" x2="-5" y2="0" stroke="#888" stroke-width="1" opacity="1"/><line transform="translate(0,121)" x2="-5" y2="0" stroke="#888" stroke-width="1" opacity="1"/><line transform="translate(0,92)" x2="-5" y2="0" stroke="#888" stroke-width="1" opacity="1"/><line transform="translate(0,63)" x2="-5" y2="0" stroke="#888" stroke-width="1" opacity="1"/><line transform="translate(0,35)" x2="-5" y2="0" stroke="#888" stroke-width="1" opacity="1"/><line transform="translate(0,6)" x2="-5" y2="0" stroke="#888" stroke-width="1" opacity="1"/></g><g class="mark-text role-axis-label" pointer-events="none"><text text-anchor="end" transform="translate(-7,153)" font-family="sans-serif" font-size="10px" fill="#000" opacity="1">0</text><text text-anchor="end" transform="translate(-7,124.15384615384616)" font-family="sans-serif" font-size="10px" fill="#000" opacity="1">500</text><text text-anchor="end" transform="translate(-7,95.3076923076923)" font-family="sans-serif" font-size="10px" fill="#000" opacity="1">1,000</text><text text-anchor="end" transform="translate(-7,66.46153846153847)" font-family="sans-serif" font-size="10px" fill="#000" opacity="1">1,500</text><text text-anchor="end" transform="translate(-7,37.615384615384606)" font-family="sans-serif" font-size="10px" fill="#000" opacity="1">2,000</text><text text-anchor="end" transform="translate(-7,8.769230769230766)" font-family="sans-serif" font-size="10px" fill="#000" opacity="1">2,500</text></g><g class="mark-rule role-axis-domain" pointer-events="none"><line transform="translate(0,150)" x2="0" y2="-150" stroke="#888" stroke-width="1" opacity="1"/></g><g class="mark-text role-axis-title" pointer-events="none"><text text-anchor="middle" transform="translate(-36.0244140625,75) rotate(-90) translate(0,-2)" font-family="sans-serif" font-size="11px" font-weight="bold" fill="#000" opacity="1">patients</text></g></g><path class="foreground" aria-hidden="true" d="" pointer-events="none" display="none"/></g></g><g class="mark-rect role-mark marks" role="graphics-object" aria-roledescription="rect mark container"><path aria-label="Patient Race: African American; patients: 1951" role="graphics-symbol" aria-roledescription="bar" d="M1,37.442307692307686h18v112.55769230769232h-18Z" fill="#4c78a8"/><path aria-label="Patient Race: Asian; patients: 1060" role="graphics-symbol" aria-roledescription="bar" d="M21,88.84615384615385h18v61.153846153846146h-18Z" fill="#4c78a8"/><path aria-label="Patient Race: Declined to Identify; patients: 1030" role="graphics-symbol" aria-roledescription="bar" d="M41,90.5769230769231h18v59.423076923076906h-18Z" fill="#4c78a8"/><path aria-label="Patient Race: Native American/Alaska Native; patients: 498" role="graphics-symbol" aria-roledescription="bar" d="M61,121.26923076923077h18v28.730769230769226h-18Z" fill="#4c78a8"/><path aria-label="Patient Race: Pacific Islander; patients: 549" role="graphics-symbol" aria-roledescription="bar" d="M81,118.32692307692308h18v31.67307692307692h-18Z" fill="#4c78a8"/><path aria-label="Patient Race: Two or More Races; patients: 1557" role="graphics-symbol" aria-roledescription="bar" d="M101,60.17307692307693h18v89.82692307692307h-18Z" fill="#4c78a8"/><path aria-label="Patient Race: White; patients: 2571" role="graphics-symbol" aria-roledescription="bar" d="M121,1.6730769230769271h18v148.32692307692307h-18Z" fill="#4c78a8"/></g></g><path class="foreground" aria-hidden="true" d="" display="none"/></g></g></g></svg>