<svg xmlns="http://www.w3.org/2000/svg" xmlns:xlink="http://www.w3.org/1999/xlink" version="1.1" class="marks" width="499" height="229" viewBox="0 0 499 229"><rect width="499" height="229" fill="white"/><g fill="none" stroke-miterlimit="10" transform="translate(53,5)"><g class="mark-group role-frame root" role="graphics-object" aria-roledescription="group mark container"><g transform="translate(0,0)"><path class="background" aria-hidden="true" d="M0.5,0.5h380v160h-380Z" stroke="#ddd"/><g><g class="mark-rect role-mark marks" role="graphics-object" aria-roledescription="rect mark container"><path aria-label="admission_date: 2023-04; Patient Age: 0-9; patients: 70" role="graphics-symbol" aria-roledescription="rect mark" d="M0,0h20v20h-20Z" fill="rgb(33, 96, 169)"/><path aria-label="admission_date: 2023-04; Patient Age: 10-19; patients: 67" role="graphics-symbol" aria-roledescription="rect mark" d="M0,20h20v20h-20Z" fill="rgb(33, 118, 179)"/><path aria-label="admission_date: 2023-04; Patient Age: 20-29; patients: 64" role="graphics-symbol" aria-roledescription="rect mark" d="M0,40h20v20h-20Z" fill="rgb(37, 139, 187)"/><path aria-label="admission_date: 2023-04; Patient Age: 30-39; patients: 60" role="graphics-symbol" aria-roledescription="rect mark" d="M0,60h20v20h-20Z" fill="rgb(51, 164, 193)"/><path aria-label="admission_date: 2023-04; Patient Age: 40-49; patients: 36" role="graphics-symbol" aria-roledescription="rect mark" d="M0,80h20v20h-20Z" fill="rgb(239, 249, 189)"/><path aria-label="admission_date: 2023-04; Patient Age: 50-59; patients: 54" role="graphics-symbol" aria-roledescription="rect mark" d="M0,100h20v20h-20Z" fill="rgb(95, 192, 191)"/><path aria-label="admission_date: 2023-04; Patient Age: 60-69; patients: 66" role="graphics-symbol" aria-roledescription="rect mark" d="M0,120h20v20h-20Z" fill="rgb(33, 126, 182)"/><path aria-label="admission_date: 2023-04; Patient Age: 70-79; patients: 62" role="graphics-symbol" aria-roledescription="rect mark" d="M0,140h20v20h-20Z" fill="rgb(42, 153, 190)"/><path aria-label="admission_date: 2023-05; Patient Age: 0-9; patients: 63" role="graphics-symbol" aria-roledescription="rect mark" d="M20,0h20v20h-20Z" fill="rgb(39, 146, 189)"/><path aria-label="admission_date: 2023-05; Patient Age: 10-19; patients: 49" role="graphics-symbol" aria-roledescription="rect mark" d="M20,20h20v20h-20Z" fill="rgb(144, 211, 185)"/><path aria-label="admission_date: 2023-05; Patient Age: 20-29; patients: 57" role="graphics-symbol" aria-roledescription="rect mark" d="M20,40h20v20h-20Z" fill="rgb(69, 180, 194)"/><path aria-label="admission_date: 2023-05; Patient Age: 30-39; patients: 73" role="graphics-symbol" aria-roledescription="rect mark" d="M20,60h20v20h-20Z" fill="rgb(35, 76, 159)"/><path aria-label="admission_date: 2023-05; Patient Age: 40-49; patients: 54" role="graphics-symbol" aria-roledescription="rect mark" d="M20,80h20v20h-20Z" fill="rgb(95, 192, 191)"/><path aria-label="admission_date: 2023-05; Patient Age: 50-59; patients: 61" role="graphics-symbol" aria-roledescription="rect mark" d="M20,100h20v20h-20Z" fill="rgb(45, 159, 192)"/><path aria-label="admission_date: 2023-05; Patient Age: 60-69; patients: 61" role="graphics-symbol" aria-roledescription="rect mark" d="M20,120h20v20h-20Z" fill="rgb(45, 159, 192)"/><path aria-label="admission_date: 2023-05; Patient Age: 70-79; patients: 62" role="graphics-symbol" aria-roledescription="rect mark" d="M20,140h20v20h-20Z" fill="rgb(42, 153, 190)"/><path aria-label="admission_date: 2023-06; Patient Age: 0-9; patients: 54" role="graphics-symbol" aria-roledescription="rect mark" d="M40,0h20v20h-20Z" fill="rgb(95, 192, 191)"/><path aria-label="admission_date: 2023-06; Patient Age: 10-19; patients: 72" role="graphics-symbol" aria-roledescription="rect mark" d="M40,20h20v20h-20Z" fill="rgb(34, 83, 162)"/><path aria-label="admission_date: 2023-06; Patient Age: 20-29; patients: 75" role="graphics-symbol" aria-roledescription="rect mark" d="M40,40h20v20h-20Z" fill="rgb(33, 65, 149)"/><path aria-label="admission_date: 2023-06; Patient Age: 30-39; patients: 62" role="graphics-symbol" aria-roledescription="rect mark" d="M40,60h20v20h-20Z" fill="rgb(42, 153, 190)"/><path aria-label="admission_date: 2023-06; Patient Age: 40-49; patients: 61" role="graphics-symbol" aria-roledescription="rect mark" d="M40,80h20v20h-20Z" fill="rgb(45, 159, 192)"/><path aria-label="admission_date: 2023-06; Patient Age: 50-59; patients: 46" role="graphics-symbol" aria-roledescription="rect mark" d="M40,100h20v20h-20Z" fill="rgb(173, 223, 183)"/><path aria-label="admission_date: 2023-06; Patient Age: 60-69; patients: 72" role="graphics-symbol" aria-roledescription="rect mark" d="M40,120h20v20h-20Z" fill="rgb(34, 83, 162)"/><path aria-label="admission_date: 2023-06; Patient Age: 70-79; patients: 64" role="graphics-symbol" aria-roledescription="rect mark" d="M40,140h20v20h-20Z" fill="rgb(37, 139, 187)"/><path aria-label="admission_date: 2023-07; Patient Age: 0-9; patients: 61" role="graphics-symbol" aria-roledescription="rect mark" d="M60,0h20v20h-20Z" fill="rgb(45, 159, 192)"/><path aria-label="admission_date: 2023-07; Patient Age: 10-19; patients: 53" role="graphics-symbol" aria-roledescription="rect mark" d="M60,20h20v20h-20Z" fill="rgb(103, 196, 190)"/><path aria-label="admission_date: 2023-07; Patient Age: 20-29; patients: 71" role="graphics-symbol" aria-roledescription="rect mark" d="M60,40h20v20h-20Z" fill="rgb(34, 90, 165)"/><path aria-label="admission_date: 2023-07; Patient Age: 30-39; patients: 59" role="graphics-symbol" aria-roledescription="rect mark" d="M60,60h20v20h-20Z" fill="rgb(57, 170, 193)"/><path aria-label="admission_date: 2023-07; Patient Age: 40-49; patients: 55" role="graphics-symbol" aria-roledescription="rect mark" d="M60,80h20v20h-20Z" fill="rgb(86, 188, 192)"/><path aria-label="admission_date: 2023-07; Patient Age: 50-59; patients: 63" role="graphics-symbol" aria-roledescription="rect mark" d="M60,100h20v20h-20Z" fill="rgb(39, 146, 189)"/><path aria-label="admission_date: 2023-07; Patient Age: 60-69; patients: 40" role="graphics-symbol" aria-roledescription="rect mark" d="M60,120h20v20h-20Z" fill="rgb(220, 241, 180)"/><path aria-label="admission_date: 2023-07; Patient Age: 70-79; patients: 62" role="graphics-symbol" aria-roledescription="rect mark" d="M60,140h20v20h-20Z" fill="rgb(42, 153, 190)"/><path aria-label="admission_date: 2023-08; Patient Age: 0-9; patients: 70" role="graphics-symbol" aria-roledescription="rect mark" d="M80,0h20v20h-20Z" fill="rgb(33, 96, 169)"/><path aria-label="admission_date: 2023-08; Patient Age: 10-19; patients: 73" role="graphics-symbol" aria-roledescription="rect mark" d="M80,20h20v20h-20Z" fill="rgb(35, 76, 159)"/><path aria-label="admission_date: 2023-08; Patient Age: 20-29; patients: 58" role="graphics-symbol" aria-roledescription="rect mark" d="M80,40h20v20h-20Z" fill="rgb(63, 175, 194)"/><path aria-label="admission_date: 2023-08; Patient Age: 30-39; patients: 73" role="graphics-symbol" aria-roledescription="rect mark" d="M80,60h20v20h-20Z" fill="rgb(35, 76, 159)"/><path aria-label="admission_date: 2023-08; Patient Age: 40-49; patients: 53" role="graphics-symbol" aria-roledescription="rect mark" d="M80,80h20v20h-20Z" fill="rgb(103, 196, 190)"/><path aria-label="admission_date: 2023-08; Patient Age: 50-59; patients: 53" role="graphics-symbol" aria-roledescription="rect mark" d="M80,100h20v20h-20Z" fill="rgb(103, 196, 190)"/><path aria-label="admission_date: 2023-08; Patient Age: 60-69; patients: 62" role="graphics-symbol" aria-roledescription="rect mark" d="M80,120h20v20h-20Z" fill="rgb(42, 153, 190)"/><path aria-label="admission_date: 2023-08; Patient Age: 70-79; patients: 52" role="graphics-symbol" aria-roledescription="rect mark" d="M80,140h20v20h-20Z" fill="rgb(113, 200, 189)"/><path aria-label="admission_date: 2023-09; Patient Age: 0-9; patients: 61" role="graphics-symbol" aria-roledescription="rect mark" d="M100,0h20v20h-20Z" fill="rgb(45, 159, 192)"/><path aria-label="admission_date: 2023-09; Patient Age: 10-19; patients: 56" role="graphics-symbol" aria-roledescription="rect mark" d="M100,20h20v20h-20Z" fill="rgb(78, 184, 193)"/><path aria-label="admission_date: 2023-09; Patient Age: 20-29; patients: 58" role="graphics-symbol" aria-roledescription="rect mark" d="M100,40h20v20h-20Z" fill="rgb(63, 175, 194)"/><path aria-label="admission_date: 2023-09; Patient Age: 30-39; patients: 56" role="graphics-symbol" aria-roledescription="rect mark" d="M100,60h20v20h-20Z" fill="rgb(78, 184, 193)"/><path aria-label="admission_date: 2023-09; Patient Age: 40-49; patients: 57" role="graphics-symbol" aria-roledescription="rect mark" d="M100,80h20v20h-20Z" fill="rgb(69, 180, 194)"/><path aria-label="admission_date: 2023-09; Patient Age: 50-59; patients: 66" role="graphics-symbol" aria-roledescription="rect mark" d="M100,100h20v20h-20Z" fill="rgb(33, 126, 182)"/><path aria-label="admission_date: 2023-09; Patient Age: 60-69; patients: 56" role="graphics-symbol" aria-roledescription="rect mark" d="M100,120h20v20h-20Z" fill="rgb(78, 184, 193)"/><path aria-label="admission_date: 2023-09; Patient Age: 70-79; patients: 59" role="graphics-symbol" aria-roledescription="rect mark" d="M100,140h20v20h-20Z" fill="rgb(57, 170, 193)"/><path aria-label="admission_date: 2023-10; Patient Age: 0-9; patients: 52" role="graphics-symbol" aria-roledescription="rect mark" d="M120,0h20v20h-20Z" fill="rgb(113, 200, 189)"/><path aria-label="admission_date: 2023-10; Patient Age: 10-19; patients: 65" role="graphics-symbol" aria-roledescription="rect mark" d="M120,20h20v20h-20Z" fill="rgb(34, 133, 185)"/><path aria-label="admission_date: 2023-10; Patient Age: 20-29; patients: 64" role="graphics-symbol" aria-roledescription="rect mark" d="M120,40h20v20h-20Z" fill="rgb(37, 139, 187)"/><path aria-label="admission_date: 2023-10; Patient Age: 30-39; patients: 57" role="graphics-symbol" aria-roledescription="rect mark" d="M120,60h20v20h-20Z" fill="rgb(69, 180, 194)"/><path aria-label="admission_date: 2023-10; Patient Age: 40-49; patients: 59" role="graphics-symbol" aria-roledescription="rect mark" d="M120,80h20v20h-20Z" fill="rgb(57, 170, 193)"/><path aria-label="admission_date: 2023-10; Patient Age: 50-59; patients: 66" role="graphics-symbol" aria-roledescription="rect mark" d="M120,100h20v20h-20Z" fill="rgb(33, 126, 182)"/><path aria-label="admission_date: 2023-10; Patient Age: 60-69; patients: 60" role="graphics-symbol" aria-roledescription="rect mark" d="M120,120h20v20h-20Z" fill="rgb(51, 164, 193)"/><path aria-label="admission_date: 2023-10; Patient Age: 70-79; patients: 70" role="graphics-symbol" aria-roledescription="rect mark" d="M120,140h20v20h-20Z" fill="rgb(33, 96, 169)"/><path aria-label="admission_date: 2023-11; Patient Age: 0-9; patients: 63" role="graphics-symbol" aria-roledescription="rect mark" d="M140,0h20v20h-20Z" fill="rgb(39, 146, 189)"/><path aria-label="admission_date: 2023-11; Patient Age: 10-19; patients: 65" role="graphics-symbol" aria-roledescription="rect mark" d="M140,20h20v20h-20Z" fill="rgb(34, 133, 185)"/><path aria-label="admission_date: 2023-11; Patient Age: 20-29; patients: 49" role="graphics-symbol" aria-roledescription="rect mark" d="M140,40h20v20h-20Z" fill="rgb(144, 211, 185)"/><path aria-label="admission_date: 2023-11; Patient Age: 30-39; patients: 61" role="graphics-symbol" aria-roledescription="rect mark" d="M140,60h20v20h-20Z" fill="rgb(45, 159, 192)"/><path aria-label="admission_date: 2023-11; Patient Age: 40-49; patients: 51" role="graphics-symbol" aria-roledescription="rect mark" d="M140,80h20v20h-20Z" fill="rgb(123, 204, 188)"/><path aria-label="admission_date: 2023-11; Patient Age: 50-59; patients: 59" role="graphics-symbol" aria-roledescription="rect mark" d="M140,100h20v20h-20Z" fill="rgb(57, 170, 193)"/><path aria-label="admission_date: 2023-11; Patient Age: 60-69; patients: 62" role="graphics-symbol" aria-roledescription="rect mark" d="M140,120h20v20h-20Z" fill="rgb(42, 153, 190)"/><path aria-label="admission_date: 2023-11; Patient Age: 70-79; patients: 54" role="graphics-symbol" aria-roledescription="rect mark" d="M140,140h20v20h-20Z" fill="rgb(95, 192, 191)"/><path aria-label="admission_date: 2023-12; Patient Age: 0-9; patients: 49" role="graphics-symbol" aria-roledescription="rect mark" d="M160,0h20v20h-20Z" fill="rgb(144, 211, 185)"/><path aria-label="admission_date: 2023-12; Patient Age: 10-19; patients: 56" role="graphics-symbol" aria-roledescription="rect mark" d="M160,20h20v20h-20Z" fill="rgb(78, 184, 193)"/><path aria-label="admission_date: 2023-12; Patient Age: 20-29; patients: 71" role="graphics-symbol" aria-roledescription="rect mark" d="M160,40h20v20h-20Z" fill="rgb(34, 90, 165)"/><path aria-label="admission_date: 2023-12; Patient Age: 30-39; patients: 72" role="graphics-symbol" aria-roledescription="rect mark" d="M160,60h20v20h-20Z" fill="rgb(34, 83, 162)"/><path aria-label="admission_date: 2023-12; Patient Age: 40-49; patients: 57" role="graphics-symbol" aria-roledescription="rect mark" d="M160,80h20v20h-20Z" fill="rgb(69, 180, 194)"/><path aria-label="admission_date: 2023-12; Patient Age: 50-59; patients: 59" role="graphics-symbol" aria-roledescription="rect mark" d="M160,100h20v20h-20Z" fill="rgb(57, 170, 193)"/><path aria-label="admission_date: 2023-12; Patient Age: 60-69; patients: 67" role="graphics-symbol" aria-roledescription="rect mark" d="M160,120h20v20h-20Z" fill="rgb(33, 118, 179)"/><path aria-label="admission_date: 2023-12; Patient Age: 70-79; patients: 58" role="graphics-symbol" aria-roledescription="rect mark" d="M160,140h20v20h-20Z" fill="rgb(63, 175, 194)"/><path aria-label="admission_date: 2024-01; Patient Age: 0-9; patients: 76" role="graphics-symbol" aria-roledescription="rect mark" d="M180,0h20v20h-20Z" fill="rgb(31, 59, 144)"/><path aria-label="admission_date: 2024-01; Patient Age: 10-19; patients: 69" role="graphics-symbol" aria-roledescription="rect mark" d="M180,20h20v20h-20Z" fill="rgb(33, 103, 172)"/><path aria-label="admission_date: 2024-01; Patient Age: 20-29; patients: 64" role="graphics-symbol" aria-roledescription="rect mark" d="M180,40h20v20h-20Z" fill="rgb(37, 139, 187)"/><path aria-label="admission_date: 2024-01; Patient Age: 30-39; patients: 59" role="graphics-symbol" aria-roledescription="rect mark" d="M180,60h20v20h-20Z" fill="rgb(57, 170, 193)"/><path aria-label="admission_date: 2024-01; Patient Age: 40-49; patients: 52" role="graphics-symbol" aria-roledescription="rect mark" d="M180,80h20v20h-20Z" fill="rgb(113, 200, 189)"/><path aria-label="admission_date: 2024-01; Patient Age: 50-59; patients: 68" role="graphics-symbol" aria-roledescription="rect mark" d="M180,100h20v20h-20Z" fill="rgb(33, 111, 175)"/><path aria-label="admission_date: 2024-01; Patient Age: 60-69; patients: 68" role="graphics-symbol" aria-roledescription="rect mark" d="M180,120h20v20h-20Z" fill="rgb(33, 111, 175)"/><path aria-label="admission_date: 2024-01; Patient Age: 70-79; patients: 57" role="graphics-symbol" aria-roledescription="rect mark" d="M180,140h20v20h-20Z" fill="rgb(69, 180, 194)"/><path aria-label="admission_date: 2024-02; Patient Age: 0-9; patients: 42" role="graphics-symbol" aria-roledescription="rect mark" d="M200,0h20v20h-20Z" fill="rgb(206, 236, 180)"/><path aria-label="admission_date: 2024-02; Patient Age: 10-19; patients: 46" role="graphics-symbol" aria-roledescription="rect mark" d="M200,20h20v20h-20Z" fill="rgb(173, 223, 183)"/><path aria-label="admission_date: 2024-02; Patient Age: 20-29; patients: 54" role="graphics-symbol" aria-roledescription="rect mark" d="M200,40h20v20h-20Z" fill="rgb(95, 192, 191)"/><path aria-label="admission_date: 2024-02; Patient Age: 30-39; patients: 68" role="graphics-symbol" aria-roledescription="rect mark" d="M200,60h20v20h-20Z" fill="rgb(33, 111, 175)"/><path aria-label="admission_date: 2024-02; Patient Age: 40-49; patients: 57" role="graphics-symbol" aria-roledescription="rect mark" d="M200,80h20v20h-20Z" fill="rgb(69, 180, 194)"/><path aria-label="admission_date: 2024-02; Patient Age: 50-59; patients: 53" role="graphics-symbol" aria-roledescription="rect mark" d="M200,100h20v20h-20Z" fill="rgb(103, 196, 190)"/><path aria-label="admission_date: 2024-02; Patient Age: 60-69; patients: 45" role="graphics-symbol" aria-roledescription="rect mark" d="M200,120h20v20h-20Z" fill="rgb(183, 227, 182)"/><path aria-label="admission_date: 2024-02; Patient Age: 70-79; patients: 66" role="graphics-symbol" aria-roledescription="rect mark" d="M200,140h20v20h-20Z" fill="rgb(33, 126, 182)"/><path aria-label="admission_date: 2024-03; Patient Age: 0-9; patients: 64" role="graphics-symbol" aria-roledescription="rect mark" d="M220,0h20v20h-20Z" fill="rgb(37, 139, 187)"/><path aria-label="admission_date: 2024-03; Patient Age: 10-19; patients: 66" role="graphics-symbol" aria-roledescription="rect mark" d="M220,20h20v20h-20Z" fill="rgb(33, 126, 182)"/><path aria-label="admission_date: 2024-03; Patient Age: 20-29; patients: 65" role="graphics-symbol" aria-roledescription="rect mark" d="M220,40h20v20h-20Z" fill="rgb(34, 133, 185)"/><path aria-label="admission_date: 2024-03; Patient Age: 30-39; patients: 73" role="graphics-symbol" aria-roledescription="rect mark" d="M220,60h20v20h-20Z" fill="rgb(35, 76, 159)"/><path aria-label="admission_date: 2024-03; Patient Age: 40-49; patients: 44" role="graphics-symbol" aria-roledescription="rect mark" d="M220,80h20v20h-20Z" fill="rgb(192, 230, 181)"/><path aria-label="admission_date: 2024-03; Patient Age: 50-59; patients: 69" role="graphics-symbol" aria-roledescription="rect mark" d="M220,100h20v20h-20Z" fill="rgb(33, 103, 172)"/><path aria-label="admission_date: 2024-03; Patient Age: 60-69; patients: 74" role="graphics-symbol" aria-roledescription="rect mark" d="M220,120h20v20h-20Z" fill="rgb(35, 70, 155)"/><path aria-label="admission_date: 2024-03; Patient Age: 70-79; patients: 51" role="graphics-symbol" aria-roledescription="rect mark" d="M220,140h20v20h-20Z" fill="rgb(123, 204, 188)"/><path aria-label="admission_date: 2024-04; Patient Age: 0-9; patients: 59" role="graphics-symbol" aria-roledescription="rect mark" d="M240,0h20v20h-20Z" fill="rgb(57, 170, 193)"/><path aria-label="admission_date: 2024-04; Patient Age: 10-19; patients: 57" role="graphics-symbol" aria-roledescription="rect mark" d="M240,20h20v20h-20Z" fill="rgb(69, 180, 194)"/><path aria-label="admission_date: 2024-04; Patient Age: 20-29; patients: 69" role="graphics-symbol" aria-roledescription="rect mark" d="M240,40h20v20h-20Z" fill="rgb(33, 103, 172)"/><path aria-label="admission_date: 2024-04; Patient Age: 30-39; patients: 62" role="graphics-symbol" aria-roledescription="rect mark" d="M240,60h20v20h-20Z" fill="rgb(42, 153, 190)"/><path aria-label="admission_date: 2024-04; Patient Age: 40-49; patients: 49" role="graphics-symbol" aria-roledescription="rect mark" d="M240,80h20v20h-20Z" fill="rgb(144, 211, 185)"/><path aria-label="admission_date: 2024-04; Patient Age: 50-59; patients: 59" role="graphics-symbol" aria-roledescription="rect mark" d="M240,100h20v20h-20Z" fill="rgb(57, 170, 193)"/><path aria-label="admission_date: 2024-04; Patient Age: 60-69; patients: 51" role="graphics-symbol" aria-roledescription="rect mark" d="M240,120h20v20h-20Z" fill="rgb(123, 204, 188)"/><path aria-label="admission_date: 2024-04; Patient Age: 70-79; patients: 63" role="graphics-symbol" aria-roledescription="rect mark" d="M240,140h20v20h-20Z" fill="rgb(39, 146, 189)"/><path aria-label="admission_date: 2024-05; Patient Age: 0-9; patients: 73" role="graphics-symbol" aria-roledescription="rect mark" d="M260,0h20v20h-20Z" fill="rgb(35, 76, 159)"/><path aria-label="admission_date: 2024-05; Patient Age: 10-19; patients: 64" role="graphics-symbol" aria-roledescription="rect mark" d="M260,20h20v20h-20Z" fill="rgb(37, 139, 187)"/><path aria-label="admission_date: 2024-05; Patient Age: 20-29; patients: 74" role="graphics-symbol" aria-roledescription="rect mark" d="M260,40h20v20h-20Z" fill="rgb(35, 70, 155)"/><path aria-label="admission_date: 2024-05; Patient Age: 30-39; patients: 71" role="graphics-symbol" aria-roledescription="rect mark" d="M260,60h20v20h-20Z" fill="rgb(34, 90, 165)"/><path aria-label="admission_date: 2024-05; Patient Age: 40-49; patients: 53" role="graphics-symbol" aria-roledescription="rect mark" d="M260,80h20v20h-20Z" fill="rgb(103, 196, 190)"/><path aria-label="admission_date: 2024-05; Patient Age: 50-59; patients: 65" role="graphics-symbol" aria-roledescription="rect mark" d="M260,100h20v20h-20Z" fill="rgb(34, 133, 185)"/><path aria-label="admission_date: 2024-05; Patient Age: 60-69; patients: 66" role="graphics-symbol" aria-roledescription="rect mark" d="M260,120h20v20h-20Z" fill="rgb(33, 126, 182)"/><path aria-label="admission_date: 2024-05; Patient Age: 70-79; patients: 53" role="graphics-symbol" aria-roledescription="rect mark" d="M260,140h20v20h-20Z" fill="rgb(103, 196, 190)"/><path aria-label="admission_date: 2024-06; Patient Age: 0-9; patients: 59" role="graphics-symbol" aria-roledescription="rect mark" d="M280,0h20v20h-20Z" fill="rgb(57, 170, 193)"/><path aria-label="admission_date: 2024-06; Patient Age: 10-19; patients: 55" role="graphics-symbol" aria-roledescription="rect mark" d="M280,20h20v20h-20Z" fill="rgb(86, 188, 192)"/><path aria-label="admission_date: 2024-06; Patient Age: 20-29; patients: 69" role="graphics-symbol" aria-roledescription="rect mark" d="M280,40h20v20h-20Z" fill="rgb(33, 103, 172)"/><path aria-label="admission_date: 2024-06; Patient Age: 30-39; patients: 64" role="graphics-symbol" aria-roledescription="rect mark" d="M280,60h20v20h-20Z" fill="rgb(37, 139, 187)"/><path aria-label="admission_date: 2024-06; Patient Age: 40-49; patients: 51" role="graphics-symbol" aria-roledescription="rect mark" d="M280,80h20v20h-20Z" fill="rgb(123, 204, 188)"/><path aria-label="admission_date: 2024-06; Patient Age: 50-59; patients: 56" role="graphics-symbol" aria-roledescription="rect mark" d="M280,100h20v20h-20Z" fill="rgb(78, 184, 193)"/><path aria-label="admission_date: 2024-06; Patient Age: 60-69; patients: 59" role="graphics-symbol" aria-roledescription="rect mark" d="M280,120h20v20h-20Z" fill="rgb(57, 170, 193)"/><path aria-label="admission_date: 2024-06; Patient Age: 70-79; patients: 72" role="graphics-symbol" aria-roledescription="rect mark" d="M280,140h20v20h-20Z" fill="rgb(34, 83, 162)"/><path aria-label="admission_date: 2024-07; Patient Age: 0-9; patients: 62" role="graphics-symbol" aria-roledescription="rect mark" d="M300,0h20v20h-20Z" fill="rgb(42, 153, 190)"/><path aria-label="admission_date: 2024-07; Patient Age: 10-19; patients: 73" role="graphics-symbol" aria-roledescription="rect mark" d="M300,20h20v20h-20Z" fill="rgb(35, 76, 159)"/><path aria-label="admission_date: 2024-07; Patient Age: 20-29; patients: 49" role="graphics-symbol" aria-roledescription="rect mark" d="M300,40h20v20h-20Z" fill="rgb(144, 211, 185)"/><path aria-label="admission_date: 2024-07; Patient Age: 30-39; patients: 44" role="graphics-symbol" aria-roledescription="rect mark" d="M300,60h20v20h-20Z" fill="rgb(192, 230, 181)"/><path aria-label="admission_date: 2024-07; Patient Age: 40-49; patients: 64" role="graphics-symbol" aria-roledescription="rect mark" d="M300,80h20v20h-20Z" fill="rgb(37, 139, 187)"/><path aria-label="admission_date: 2024-07; Patient Age: 50-59; patients: 72" role="graphics-symbol" aria-roledescription="rect mark" d="M300,100h20v20h-20Z" fill="rgb(34, 83, 162)"/><path aria-label="admission_date: 2024-07; Patient Age: 60-69; patients: 60" role="graphics-symbol" aria-roledescription="rect mark" d="M300,120h20v20h-20Z" fill="rgb(51, 164, 193)"/><path aria-label="admission_date: 2024-07; Patient Age: 70-79; patients: 64" role="graphics-symbol" aria-roledescription="rect mark" d="M300,140h20v20h-20Z" fill="rgb(37, 139, 187)"/><path aria-label="admission_date: 2024-08; Patient Age: 0-9; patients: 63" role="graphics-symbol" aria-roledescription="rect mark" d="M320,0h20v20h-20Z" fill="rgb(39, 146, 189)"/><path aria-label="admission_date: 2024-08; Patient Age: 10-19; patients: 63" role="graphics-symbol" aria-roledescription="rect mark" d="M320,20h20v20h-20Z" fill="rgb(39, 146, 189)"/><path aria-label="admission_date: 2024-08; Patient Age: 20-29; patients: 65" role="graphics-symbol" aria-roledescription="rect mark" d="M320,40h20v20h-20Z" fill="rgb(34, 133, 185)"/><path aria-label="admission_date: 2024-08; Patient Age: 30-39; patients: 60" role="graphics-symbol" aria-roledescription="rect mark" d="M320,60h20v20h-20Z" fill="rgb(51, 164, 193)"/><path aria-label="admission_date: 2024-08; Patient Age: 40-49; patients: 59" role="graphics-symbol" aria-roledescription="rect mark" d="M320,80h20v20h-20Z" fill="rgb(57, 170, 193)"/><path aria-label="admission_date: 2024-08; Patient Age: 50-59; patients: 69" role="graphics-symbol" aria-roledescription="rect mark" d="M320,100h20v20h-20Z" fill="rgb(33, 103, 172)"/><path aria-label="admission_date: 2024-08; Patient Age: 60-69; patients: 78" role="graphics-symbol" aria-roledescription="rect mark" d="M320,120h20v20h-20Z" fill="rgb(28, 49, 133)"/><path aria-label="admission_date: 2024-08; Patient Age: 70-79; patients: 73" role="graphics-symbol" aria-roledescription="rect mark" d="M320,140h20v20h-20Z" fill="rgb(35, 76, 159)"/><path aria-label="admission_date: 2024-09; Patient Age: 0-9; patients: 58" role="graphics-symbol" aria-roledescription="rect mark" d="M340,0h20v20h-20Z" fill="rgb(63, 175, 194)"/><path aria-label="admission_date: 2024-09; Patient Age: 10-19; patients: 61" role="graphics-symbol" aria-roledescription="rect mark" d="M340,20h20v20h-20Z" fill="rgb(45, 159, 192)"/><path aria-label="admission_date: 2024-09; Patient Age: 20-29; patients: 64" role="graphics-symbol" aria-roledescription="rect mark" d="M340,40h20v20h-20Z" fill="rgb(37, 139, 187)"/><path aria-label="admission_date: 2024-09; Patient Age: 30-39; patients: 64" role="graphics-symbol" aria-roledescription="rect mark" d="M340,60h20v20h-20Z" fill="rgb(37, 139, 187)"/><path aria-label="admission_date: 2024-09; Patient Age: 40-49; patients: 58" role="graphics-symbol" aria-roledescription="rect mark" d="M340,80h20v20h-20Z" fill="rgb(63, 175, 194)"/><path aria-label="admission_date: 2024-09; Patient Age: 50-59; patients: 55" role="graphics-symbol" aria-roledescription="rect mark" d="M340,100h20v20h-20Z" fill="rgb(86, 188, 192)"/><path aria-label="admission_date: 2024-09; Patient Age: 60-69; patients: 55" role="graphics-symbol" aria-roledescription="rect mark" d="M340,120h20v20h-20Z" fill="rgb(86, 188, 192)"/><path aria-label="admission_date: 2024-09; Patient Age: 70-79; patients: 51" role="graphics-symbol" aria-roledescription="rect mark" d="M340,140h20v20h-20Z" fill="rgb(123, 204, 188)"/><path aria-label="admission_date: 2024-10; Patient Age: 0-9; patients: 77" role="graphics-symbol" aria-roledescription="rect mark" d="M360,0h20v20h-20Z" fill="rgb(30, 54, 138)"/><path aria-label="admission_date: 2024-10; Patient Age: 10-19; patients: 50" role="graphics-symbol" aria-roledescription="rect mark" d="M360,20h20v20h-20Z" fill="rgb(134, 208, 187)"/><path aria-label="admission_date: 2024-10; Patient Age: 20-29; patients: 67" role="graphics-symbol" aria-roledescription="rect mark" d="M360,40h20v20h-20Z" fill="rgb(33, 118, 179)"/><path aria-label="admission_date: 2024-10; Patient Age: 30-39; patients: 53" role="graphics-symbol" aria-roledescription="rect mark" d="M360,60h20v20h-20Z" fill="rgb(103, 196, 190)"/><path aria-label="admission_date: 2024-10; Patient Age: 40-49; patients: 54" role="graphics-symbol" aria-roledescription="rect mark" d="M360,80h20v20h-20Z" fill="rgb(95, 192, 191)"/><path aria-label="admission_date: 2024-10; Patient Age: 50-59; patients: 58" role="graphics-symbol" aria-roledescription="rect mark" d="M360,100h20v20h-20Z" fill="rgb(63, 175, 194)"/><path aria-label="admission_date: 2024-10; Patient Age: 60-69; patients: 52" role="graphics-symbol" aria-roledescription="rect mark" d="M360,120h20v20h-20Z" fill="rgb(113, 200, 189)"/><path aria-label="admission_date: 2024-10; Patient Age: 70-79; patients: 60" role="graphics-symbol" aria-roledescription="rect mark" d="M360,140h20v20h-20Z" fill="rgb(51, 164, 193)"/></g><g class="mark-group role-legend" role="graphics-symbol" aria-roledescription="legend" aria-label="Gradient legend titled 'patients' for fill color with values from 36 to 78"><g transform="translate(398,0)"><path class="background" aria-hidden="true" d="M0,0h43v176h-43Z" pointer-events="none"/><g><g class="mark-group role-legend-entry"><g transform="translate(0,16)"><path class="background" aria-hidden="true" d="M0,0h0v0h0Z" pointer-events="none"/><g><g class="mark-rect role-legend-gradient" pointer-events="none"><path d="M0,0h16v160h-16Z" fill="url(#gradient_0)" stroke="#ddd" stroke-width="0" opacity="1"/></g><g class="mark-text role-legend-label" pointer-events="none"><text text-anchor="start" transform="translate(18,158)" font-family="sans-serif" font-size="10px" fill="#000" opacity="1">36</text><text text-anchor="start" transform="translate(18,8)" font-family="sans-serif" font-size="10px" fill="#000" opacity="1">78</text></g></g><path class="foreground" aria-hidden="true" d="" pointer-events="none" display="none"/></g></g><g class="mark-text role-legend-title" pointer-events="none"><text text-anchor="start" transform="translate(0,9)" font-family="sans-serif" font-size="11px" font-weight="bold" fill="#000" opacity="1">patients</text></g></g><path class="foreground" aria-hidden="true" d="" pointer-events="none" display="none"/></g></g><g class="mark-group role-axis" role="graphics-symbol" aria-roledescription="axis" aria-label="X-axis titled 'admission_date' for a discrete scale with 19 values: 2023-04, 2023-05, 2023-06, 2023-07, 2023-08, ending with 2024-10"><g transform="translate(0.5,160.5)"><path class="background" aria-hidden="true" d="M0,0h0v0h0Z" pointer-events="none"/><g><g class="mark-rule role-axis-tick" pointer-events="none"><line transform="translate(10,0)" x2="0" y2="5" stroke="#888" stroke-width="1" opacity="1"/><line transform="translate(30,0)" x2="0" y2="5" stroke="#888" stroke-width="1" opacity="1"/><line transform="translate(50,0)" x2="0" y2="5" stroke="#888" stroke-width="1" opacity="1"/><line transform="translate(70,0)" x2="0" y2="5" stroke="#888" stroke-width="1" opacity="1"/><line transform="translate(90,0)" x2="0" y2="5" stroke="#888" stroke-width="1" opacity="1"/><line transform="translate(110,0)" x2="0" y2="5" stroke="#888" stroke-width="1" opacity="1"/><line transform="translate(130,0)" x2="0" y2="5" stroke="#888" stroke-width="1" opacity="1"/><line transform="translate(150,0)" x2="0" y2="5" stroke="#888" stroke-width="1" opacity="1"/><line transform="translate(170,0)" x2="0" y2="5" stroke="#888" stroke-width="1" opacity="1"/><line transform="translate(190,0)" x2="0" y2="5" stroke="#888" stroke-width="1" opacity="1"/><line transform="translate(210,0)" x2="0" y2="5" stroke="#888" stroke-width="1" opacity="1"/><line transform="translate(230,0)" x2="0" y2="5" stroke="#888" stroke-width="1" opacity="1"/><line transform="translate(250,0)" x2="0" y2="5" stroke="#888" stroke-width="1" opacity="1"/><line transform="translate(270,0)" x2="0" y2="5" stroke="#888" stroke-width="1" opacity="1"/><line transform="translate(290,0)" x2="0" y2="5" stroke="#888" stroke-width="1" opacity="1"/><line transform="translate(310,0)" x2="0" y2="5" stroke="#888" stroke-width="1" opacity="1"/><line transform="translate(330,0)" x2="0" y2="5" stroke="#888" stroke-width="1" opacity="1"/><line transform="translate(350,0)" x2="0" y2="5" stroke="#888" stroke-width="1" opacity="1"/><line transform="translate(370,0)" x2="0" y2="5" stroke="#888" stroke-width="1" opacity="1"/></g><g class="mark-text role-axis-label" pointer-events="none"><text text-anchor="end" transform="translate(9.5,7) rotate(270) translate(0,3)" font-family="sans-serif" font-size="10px" fill="#000" opacity="1">2023-04</text><text text-anchor="end" transform="translate(29.5,7) rotate(270) translate(0,3)" font-family="sans-serif" font-size="10px" fill="#000" opacity="1">2023-05</text><text text-anchor="end" transform="translate(49.5,7) rotate(270) translate(0,3)" font-family="sans-serif" font-size="10px" fill="#000" opacity="1">2023-06</text><text text-anchor="end" transform="translate(69.5,7) rotate(270) translate(0,3)" font-family="sans-serif" font-size="10px" fill="#000" opacity="1">2023-07</text><text text-anchor="end" transform="translate(89.5,7) rotate(270) translate(0,3)" font-family="sans-serif" font-size="10px" fill="#000" opacity="1">2023-08</text><text text-anchor="end" transform="translate(109.5,7) rotate(270) translate(0,3)" font-family="sans-serif" font-size="10px" fill="#000" opacity="1">2023-09</text><text text-anchor="end" transform="translate(129.5,7) rotate(270) translate(0,3)" font-family="sans-serif" font-size="10px" fill="#000" opacity="1">2023-10</text><text text-anchor="end" transform="translate(149.5,7) rotate(270) translate(0,3)" font-family="sans-serif" font-size="10px" fill="#000" opacity="1">2023-11</text><text text-anchor="end" transform="translate(169.5,7) rotate(270) translate(0,3)" font-family="sans-serif" font-size="10px" fill="#000" opacity="1">2023-12</text><text text-anchor="end" transform="translate(189.5,7) rotate(270) translate(0,3)" font-family="sans-serif" font-size="10px" fill="#000" opacity="1">2024-01</text><text text-anchor="end" transform="translate(209.5,7) rotate(270) translate(0,3)" font-family="sans-serif" font-size="10px" fill="#000" opacity="1">2024-02</text><text text-anchor="end" transform="translate(229.5,7) rotate(270) translate(0,3)" font-family="sans-serif" font-size="10px" fill="#000" opacity="1">2024-03</text><text text-anchor="end" transform="translate(249.5,7) rotate(270) translate(0,3)" font-family="sans-serif" font-size="10px" fill="#000" opacity="1">2024-04</text><text text-anchor="end" transform="translate(269.5,7) rotate(270) translate(0,3)" font-family="sans-serif" font-size="10px" fill="#000" opacity="1">2024-05</text><text text-anchor="end" transform="translate(289.5,7) rotate(270) translate(0,3)" font-family="sans-serif" font-size="10px" fill="#000" opacity="1">2024-06</text><text text-anchor="end" transform="translate(309.5,7) rotate(270) translate(0,3)" font-family="sans-serif" font-size="10px" fill="#000" opacity="1">2024-07</text><text text-anchor="end" transform="translate(329.5,7) rotate(270) translate(0,3)" font-family="sans-serif" font-size="10px" fill="#000" opacity="1">2024-08</text><text text-anchor="end" transform="translate(349.5,7) rotate(270) translate(0,3)" font-family="sans-serif" font-size="10px" fill="#000" opacity="1">2024-09</text><text text-anchor="end" transform="translate(369.5,7) rotate(270) translate(0,3)" font-family="sans-serif" font-size="10px" fill="#000" opacity="1">2024-10</text></g><g class="mark-rule role-axis-domain" pointer-events="none"><line transform="translate(0,0)" x2="380" y2="0" stroke="#888" stroke-width="1" opacity="1"/></g><g class="mark-text role-axis-title" pointer-events="none"><text text-anchor="middle" transform="translate(190,56.69921875)" font-family="sans-serif" font-size="11px" font-weight="bold" fill="#000" opacity="1">admission_date</text></g></g><path class="foreground" aria-hidden="true" d="" pointer-events="none" display="none"/></g></g><g class="mark-group role-axis" role="graphics-symbol" aria-roledescription="axis" aria-label="Y-axis titled 'Patient Age' for a discrete scale with 8 values: 0-9, 10-19, 20-29, 30-39, 40-49, ending with 70-79"><g transform="translate(0.5,0.5)"><path class="background" aria-hidden="true" d="M0,0h0v0h0Z" pointer-events="none"/><g><g class="mark-rule role-axis-tick" pointer-events="none"><line transform="translate(0,10)" x2="-5" y2="0" stroke="#888" stroke-width="1" opacity="1"/><line transform="translate(0,30)" x2="-5" y2="0" stroke="#888" stroke-width="1" opacity="1"/><line transform="translate(0,50)" x2="-5" y2="0" stroke="#888" stroke-width="1" opacity="1"/><line transform="translate(0,70)" x2="-5" y2="0" stroke="#888" stroke-width="1" opacity="1"/><line transform="translate(0,90)" x2="-5" y2="0" stroke="#888" stroke-width="1" opacity="1"/><line transform="translate(0,110)" x2="-5" y2="0" stroke="#888" stroke-width="1" opacity="1"/><line transform="translate(0,130)" x2="-5" y2="0" stroke="#888" stroke-width="1" opacity="1"/><line transform="translate(0,150)" x2="-5" y2="0" stroke="#888" stroke-width="1" opacity="1"/></g><g class="mark-text role-axis-label" pointer-events="none"><text text-anchor="end" transform="translate(-7,12.5)" font-family="sans-serif" font-size="10px" fill="#000" opacity="1">0-9</text><text text-anchor="end" transform="translate(-7,32.5)" font-family="sans-serif" font-size="10px" fill="#000" opacity="1">10-19</text><text text-anchor="end" transform="translate(-7,52.5)" font-family="sans-serif" font-size="10px" fill="#000" opacity="1">20-29</text><text text-anchor="end" transform="translate(-7,72.5)" font-family="sans-serif" font-size="10px" fill="#000" opacity="1">30-39</text><text text-anchor="end" transform="translate(-7,92.5)" font-family="sans-serif" font-size="10px" fill="#000" opacity="1">40-49</text><text text-anchor="end" transform="translate(-7,112.5)" font-family="sans-serif" font-size="10px" fill="#000" opacity="1">50-59</text><text text-anchor="end" transform="translate(-7,132.5)" font-family="sans-serif" font-size="10px" fill="#000" opacity="1">60-69</text><text text-anchor="end" transform="translate(-7,152.5)" font-family="sans-serif" font-size="10px" fill="#000" opacity="1">70-79</text></g><g class="mark-rule role-axis-domain" pointer-events="none"><line transform="translate(0,0)" x2="0" y2="160" stroke="#888" stroke-width="1" opacity="1"/></g><g class="mark-text role-axis-title" pointer-events="none"><text text-anchor="middle" transform="translate(-36.576171875,80) rotate(-90) translate(0,-2)" font-family="sans-serif" font-size="11px" font-weight="bold" fill="#000" opacity="1">Patient Age</text></g></g><path class="foreground" aria-hidden="true" d="" pointer-events="none" display="none"/></g></g></g><path class="foreground" aria-hidden="true" d="" display="none"/></g></g></g><defs><linearGradient id="gradient_0" x1="0" x2="0" y1="1" y2="0"><stop offset="0" stop-color="rgb(239, 249, 189)"/><stop offset="0.047619047619047616" stop-color="rgb(229, 245, 185)"/><stop offset="0.09523809523809523" stop-color="rgb(220, 241, 180)"/><stop offset="0.14285714285714285" stop-color="rgb(206, 236, 180)"/><stop offset="0.19047619047619047" stop-color="rgb(192, 230, 181)"/><stop offset="0.23809523809523808" stop-color="rgb(173, 223, 183)"/><stop offset="0.2857142857142857" stop-color="rgb(154, 215, 184)"/><stop offset="0.3333333333333333" stop-color="rgb(134, 208, 187)"/><stop offset="0.38095238095238093" stop-color="rgb(113, 200, 189)"/><stop offset="0.42857142857142855" stop-color="rgb(95, 192, 191)"/><stop offset="0.47619047619047616" stop-color="rgb(78, 184, 193)"/><stop offset="0.5238095238095238" stop-color="rgb(63, 175, 194)"/><stop offset="0.5714285714285714" stop-color="rgb(51, 164, 193)"/><stop offset="0.6190476190476191" stop-color="rgb(42, 153, 190)"/><stop offset="0.6666666666666666" stop-color="rgb(37, 139, 187)"/><stop offset="0.7142857142857143" stop-color="rgb(33, 126, 182)"/><stop offset="0.7619047619047619" stop-color="rgb(33, 111, 175)"/><stop offset="0.8095238095238095" stop-color="rgb(33, 96, 169)"/><stop offset="0.8571428571428571" stop-color="rgb(34, 83, 162)"/><stop offset="0.9047619047619048" stop-color="rgb(35, 70, 155)"/><stop offset="0.9523809523809523" stop-color="rgb(31, 59, 144)"/><stop offset="1" stop-color="rgb(28, 49, 133)"/></linearGradient></defs></svg>