<svg xmlns="http://www.w3.org/2000/svg" xmlns:xlink="http://www.w3.org/1999/xlink" version="1.1" class="marks" width="526" height="209" viewBox="0 0 526 209"><rect width="526" height="209" fill="white"/><g fill="none" stroke-miterlimit="10" transform="translate(80,5)"><g class="mark-group role-frame root" role="graphics-object" aria-roledescription="group mark container"><g transform="translate(0,0)"><path class="background" aria-hidden="true" d="M0.5,0.5h380v140h-380Z" stroke="#ddd"/><g><g class="mark-rect role-mark marks" role="graphics-object" aria-roledescription="rect mark container"><path aria-label="admission_date: 2023-04; admission_day: Friday; patients: 63" role="graphics-symbol" aria-roledescription="rect mark" d="M0,80h20v20h-20Z" fill="rgb(152, 214, 185)"/><path aria-label="admission_date: 2023-04; admission_day: Monday; patients: 57" role="graphics-symbol" aria-roledescription="rect mark" d="M0,0h20v20h-20Z" fill="rgb(194, 231, 181)"/><path aria-label="admission_date: 2023-04; admission_day: Saturday; patients: 85" role="graphics-symbol" aria-roledescription="rect mark" d="M0,100h20v20h-20Z" fill="rgb(34, 133, 185)"/><path aria-label="admission_date: 2023-04; admission_day: Sunday; patients: 68" role="graphics-symbol" aria-roledescription="rect mark" d="M0,120h20v20h-20Z" fill="rgb(113, 200, 189)"/><path aria-label="admission_date: 2023-04; admission_day: Thursday; patients: 59" role="graphics-symbol" aria-roledescription="rect mark" d="M0,60h20v20h-20Z" fill="rgb(182, 226, 182)"/><path aria-label="admission_date: 2023-04; admission_day: Tuesday; patients: 64" role="graphics-symbol" aria-roledescription="rect mark" d="M0,20h20v20h-20Z" fill="rgb(144, 212, 185)"/><path aria-label="admission_date: 2023-04; admission_day: Wednesday; patients: 83" role="graphics-symbol" aria-roledescription="rect mark" d="M0,40h20v20h-20Z" fill="rgb(38, 143, 188)"/><path aria-label="admission_date: 2023-05; admission_day: Friday; patients: 55" role="graphics-symbol" aria-roledescription="rect mark" d="M20,80h20v20h-20Z" fill="rgb(205, 236, 180)"/><path aria-label="admission_date: 2023-05; admission_day: Monday; patients: 83" role="graphics-symbol" aria-roledescription="rect mark" d="M20,0h20v20h-20Z" fill="rgb(38, 143, 188)"/><path aria-label="admission_date: 2023-05; admission_day: Saturday; patients: 57" role="graphics-symbol" aria-roledescription="rect mark" d="M20,100h20v20h-20Z" fill="rgb(194, 231, 181)"/><path aria-label="admission_date: 2023-05; admission_day: Sunday; patients: 55" role="graphics-symbol" aria-roledescription="rect mark" d="M20,120h20v20h-20Z" fill="rgb(205, 236, 180)"/><path aria-label="admission_date: 2023-05; admission_day: Thursday; patients: 65" role="graphics-symbol" aria-roledescription="rect mark" d="M20,60h20v20h-20Z" fill="rgb(136, 209, 186)"/><path aria-label="admission_date: 2023-05; admission_day: Tuesday; patients: 94" role="graphics-symbol" aria-roledescription="rect mark" d="M20,20h20v20h-20Z" fill="rgb(34, 84, 162)"/><path aria-label="admission_date: 2023-05; admission_day: Wednesday; patients: 71" role="graphics-symbol" aria-roledescription="rect mark" d="M20,40h20v20h-20Z" fill="rgb(92, 191, 191)"/><path aria-label="admission_date: 2023-06; admission_day: Friday; patients: 69" role="graphics-symbol" aria-roledescription="rect mark" d="M40,80h20v20h-20Z" fill="rgb(105, 197, 190)"/><path aria-label="admission_date: 2023-06; admission_day: Monday; patients: 67" role="graphics-symbol" aria-roledescription="rect mark" d="M40,0h20v20h-20Z" fill="rgb(121, 203, 188)"/><path aria-label="admission_date: 2023-06; admission_day: Saturday; patients: 65" role="graphics-symbol" aria-roledescription="rect mark" d="M40,100h20v20h-20Z" fill="rgb(136, 209, 186)"/><path aria-label="admission_date: 2023-06; admission_day: Sunday; patients: 69" role="graphics-symbol" aria-roledescription="rect mark" d="M40,120h20v20h-20Z" fill="rgb(105, 197, 190)"/><path aria-label="admission_date: 2023-06; admission_day: Thursday; patients: 102" role="graphics-symbol" aria-roledescription="rect mark" d="M40,60h20v20h-20Z" fill="rgb(28, 49, 133)"/><path aria-label="admission_date: 2023-06; admission_day: Tuesday; patients: 63" role="graphics-symbol" aria-roledescription="rect mark" d="M40,20h20v20h-20Z" fill="rgb(152, 214, 185)"/><path aria-label="admission_date: 2023-06; admission_day: Wednesday; patients: 71" role="graphics-symbol" aria-roledescription="rect mark" d="M40,40h20v20h-20Z" fill="rgb(92, 191, 191)"/><path aria-label="admission_date: 2023-07; admission_day: Friday; patients: 55" role="graphics-symbol" aria-roledescription="rect mark" d="M60,80h20v20h-20Z" fill="rgb(205, 236, 180)"/><path aria-label="admission_date: 2023-07; admission_day: Monday; patients: 82" role="graphics-symbol" aria-roledescription="rect mark" d="M60,0h20v20h-20Z" fill="rgb(40, 148, 189)"/><path aria-label="admission_date: 2023-07; admission_day: Saturday; patients: 80" role="graphics-symbol" aria-roledescription="rect mark" d="M60,100h20v20h-20Z" fill="rgb(44, 158, 192)"/><path aria-label="admission_date: 2023-07; admission_day: Sunday; patients: 73" role="graphics-symbol" aria-roledescription="rect mark" d="M60,120h20v20h-20Z" fill="rgb(79, 185, 193)"/><path aria-label="admission_date: 2023-07; admission_day: Thursday; patients: 59" role="graphics-symbol" aria-roledescription="rect mark" d="M60,60h20v20h-20Z" fill="rgb(182, 226, 182)"/><path aria-label="admission_date: 2023-07; admission_day: Tuesday; patients: 61" role="graphics-symbol" aria-roledescription="rect mark" d="M60,20h20v20h-20Z" fill="rgb(167, 220, 183)"/><path aria-label="admission_date: 2023-07; admission_day: Wednesday; patients: 54" role="graphics-symbol" aria-roledescription="rect mark" d="M60,40h20v20h-20Z" fill="rgb(211, 238, 180)"/><path aria-label="admission_date: 2023-08; admission_day: Friday; patients: 66" role="graphics-symbol" aria-roledescription="rect mark" d="M80,80h20v20h-20Z" fill="rgb(128, 206, 187)"/><path aria-label="admission_date: 2023-08; admission_day: Monday; patients: 66" role="graphics-symbol" aria-roledescription="rect mark" d="M80,0h20v20h-20Z" fill="rgb(128, 206, 187)"/><path aria-label="admission_date: 2023-08; admission_day: Saturday; patients: 77" role="graphics-symbol" aria-roledescription="rect mark" d="M80,100h20v20h-20Z" fill="rgb(58, 170, 193)"/><path aria-label="admission_date: 2023-08; admission_day: Sunday; patients: 67" role="graphics-symbol" aria-roledescription="rect mark" d="M80,120h20v20h-20Z" fill="rgb(121, 203, 188)"/><path aria-label="admission_date: 2023-08; admission_day: Thursday; patients: 75" role="graphics-symbol" aria-roledescription="rect mark" d="M80,60h20v20h-20Z" fill="rgb(67, 178, 194)"/><path aria-label="admission_date: 2023-08; admission_day: Tuesday; patients: 71" role="graphics-symbol" aria-roledescription="rect mark" d="M80,20h20v20h-20Z" fill="rgb(92, 191, 191)"/><path aria-label="admission_date: 2023-08; admission_day: Wednesday; patients: 72" role="graphics-symbol" aria-roledescription="rect mark" d="M80,40h20v20h-20Z" fill="rgb(85, 188, 192)"/><path aria-label="admission_date: 2023-09; admission_day: Friday; patients: 93" role="graphics-symbol" aria-roledescription="rect mark" d="M100,80h20v20h-20Z" fill="rgb(34, 89, 165)"/><path aria-label="admission_date: 2023-09; admission_day: Monday; patients: 50" role="graphics-symbol" aria-roledescription="rect mark" d="M100,0h20v20h-20Z" fill="rgb(228, 245, 184)"/><path aria-label="admission_date: 2023-09; admission_day: Saturday; patients: 89" role="graphics-symbol" aria-roledescription="rect mark" d="M100,100h20v20h-20Z" fill="rgb(33, 110, 175)"/><path aria-label="admission_date: 2023-09; admission_day: Sunday; patients: 64" role="graphics-symbol" aria-roledescription="rect mark" d="M100,120h20v20h-20Z" fill="rgb(144, 212, 185)"/><path aria-label="admission_date: 2023-09; admission_day: Thursday; patients: 58" role="graphics-symbol" aria-roledescription="rect mark" d="M100,60h20v20h-20Z" fill="rgb(189, 229, 181)"/><path aria-label="admission_date: 2023-09; admission_day: Tuesday; patients: 63" role="graphics-symbol" aria-roledescription="rect mark" d="M100,20h20v20h-20Z" fill="rgb(152, 214, 185)"/><path aria-label="admission_date: 2023-09; admission_day: Wednesday; patients: 52" role="graphics-symbol" aria-roledescription="rect mark" d="M100,40h20v20h-20Z" fill="rgb(221, 242, 181)"/><path aria-label="admission_date: 2023-10; admission_day: Friday; patients: 67" role="graphics-symbol" aria-roledescription="rect mark" d="M120,80h20v20h-20Z" fill="rgb(121, 203, 188)"/><path aria-label="admission_date: 2023-10; admission_day: Monday; patients: 77" role="graphics-symbol" aria-roledescription="rect mark" d="M120,0h20v20h-20Z" fill="rgb(58, 170, 193)"/><path aria-label="admission_date: 2023-10; admission_day: Saturday; patients: 59" role="graphics-symbol" aria-roledescription="rect mark" d="M120,100h20v20h-20Z" fill="rgb(182, 226, 182)"/><path aria-label="admission_date: 2023-10; admission_day: Sunday; patients: 69" role="graphics-symbol" aria-roledescription="rect mark" d="M120,120h20v20h-20Z" fill="rgb(105, 197, 190)"/><path aria-label="admission_date: 2023-10; admission_day: Thursday; patients: 72" role="graphics-symbol" aria-roledescription="rect mark" d="M120,60h20v20h-20Z" fill="rgb(85, 188, 192)"/><path aria-label="admission_date: 2023-10; admission_day: Tuesday; patients: 71" role="graphics-symbol" aria-roledescription="rect mark" d="M120,20h20v20h-20Z" fill="rgb(92, 191, 191)"/><path aria-label="admission_date: 2023-10; admission_day: Wednesday; patients: 78" role="graphics-symbol" aria-roledescription="rect mark" d="M120,40h20v20h-20Z" fill="rgb(53, 166, 193)"/><path aria-label="admission_date: 2023-11; admission_day: Friday; patients: 65" role="graphics-symbol" aria-roledescription="rect mark" d="M140,80h20v20h-20Z" fill="rgb(136, 209, 186)"/><path aria-label="admission_date: 2023-11; admission_day: Monday; patients: 58" role="graphics-symbol" aria-roledescription="rect mark" d="M140,0h20v20h-20Z" fill="rgb(189, 229, 181)"/><path aria-label="admission_date: 2023-11; admission_day: Saturday; patients: 57" role="graphics-symbol" aria-roledescription="rect mark" d="M140,100h20v20h-20Z" fill="rgb(194, 231, 181)"/><path aria-label="admission_date: 2023-11; admission_day: Sunday; patients: 66" role="graphics-symbol" aria-roledescription="rect mark" d="M140,120h20v20h-20Z" fill="rgb(128, 206, 187)"/><path aria-label="admission_date: 2023-11; admission_day: Thursday; patients: 81" role="graphics-symbol" aria-roledescription="rect mark" d="M140,60h20v20h-20Z" fill="rgb(42, 153, 191)"/><path aria-label="admission_date: 2023-11; admission_day: Tuesday; patients: 65" role="graphics-symbol" aria-roledescription="rect mark" d="M140,20h20v20h-20Z" fill="rgb(136, 209, 186)"/><path aria-label="admission_date: 2023-11; admission_day: Wednesday; patients: 72" role="graphics-symbol" aria-roledescription="rect mark" d="M140,40h20v20h-20Z" fill="rgb(85, 188, 192)"/><path aria-label="admission_date: 2023-12; admission_day: Friday; patients: 98" role="graphics-symbol" aria-roledescription="rect mark" d="M160,80h20v20h-20Z" fill="rgb(33, 65, 150)"/><path aria-label="admission_date: 2023-12; admission_day: Monday; patients: 56" role="graphics-symbol" aria-roledescription="rect mark" d="M160,0h20v20h-20Z" fill="rgb(200, 233, 181)"/><path aria-label="admission_date: 2023-12; admission_day: Saturday; patients: 83" role="graphics-symbol" aria-roledescription="rect mark" d="M160,100h20v20h-20Z" fill="rgb(38, 143, 188)"/><path aria-label="admission_date: 2023-12; admission_day: Sunday; patients: 81" role="graphics-symbol" aria-roledescription="rect mark" d="M160,120h20v20h-20Z" fill="rgb(42, 153, 191)"/><path aria-label="admission_date: 2023-12; admission_day: Thursday; patients: 55" role="graphics-symbol" aria-roledescription="rect mark" d="M160,60h20v20h-20Z" fill="rgb(205, 236, 180)"/><path aria-label="admission_date: 2023-12; admission_day: Tuesday; patients: 69" role="graphics-symbol" aria-roledescription="rect mark" d="M160,20h20v20h-20Z" fill="rgb(105, 197, 190)"/><path aria-label="admission_date: 2023-12; admission_day: Wednesday; patients: 47" role="graphics-symbol" aria-roledescription="rect mark" d="M160,40h20v20h-20Z" fill="rgb(239, 249, 189)"/><path aria-label="admission_date: 2024-01; admission_day: Friday; patients: 59" role="graphics-symbol" aria-roledescription="rect mark" d="M180,80h20v20h-20Z" fill="rgb(182, 226, 182)"/><path aria-label="admission_date: 2024-01; admission_day: Monday; patients: 95" role="graphics-symbol" aria-roledescription="rect mark" d="M180,0h20v20h-20Z" fill="rgb(34, 79, 160)"/><path aria-label="admission_date: 2024-01; admission_day: Saturday; patients: 68" role="graphics-symbol" aria-roledescription="rect mark" d="M180,100h20v20h-20Z" fill="rgb(113, 200, 189)"/><path aria-label="admission_date: 2024-01; admission_day: Sunday; patients: 72" role="graphics-symbol" aria-roledescription="rect mark" d="M180,120h20v20h-20Z" fill="rgb(85, 188, 192)"/><path aria-label="admission_date: 2024-01; admission_day: Thursday; patients: 70" role="graphics-symbol" aria-roledescription="rect mark" d="M180,60h20v20h-20Z" fill="rgb(98, 194, 191)"/><path aria-label="admission_date: 2024-01; admission_day: Tuesday; patients: 72" role="graphics-symbol" aria-roledescription="rect mark" d="M180,20h20v20h-20Z" fill="rgb(85, 188, 192)"/><path aria-label="admission_date: 2024-01; admission_day: Wednesday; patients: 77" role="graphics-symbol" aria-roledescription="rect mark" d="M180,40h20v20h-20Z" fill="rgb(58, 170, 193)"/><path aria-label="admission_date: 2024-02; admission_day: Friday; patients: 59" role="graphics-symbol" aria-roledescription="rect mark" d="M200,80h20v20h-20Z" fill="rgb(182, 226, 182)"/><path aria-label="admission_date: 2024-02; admission_day: Monday; patients: 59" role="graphics-symbol" aria-roledescription="rect mark" d="M200,0h20v20h-20Z" fill="rgb(182, 226, 182)"/><path aria-label="admission_date: 2024-02; admission_day: Saturday; patients: 57" role="graphics-symbol" aria-roledescription="rect mark" d="M200,100h20v20h-20Z" fill="rgb(194, 231, 181)"/><path aria-label="admission_date: 2024-02; admission_day: Sunday; patients: 62" role="graphics-symbol" aria-roledescription="rect mark" d="M200,120h20v20h-20Z" fill="rgb(159, 217, 184)"/><path aria-label="admission_date: 2024-02; admission_day: Thursday; patients: 77" role="graphics-symbol" aria-roledescription="rect mark" d="M200,60h20v20h-20Z" fill="rgb(58, 170, 193)"/><path aria-label="admission_date: 2024-02; admission_day: Tuesday; patients: 50" role="graphics-symbol" aria-roledescription="rect mark" d="M200,20h20v20h-20Z" fill="rgb(228, 245, 184)"/><path aria-label="admission_date: 2024-02; admission_day: Wednesday; patients: 67" role="graphics-symbol" aria-roledescription="rect mark" d="M200,40h20v20h-20Z" fill="rgb(121, 203, 188)"/><path aria-label="admission_date: 2024-03; admission_day: Friday; patients: 74" role="graphics-symbol" aria-roledescription="rect mark" d="M220,80h20v20h-20Z" fill="rgb(72, 182, 194)"/><path aria-label="admission_date: 2024-03; admission_day: Monday; patients: 63" role="graphics-symbol" aria-roledescription="rect mark" d="M220,0h20v20h-20Z" fill="rgb(152, 214, 185)"/><path aria-label="admission_date: 2024-03; admission_day: Saturday; patients: 93" role="graphics-symbol" aria-roledescription="rect mark" d="M220,100h20v20h-20Z" fill="rgb(34, 89, 165)"/><path aria-label="admission_date: 2024-03; admission_day: Sunday; patients: 94" role="graphics-symbol" aria-roledescription="rect mark" d="M220,120h20v20h-20Z" fill="rgb(34, 84, 162)"/><path aria-label="admission_date: 2024-03; admission_day: Thursday; patients: 73" role="graphics-symbol" aria-roledescription="rect mark" d="M220,60h20v20h-20Z" fill="rgb(79, 185, 193)"/><path aria-label="admission_date: 2024-03; admission_day: Tuesday; patients: 51" role="graphics-symbol" aria-roledescription="rect mark" d="M220,20h20v20h-20Z" fill="rgb(224, 243, 182)"/><path aria-label="admission_date: 2024-03; admission_day: Wednesday; patients: 58" role="graphics-symbol" aria-roledescription="rect mark" d="M220,40h20v20h-20Z" fill="rgb(189, 229, 181)"/><path aria-label="admission_date: 2024-04; admission_day: Friday; patients: 58" role="graphics-symbol" aria-roledescription="rect mark" d="M240,80h20v20h-20Z" fill="rgb(189, 229, 181)"/><path aria-label="admission_date: 2024-04; admission_day: Monday; patients: 76" role="graphics-symbol" aria-roledescription="rect mark" d="M240,0h20v20h-20Z" fill="rgb(62, 174, 193)"/><path aria-label="admission_date: 2024-04; admission_day: Saturday; patients: 64" role="graphics-symbol" aria-roledescription="rect mark" d="M240,100h20v20h-20Z" fill="rgb(144, 212, 185)"/><path aria-label="admission_date: 2024-04; admission_day: Sunday; patients: 63" role="graphics-symbol" aria-roledescription="rect mark" d="M240,120h20v20h-20Z" fill="rgb(152, 214, 185)"/><path aria-label="admission_date: 2024-04; admission_day: Thursday; patients: 67" role="graphics-symbol" aria-roledescription="rect mark" d="M240,60h20v20h-20Z" fill="rgb(121, 203, 188)"/><path aria-label="admission_date: 2024-04; admission_day: Tuesday; patients: 82" role="graphics-symbol" aria-roledescription="rect mark" d="M240,20h20v20h-20Z" fill="rgb(40, 148, 189)"/><path aria-label="admission_date: 2024-04; admission_day: Wednesday; patients: 59" role="graphics-symbol" aria-roledescription="rect mark" d="M240,40h20v20h-20Z" fill="rgb(182, 226, 182)"/><path aria-label="admission_date: 2024-05; admission_day: Friday; patients: 96" role="graphics-symbol" aria-roledescription="rect mark" d="M260,80h20v20h-20Z" fill="rgb(35, 74, 157)"/><path aria-label="admission_date: 2024-05; admission_day: Monday; patients: 59" role="graphics-symbol" aria-roledescription="rect mark" d="M260,0h20v20h-20Z" fill="rgb(182, 226, 182)"/><path aria-label="admission_date: 2024-05; admission_day: Saturday; patients: 65" role="graphics-symbol" aria-roledescription="rect mark" d="M260,100h20v20h-20Z" fill="rgb(136, 209, 186)"/><path aria-label="admission_date: 2024-05; admission_day: Sunday; patients: 54" role="graphics-symbol" aria-roledescription="rect mark" d="M260,120h20v20h-20Z" fill="rgb(211, 238, 180)"/><path aria-label="admission_date: 2024-05; admission_day: Thursday; patients: 89" role="graphics-symbol" aria-roledescription="rect mark" d="M260,60h20v20h-20Z" fill="rgb(33, 110, 175)"/><path aria-label="admission_date: 2024-05; admission_day: Tuesday; patients: 67" role="graphics-symbol" aria-roledescription="rect mark" d="M260,20h20v20h-20Z" fill="rgb(121, 203, 188)"/><path aria-label="admission_date: 2024-05; admission_day: Wednesday; patients: 89" role="graphics-symbol" aria-roledescription="rect mark" d="M260,40h20v20h-20Z" fill="rgb(33, 110, 175)"/><path aria-label="admission_date: 2024-06; admission_day: Friday; patients: 55" role="graphics-symbol" aria-roledescription="rect mark" d="M280,80h20v20h-20Z" fill="rgb(205, 236, 180)"/><path aria-label="admission_date: 2024-06; admission_day: Monday; patients: 81" role="graphics-symbol" aria-roledescription="rect mark" d="M280,0h20v20h-20Z" fill="rgb(42, 153, 191)"/><path aria-label="admission_date: 2024-06; admission_day: Saturday; patients: 87" role="graphics-symbol" aria-roledescription="rect mark" d="M280,100h20v20h-20Z" fill="rgb(33, 122, 180)"/><path aria-label="admission_date: 2024-06; admission_day: Sunday; patients: 81" role="graphics-symbol" aria-roledescription="rect mark" d="M280,120h20v20h-20Z" fill="rgb(42, 153, 191)"/><path aria-label="admission_date: 2024-06; admission_day: Thursday; patients: 61" role="graphics-symbol" aria-roledescription="rect mark" d="M280,60h20v20h-20Z" fill="rgb(167, 220, 183)"/><path aria-label="admission_date: 2024-06; admission_day: Tuesday; patients: 61" role="graphics-symbol" aria-roledescription="rect mark" d="M280,20h20v20h-20Z" fill="rgb(167, 220, 183)"/><path aria-label="admission_date: 2024-06; admission_day: Wednesday; patients: 59" role="graphics-symbol" aria-roledescription="rect mark" d="M280,40h20v20h-20Z" fill="rgb(182, 226, 182)"/><path aria-label="admission_date: 2024-07; admission_day: Friday; patients: 70" role="graphics-symbol" aria-roledescription="rect mark" d="M300,80h20v20h-20Z" fill="rgb(98, 194, 191)"/><path aria-label="admission_date: 2024-07; admission_day: Monday; patients: 78" role="graphics-symbol" aria-roledescription="rect mark" d="M300,0h20v20h-20Z" fill="rgb(53, 166, 193)"/><path aria-label="admission_date: 2024-07; admission_day: Saturday; patients: 62" role="graphics-symbol" aria-roledescription="rect mark" d="M300,100h20v20h-20Z" fill="rgb(159, 217, 184)"/><path aria-label="admission_date: 2024-07; admission_day: Sunday; patients: 71" role="graphics-symbol" aria-roledescription="rect mark" d="M300,120h20v20h-20Z" fill="rgb(92, 191, 191)"/><path aria-label="admission_date: 2024-07; admission_day: Thursday; patients: 53" role="graphics-symbol" aria-roledescription="rect mark" d="M300,60h20v20h-20Z" fill="rgb(216, 240, 180)"/><path aria-label="admission_date: 2024-07; admission_day: Tuesday; patients: 88" role="graphics-symbol" aria-roledescription="rect mark" d="M300,20h20v20h-20Z" fill="rgb(33, 116, 178)"/><path aria-label="admission_date: 2024-07; admission_day: Wednesday; patients: 66" role="graphics-symbol" aria-roledescription="rect mark" d="M300,40h20v20h-20Z" fill="rgb(128, 206, 187)"/><path aria-label="admission_date: 2024-08; admission_day: Friday; patients: 78" role="graphics-symbol" aria-roledescription="rect mark" d="M320,80h20v20h-20Z" fill="rgb(53, 166, 193)"/><path aria-label="admission_date: 2024-08; admission_day: Monday; patients: 68" role="graphics-symbol" aria-roledescription="rect mark" d="M320,0h20v20h-20Z" fill="rgb(113, 200, 189)"/><path aria-label="admission_date: 2024-08; admission_day: Saturday; patients: 100" role="graphics-symbol" aria-roledescription="rect mark" d="M320,100h20v20h-20Z" fill="rgb(31, 57, 141)"/><path aria-label="admission_date: 2024-08; admission_day: Sunday; patients: 70" role="graphics-symbol" aria-roledescription="rect mark" d="M320,120h20v20h-20Z" fill="rgb(98, 194, 191)"/><path aria-label="admission_date: 2024-08; admission_day: Thursday; patients: 97" role="graphics-symbol" aria-roledescription="rect mark" d="M320,60h20v20h-20Z" fill="rgb(34, 69, 154)"/><path aria-label="admission_date: 2024-08; admission_day: Tuesday; patients: 64" role="graphics-symbol" aria-roledescription="rect mark" d="M320,20h20v20h-20Z" fill="rgb(144, 212, 185)"/><path aria-label="admission_date: 2024-08; admission_day: Wednesday; patients: 53" role="graphics-symbol" aria-roledescription="rect mark" d="M320,40h20v20h-20Z" fill="rgb(216, 240, 180)"/><path aria-label="admission_date: 2024-09; admission_day: Friday; patients: 55" role="graphics-symbol" aria-roledescription="rect mark" d="M340,80h20v20h-20Z" fill="rgb(205, 236, 180)"/><path aria-label="admission_date: 2024-09; admission_day: Monday; patients: 74" role="graphics-symbol" aria-roledescription="rect mark" d="M340,0h20v20h-20Z" fill="rgb(72, 182, 194)"/><path aria-label="admission_date: 2024-09; admission_day: Saturday; patients: 68" role="graphics-symbol" aria-roledescription="rect mark" d="M340,100h20v20h-20Z" fill="rgb(113, 200, 189)"/><path aria-label="admission_date: 2024-09; admission_day: Sunday; patients: 84" role="graphics-symbol" aria-roledescription="rect mark" d="M340,120h20v20h-20Z" fill="rgb(36, 138, 186)"/><path aria-label="admission_date: 2024-09; admission_day: Thursday; patients: 56" role="graphics-symbol" aria-roledescription="rect mark" d="M340,60h20v20h-20Z" fill="rgb(200, 233, 181)"/><path aria-label="admission_date: 2024-09; admission_day: Tuesday; patients: 70" role="graphics-symbol" aria-roledescription="rect mark" d="M340,20h20v20h-20Z" fill="rgb(98, 194, 191)"/><path aria-label="admission_date: 2024-09; admission_day: Wednesday; patients: 59" role="graphics-symbol" aria-roledescription="rect mark" d="M340,40h20v20h-20Z" fill="rgb(182, 226, 182)"/><path aria-label="admission_date: 2024-10; admission_day: Friday; patients: 75" role="graphics-symbol" aria-roledescription="rect mark" d="M360,80h20v20h-20Z" fill="rgb(67, 178, 194)"/><path aria-label="admission_date: 2024-10; admission_day: Monday; patients: 65" role="graphics-symbol" aria-roledescription="rect mark" d="M360,0h20v20h-20Z" fill="rgb(136, 209, 186)"/><path aria-label="admission_date: 2024-10; admission_day: Saturday; patients: 61" role="graphics-symbol" aria-roledescription="rect mark" d="M360,100h20v20h-20Z" fill="rgb(167, 220, 183)"/><path aria-label="admission_date: 2024-10; admission_day: Sunday; patients: 55" role="graphics-symbol" aria-roledescription="rect mark" d="M360,120h20v20h-20Z" fill="rgb(205, 236, 180)"/><path aria-label="admission_date: 2024-10; admission_day: Thursday; patients: 63" role="graphics-symbol" aria-roledescription="rect mark" d="M360,60h20v20h-20Z" fill="rgb(152, 214, 185)"/><path aria-label="admission_date: 2024-10; admission_day: Tuesday; patients: 79" role="graphics-symbol" aria-roledescription="rect mark" d="M360,20h20v20h-20Z" fill="rgb(49, 162, 192)"/><path aria-label="admission_date: 2024-10; admission_day: Wednesday; patients: 73" role="graphics-symbol" aria-roledescription="rect mark" d="M360,40h20v20h-20Z" fill="rgb(79, 185, 193)"/></g><g class="mark-group role-legend" role="graphics-symbol" aria-roledescription="legend" aria-label="Gradient legend titled 'patients' for fill color with values from 47 to 102"><g transform="translate(398,0)"><path class="background" aria-hidden="true" d="M0,0h43v156h-43Z" pointer-events="none"/><g><g class="mark-group role-legend-entry"><g transform="translate(0,16)"><path class="background" aria-hidden="true" d="M0,0h0v0h0Z" pointer-events="none"/><g><g class="mark-rect role-legend-gradient" pointer-events="none"><path d="M0,0h16v140h-16Z" fill="url(#gradient_2)" stroke="#ddd" stroke-width="0" opacity="1"/></g><g class="mark-text role-legend-label" pointer-events="none"><text text-anchor="start" transform="translate(18,109.9090909090909)" font-family="sans-serif" font-size="10px" fill="#000" opacity="1">60</text><text text-anchor="start" transform="translate(18,59)" font-family="sans-serif" font-size="10px" fill="#000" opacity="1">80</text><text text-anchor="start" transform="translate(18,8.090909090909093)" font-family="sans-serif" font-size="10px" fill="#000" opacity="1">100</text></g></g><path class="foreground" aria-hidden="true" d="" pointer-events="none" display="none"/></g></g><g class="mark-text role-legend-title" pointer-events="none"><text text-anchor="start" transform="translate(0,9)" font-family="sans-serif" font-size="11px" font-weight="bold" fill="#000" opacity="1">patients</text></g></g><path class="foreground" aria-hidden="true" d="" pointer-events="none" display="none"/></g></g><g class="mark-group role-axis" role="graphics-symbol" aria-roledescription="axis" aria-label="X-axis titled 'admission_date' for a discrete scale with 19 values: 2023-04, 2023-05, 2023-06, 2023-07, 2023-08, ending with 2024-10"><g transform="translate(0.5,140.5)"><path class="background" aria-hidden="true" d="M0,0h0v0h0Z" pointer-events="none"/><g><g class="mark-rule role-axis-tick" pointer-events="none"><line transform="translate(10,0)" x2="0" y2="5" stroke="#888" stroke-width="1" opacity="1"/><line transform="translate(30,0)" x2="0" y2="5" stroke="#888" stroke-width="1" opacity="1"/><line transform="translate(50,0)" x2="0" y2="5" stroke="#888" stroke-width="1" opacity="1"/><line transform="translate(70,0)" x2="0" y2="5" stroke="#888" stroke-width="1" opacity="1"/><line transform="translate(90,0)" x2="0" y2="5" stroke="#888" stroke-width="1" opacity="1"/><line transform="translate(110,0)" x2="0" y2="5" stroke="#888" stroke-width="1" opacity="1"/><line transform="translate(130,0)" x2="0" y2="5" stroke="#888" stroke-width="1" opacity="1"/><line transform="translate(150,0)" x2="0" y2="5" stroke="#888" stroke-width="1" opacity="1"/><line transform="translate(170,0)" x2="0" y2="5" stroke="#888" stroke-width="1" opacity="1"/><line transform="translate(190,0)" x2="0" y2="5" stroke="#888" stroke-width="1" opacity="1"/><line transform="translate(210,0)" x2="0" y2="5" stroke="#888" stroke-width="1" opacity="1"/><line transform="translate(230,0)" x2="0" y2="5" stroke="#888" stroke-width="1" opacity="1"/><line transform="translate(250,0)" x2="0" y2="5" stroke="#888" stroke-width="1" opacity="1"/><line transform="translate(270,0)" x2="0" y2="5" stroke="#888" stroke-width="1" opacity="1"/><line transform="translate(290,0)" x2="0" y2="5" stroke="#888" stroke-width="1" opacity="1"/><line transform="translate(310,0)" x2="0" y2="5" stroke="#888" stroke-width="1" opacity="1"/><line transform="translate(330,0)" x2="0" y2="5" stroke="#888" stroke-width="1" opacity="1"/><line transform="translate(350,0)" x2="0" y2="5" stroke="#888" stroke-width="1" opacity="1"/><line transform="translate(370,0)" x2="0" y2="5" stroke="#888" stroke-width="1" opacity="1"/></g><g class="mark-text role-axis-label" pointer-events="none"><text text-anchor="end" transform="translate(9.5,7) rotate(270) translate(0,3)" font-family="sans-serif" font-size="10px" fill="#000" opacity="1">2023-04</text><text text-anchor="end" transform="translate(29.5,7) rotate(270) translate(0,3)" font-family="sans-serif" font-size="10px" fill="#000" opacity="1">2023-05</text><text text-anchor="end" transform="translate(49.5,7) rotate(270) translate(0,3)" font-family="sans-serif" font-size="10px" fill="#000" opacity="1">2023-06</text><text text-anchor="end" transform="translate(69.5,7) rotate(270) translate(0,3)" font-family="sans-serif" font-size="10px" fill="#000" opacity="1">2023-07</text><text text-anchor="end" transform="translate(89.5,7) rotate(270) translate(0,3)" font-family="sans-serif" font-size="10px" fill="#000" opacity="1">2023-08</text><text text-anchor="end" transform="translate(109.5,7) rotate(270) translate(0,3)" font-family="sans-serif" font-size="10px" fill="#000" opacity="1">2023-09</text><text text-anchor="end" transform="translate(129.5,7) rotate(270) translate(0,3)" font-family="sans-serif" font-size="10px" fill="#000" opacity="1">2023-10</text><text text-anchor="end" transform="translate(149.5,7) rotate(270) translate(0,3)" font-family="sans-serif" font-size="10px" fill="#000" opacity="1">2023-11</text><text text-anchor="end" transform="translate(169.5,7) rotate(270) translate(0,3)" font-family="sans-serif" font-size="10px" fill="#000" opacity="1">2023-12</text><text text-anchor="end" transform="translate(189.5,7) rotate(270) translate(0,3)" font-family="sans-serif" font-size="10px" fill="#000" opacity="1">2024-01</text><text text-anchor="end" transform="translate(209.5,7) rotate(270) translate(0,3)" font-family="sans-serif" font-size="10px" fill="#000" opacity="1">2024-02</text><text text-anchor="end" transform="translate(229.5,7) rotate(270) translate(0,3)" font-family="sans-serif" font-size="10px" fill="#000" opacity="1">2024-03</text><text text-anchor="end" transform="translate(249.5,7) rotate(270) translate(0,3)" font-family="sans-serif" font-size="10px" fill="#000" opacity="1">2024-04</text><text text-anchor="end" transform="translate(269.5,7) rotate(270) translate(0,3)" font-family="sans-serif" font-size="10px" fill="#000" opacity="1">2024-05</text><text text-anchor="end" transform="translate(289.5,7) rotate(270) translate(0,3)" font-family="sans-serif" font-size="10px" fill="#000" opacity="1">2024-06</text><text text-anchor="end" transform="translate(309.5,7) rotate(270) translate(0,3)" font-family="sans-serif" font-size="10px" fill="#000" opacity="1">2024-07</text><text text-anchor="end" transform="translate(329.5,7) rotate(270) translate(0,3)" font-family="sans-serif" font-size="10px" fill="#000" opacity="1">2024-08</text><text text-anchor="end" transform="translate(349.5,7) rotate(270) translate(0,3)" font-family="sans-serif" font-size="10px" fill="#000" opacity="1">2024-09</text><text text-anchor="end" transform="translate(369.5,7) rotate(270) translate(0,3)" font-family="sans-serif" font-size="10px" fill="#000" opacity="1">2024-10</text></g><g class="mark-rule role-axis-domain" pointer-events="none"><line transform="translate(0,0)" x2="380" y2="0" stroke="#888" stroke-width="1" opacity="1"/></g><g class="mark-text role-axis-title" pointer-events="none"><text text-anchor="middle" transform="translate(190,56.69921875)" font-family="sans-serif" font-size="11px" font-weight="bold" fill="#000" opacity="1">admission_date</text></g></g><path class="foreground" aria-hidden="true" d="" pointer-events="none" display="none"/></g></g><g class="mark-group role-axis" role="graphics-symbol" aria-roledescription="axis" aria-label="Y-axis titled 'admission_day' for a discrete scale with 7 values: Monday, Tuesday, Wednesday, Thursday, Friday, Saturday, Sunday"><g transform="translate(0.5,0.5)"><path class="background" aria-hidden="true" d="M0,0h0v0h0Z" pointer-events="none"/><g><g class="mark-rule role-axis-tick" pointer-events="none"><line transform="translate(0,10)" x2="-5" y2="0" stroke="#888" stroke-width="1" opacity="1"/><line transform="translate(0,30)" x2="-5" y2="0" stroke="#888" stroke-width="1" opacity="1"/><line transform="translate(0,50)" x2="-5" y2="0" stroke="#888" stroke-width="1" opacity="1"/><line transform="translate(0,70)" x2="-5" y2="0" stroke="#888" stroke-width="1" opacity="1"/><line transform="translate(0,90)" x2="-5" y2="0" stroke="#888" stroke-width="1" opacity="1"/><line transform="translate(0,110)" x2="-5" y2="0" stroke="#888" stroke-width="1" opacity="1"/><line transform="translate(0,130)" x2="-5" y2="0" stroke="#888" stroke-width="1" opacity="1"/></g><g class="mark-text role-axis-label" pointer-events="none"><text text-anchor="end" transform="translate(-7,12.5)" font-family="sans-serif" font-size="10px" fill="#000" opacity="1">Monday</text><text text-anchor="end" transform="translate(-7,32.5)" font-family="sans-serif" font-size="10px" fill="#000" opacity="1">Tuesday</text><text text-anchor="end" transform="translate(-7,52.5)" font-family="sans-serif" font-size="10px" fill="#000" opacity="1">Wednesday</text><text text-anchor="end" transform="translate(-7,72.5)" font-family="sans-serif" font-size="10px" fill="#000" opacity="1">Thursday</text><text text-anchor="end" transform="translate(-7,92.5)" font-family="sans-serif" font-size="10px" fill="#000" opacity="1">Friday</text><text text-anchor="end" transform="translate(-7,112.5)" font-family="sans-serif" font-size="10px" fill="#000" opacity="1">Saturday</text><text text-anchor="end" transform="translate(-7,132.5)" font-family="sans-serif" font-size="10px" fill="#000" opacity="1">Sunday</text></g><g class="mark-rule role-axis-domain" pointer-events="none"><line transform="translate(0,0)" x2="0" y2="140" stroke="#888" stroke-width="1" opacity="1"/></g><g class="mark-text role-axis-title" pointer-events="none"><text text-anchor="middle" transform="translate(-63.626953125,70) rotate(-90) translate(0,-2)" font-family="sans-serif" font-size="11px" font-weight="bold" fill="#000" opacity="1">admission_day</text></g></g><path class="foreground" aria-hidden="true" d="" pointer-events="none" display="none"/></g></g></g><path class="foreground" aria-hidden="true" d="" display="none"/></g></g></g><defs><linearGradient id="gradient_2" x1="0" x2="0" y1="1" y2="0"><stop offset="0" stop-color="rgb(239, 249, 189)"/><stop offset="0.05454545454545454" stop-color="rgb(228, 245, 184)"/><stop offset="0.14545454545454545" stop-color="rgb(205, 236, 180)"/><stop offset="0.23636363636363636" stop-color="rgb(174, 223, 182)"/><stop offset="0.32727272727272727" stop-color="rgb(136, 209, 186)"/><stop offset="0.41818181818181815" stop-color="rgb(98, 194, 191)"/><stop offset="0.509090909090909" stop-color="rgb(67, 178, 194)"/><stop offset="0.6" stop-color="rgb(44, 158, 192)"/><stop offset="0.6909090909090909" stop-color="rgb(34, 133, 185)"/><stop offset="0.7818181818181819" stop-color="rgb(33, 105, 173)"/><stop offset="0.8727272727272727" stop-color="rgb(34, 79, 160)"/><stop offset="0.9636363636363636" stop-color="rgb(31, 57, 141)"/><stop offset="1" stop-color="rgb(28, 49, 133)"/></linearGradient></defs></svg>