<svg xmlns="http://www.w3.org/2000/svg" xmlns:xlink="http://www.w3.org/1999/xlink" version="1.1" class="marks" width="443" height="201" viewBox="0 0 443 201"><rect width="443" height="201" fill="white"/><g fill="none" stroke-miterlimit="10" transform="translate(58,10)"><g class="mark-group role-frame root" role="graphics-object" aria-roledescription="group mark container"><g transform="translate(0,0)"><path class="background" aria-hidden="true" d="M0.5,0.5h380v150h-380Z" stroke="#ddd"/><g><g class="mark-group role-axis" aria-hidden="true"><g transform="translate(0.5,0.5)"><path class="background" aria-hidden="true" d="M0,0h0v0h0Z" pointer-events="none"/><g><g class="mark-rule role-axis-grid" pointer-events="none"><line transform="translate(0,150)" x2="380" y2="0" stroke="#ddd" stroke-width="1" opacity="1"/><line transform="translate(0,113)" x2="380" y2="0" stroke="#ddd" stroke-width="1" opacity="1"/><line transform="translate(0,75)" x2="380" y2="0" stroke="#ddd" stroke-width="1" opacity="1"/><line transform="translate(0,38)" x2="380" y2="0" stroke="#ddd" stroke-width="1" opacity="1"/><line transform="translate(0,0)" x2="380" y2="0" stroke="#ddd" stroke-width="1" opacity="1"/></g></g><path class="foreground" aria-hidden="true" d="" pointer-events="none" display="none"/></g></g><g class="mark-group role-axis" role="graphics-symbol" aria-roledescription="axis" aria-label="X-axis titled 'Rating' for a discrete scale with 19 values: 0.9, 1.3, 1.8, 2.2, 2.7, ending with 8.9"><g transform="translate(0.5,150.5)"><path class="background" aria-hidden="true" d="M0,0h0v0h0Z" pointer-events="none"/><g><g class="mark-rule role-axis-tick" pointer-events="none"><line transform="translate(10,0)" x2="0" y2="5" stroke="#888" stroke-width="1" opacity="1"/><line transform="translate(30,0)" x2="0" y2="5" stroke="#888" stroke-width="1" opacity="1"/><line transform="translate(50,0)" x2="0" y2="5" stroke="#888" stroke-width="1" opacity="1"/><line transform="translate(70,0)" x2="0" y2="5" stroke="#888" stroke-width="1" opacity="1"/><line transform="translate(90,0)" x2="0" y2="5" stroke="#888" stroke-width="1" opacity="1"/><line transform="translate(110,0)" x2="0" y2="5" stroke="#888" stroke-width="1" opacity="1"/><line transform="translate(130,0)" x2="0" y2="5" stroke="#888" stroke-width="1" opacity="1"/><line transform="translate(150,0)" x2="0" y2="5" stroke="#888" stroke-width="1" opacity="1"/><line transform="translate(170,0)" x2="0" y2="5" stroke="#888" stroke-width="1" opacity="1"/><line transform="translate(190,0)" x2="0" y2="5" stroke="#888" stroke-width="1" opacity="1"/><line transform="translate(210,0)" x2="0" y2="5" stroke="#888" stroke-width="1" opacity="1"/><line transform="translate(230,0)" x2="0" y2="5" stroke="#888" stroke-width="1" opacity="1"/><line transform="translate(250,0)" x2="0" y2="5" stroke="#888" stroke-width="1" opacity="1"/><line transform="translate(270,0)" x2="0" y2="5" stroke="#888" stroke-width="1" opacity="1"/><line transform="translate(290,0)" x2="0" y2="5" stroke="#888" stroke-width="1" opacity="1"/><line transform="translate(310,0)" x2="0" y2="5" stroke="#888" stroke-width="1" opacity="1"/><line transform="translate(330,0)" x2="0" y2="5" stroke="#888" stroke-width="1" opacity="1"/><line transform="translate(350,0)" x2="0" y2="5" stroke="#888" stroke-width="1" opacity="1"/><line transform="translate(370,0)" x2="0" y2="5" stroke="#888" stroke-width="1" opacity="1"/></g><g class="mark-text role-axis-label" pointer-events="none"><text text-anchor="end" transform="translate(9.5,7) rotate(270) translate(0,3)" font-family="sans-serif" font-size="10px" fill="#000" opacity="1">0.9</text><text text-anchor="end" transform="translate(29.5,7) rotate(270) translate(0,3)" font-family="sans-serif" font-size="10px" fill="#000" opacity="1">1.3</text><text text-anchor="end" transform="translate(49.5,7) rotate(270) translate(0,3)" font-family="sans-serif" font-size="10px" fill="#000" opacity="1">1.8</text><text text-anchor="end" transform="translate(69.5,7) rotate(270) translate(0,3)" font-family="sans-serif" font-size="10px" fill="#000" opacity="1">2.2</text><text text-anchor="end" transform="translate(89.5,7) rotate(270) translate(0,3)" font-family="sans-serif" font-size="10px" fill="#000" opacity="1">2.7</text><text text-anchor="end" transform="translate(109.5,7) rotate(270) translate(0,3)" font-family="sans-serif" font-size="10px" fill="#000" opacity="1">3.1</text><text text-anchor="end" transform="translate(129.5,7) rotate(270) translate(0,3)" font-family="sans-serif" font-size="10px" fill="#000" opacity="1">3.6</text><text text-anchor="end" transform="translate(149.5,7) rotate(270) translate(0,3)" font-family="sans-serif" font-size="10px" fill="#000" opacity="1">4</text><text text-anchor="end" transform="translate(169.5,7) rotate(270) translate(0,3)" font-family="sans-serif" font-size="10px" fill="#000" opacity="1">4.4</text><text text-anchor="end" transform="translate(189.5,7) rotate(270) translate(0,3)" font-family="sans-serif" font-size="10px" fill="#000" opacity="1">4.9</text><text text-anchor="end" transform="translate(209.5,7) rotate(270) translate(0,3)" font-family="sans-serif" font-size="10px" fill="#000" opacity="1">5.3</text><text text-anchor="end" transform="translate(229.5,7) rotate(270) translate(0,3)" font-family="sans-serif" font-size="10px" fill="#000" opacity="1">5.8</text><text text-anchor="end" transform="translate(249.5,7) rotate(270) translate(0,3)" font-family="sans-serif" font-size="10px" fill="#000" opacity="1">6.2</text><text text-anchor="end" transform="translate(269.5,7) rotate(270) translate(0,3)" font-family="sans-serif" font-size="10px" fill="#000" opacity="1">6.7</text><text text-anchor="end" transform="translate(289.5,7) rotate(270) translate(0,3)" font-family="sans-serif" font-size="10px" fill="#000" opacity="1">7.1</text><text text-anchor="end" transform="translate(309.5,7) rotate(270) translate(0,3)" font-family="sans-serif" font-size="10px" fill="#000" opacity="1">7.5</text><text text-anchor="end" transform="translate(329.5,7) rotate(270) translate(0,3)" font-family="sans-serif" font-size="10px" fill="#000" opacity="1">8</text><text text-anchor="end" transform="translate(349.5,7) rotate(270) translate(0,3)" font-family="sans-serif" font-size="10px" fill="#000" opacity="1">8.4</text><text text-anchor="end" transform="translate(369.5,7) rotate(270) translate(0,3)" font-family="sans-serif" font-size="10px" fill="#000" opacity="1">8.9</text></g><g class="mark-rule role-axis-domain" pointer-events="none"><line transform="translate(0,0)" x2="380" y2="0" stroke="#888" stroke-width="1" opacity="1"/></g><g class="mark-text role-axis-title" pointer-events="none"><text text-anchor="middle" transform="translate(190,33.9013671875)" font-family="sans-serif" font-size="11px" font-weight="bold" fill="#000" opacity="1">Rating</text></g></g><path class="foreground" aria-hidden="true" d="" pointer-events="none" display="none"/></g></g><g class="mark-group role-axis" role="graphics-symbol" aria-roledescription="axis" aria-label="Y-axis titled 'Movie Counts' for a linear scale with values from 0 to 20,000"><g transform="translate(0.5,0.5)"><path class="background" aria-hidden="true" d="M0,0h0v0h0Z" pointer-events="none"/><g><g class="mark-rule role-axis-tick" pointer-events="none"><line transform="translate(0,150)" x2="-5" y2="0" stroke="#888" stroke-width="1" opacity="1"/><line transform="translate(0,113)" x2="-5" y2="0" stroke="#888" stroke-width="1" opacity="1"/><line transform="translate(0,75)" x2="-5" y2="0" stroke="#888" stroke-width="1" opacity="1"/><line transform="translate(0,38)" x2="-5" y2="0" stroke="#888" stroke-width="1" opacity="1"/><line transform="translate(0,0)" x2="-5" y2="0" stroke="#888" stroke-width="1" opacity="1"/></g><g class="mark-text role-axis-label" pointer-events="none"><text text-anchor="end" transform="translate(-7,153)" font-family="sans-serif" font-size="10px" fill="#000" opacity="1">0</text><text text-anchor="end" transform="translate(-7,115.5)" font-family="sans-serif" font-size="10px" fill="#000" opacity="1">5,000</text><text text-anchor="end" transform="translate(-7,78)" font-family="sans-serif" font-size="10px" fill="#000" opacity="1">10,000</text><text text-anchor="end" transform="translate(-7,40.5)" font-family="sans-serif" font-size="10px" fill="#000" opacity="1">15,000</text><text text-anchor="end" transform="translate(-7,3)" font-family="sans-serif" font-size="10px" fill="#000" opacity="1">20,000</text></g><g class="mark-rule role-axis-domain" pointer-events="none"><line transform="translate(0,150)" x2="0" y2="-150" stroke="#888" stroke-width="1" opacity="1"/></g><g class="mark-text role-axis-title" pointer-events="none"><text text-anchor="middle" transform="translate(-41.5859375,75) rotate(-90) translate(0,-2)" font-family="sans-serif" font-size="11px" font-weight="bold" fill="#000" opacity="1">Movie Counts</text></g></g><path class="foreground" aria-hidden="true" d="" pointer-events="none" display="none"/></g></g><g class="mark-rect role-mark marks" role="graphics-object" aria-roledescription="rect mark container"><path aria-label="Rating: 0.9; Movie Counts: 41" role="graphics-symbol" aria-roledescription="bar" d="M1,149.6925h18v0.30750000000000455h-18Z" fill="#4c78a8"/><path aria-label="Rating: 1.3; Movie Counts: 86" role="graphics-symbol" aria-roledescription="bar" d="M21,149.35500000000002h18v0.6449999999999818h-18Z" fill="#4c78a8"/><path aria-label="Rating: 1.8; Movie Counts: 119" role="graphics-symbol" aria-roledescription="bar" d="M41,149.1075h18v0.8925000000000125h-18Z" fill="#4c78a8"/><path aria-label="Rating: 2.2; Movie Counts: 190" role="graphics-symbol" aria-roledescription="bar" d="M61,148.57500000000002h18v1.424999999999983h-18Z" fill="#4c78a8"/><path aria-label="Rating: 2.7; Movie Counts: 217" role="graphics-symbol" aria-roledescription="bar" d="M81,148.3725h18v1.6274999999999977h-18Z" fill="#4c78a8"/><path aria-label="Rating: 3.1; Movie Counts: 469" role="graphics-symbol" aria-roledescription="bar" d="M101,146.48250000000002h18v3.517499999999984h-18Z" fill="#4c78a8"/><path aria-label="Rating: 3.6; Movie Counts: 726" role="graphics-symbol" aria-roledescription="bar" d="M121,144.555h18v5.444999999999993h-18Z" fill="#4c78a8"/><path aria-label="Rating: 4; Movie Counts: 1601" role="graphics-symbol" aria-roledescription="bar" d="M141,137.9925h18v12.007499999999993h-18Z" fill="#4c78a8"/><path aria-label="Rating: 4.4; Movie Counts: 3092" role="graphics-symbol" aria-roledescription="bar" d="M161,126.81h18v23.189999999999998h-18Z" fill="#4c78a8"/><path aria-label="Rating: 4.9; Movie Counts: 7366" role="graphics-symbol" aria-roledescription="bar" d="M181,94.755h18v55.245000000000005h-18Z" fill="#4c78a8"/><path aria-label="Rating: 5.3; Movie Counts: 11507" role="graphics-symbol" aria-roledescription="bar" d="M201,63.6975h18v86.30250000000001h-18Z" fill="#4c78a8"/><path aria-label="Rating: 5.8; Movie Counts: 19578" role="graphics-symbol" aria-roledescription="bar" d="M221,3.165000000000001h18v146.835h-18Z" fill="#4c78a8"/><path aria-label="Rating: 6.2; Movie Counts: 19750" role="graphics-symbol" aria-roledescription="bar" d="M241,1.8749999999999933h18v148.125h-18Z" fill="#4c78a8"/><path aria-label="Rating: 6.7; Movie Counts: 19959" role="graphics-symbol" aria-roledescription="bar" d="M261,0.30749999999999944h18v149.6925h-18Z" fill="#4c78a8"/><path aria-label="Rating: 7.1; Movie Counts: 13230" role="graphics-symbol" aria-roledescription="bar" d="M281,50.775000000000006h18v99.225h-18Z" fill="#4c78a8"/><path aria-label="Rating: 7.5; Movie Counts: 7205" role="graphics-symbol" aria-roledescription="bar" d="M301,95.9625h18v54.037499999999994h-18Z" fill="#4c78a8"/><path aria-label="Rating: 8; Movie Counts: 2925" role="graphics-symbol" aria-roledescription="bar" d="M321,128.0625h18v21.9375h-18Z" fill="#4c78a8"/><path aria-label="Rating: 8.4; Movie Counts: 445" role="graphics-symbol" aria-roledescription="bar" d="M341,146.6625h18v3.3375000000000057h-18Z" fill="#4c78a8"/><path aria-label="Rating: 8.9; Movie Counts: 60" role="graphics-symbol" aria-roledescription="bar" d="M361,149.55h18v0.44999999999998863h-18Z" fill="#4c78a8"/></g></g><path class="foreground" aria-hidden="true" d="" display="none"/></g></g></g></svg>