<svg xmlns="http://www.w3.org/2000/svg" xmlns:xlink="http://www.w3.org/1999/xlink" version="1.1" class="marks" width="438" height="362" viewBox="0 0 438 362"><rect width="438" height="362" fill="white"/><g fill="none" stroke-miterlimit="10" transform="translate(33,5)"><g class="mark-group role-frame root" role="graphics-object" aria-roledescription="group mark container"><g transform="translate(0,0)"><path class="background" aria-hidden="true" d="M0.5,0.5h400v150h-400Z" stroke="#ddd"/><g><g class="mark-group role-axis" aria-hidden="true"><g transform="translate(0.5,0.5)"><path class="background" aria-hidden="true" d="M0,0h0v0h0Z" pointer-events="none"/><g><g class="mark-rule role-axis-grid" pointer-events="none"><line transform="translate(0,150)" x2="400" y2="0" stroke="#ddd" stroke-width="1" opacity="1"/><line transform="translate(0,117)" x2="400" y2="0" stroke="#ddd" stroke-width="1" opacity="1"/><line transform="translate(0,83)" x2="400" y2="0" stroke="#ddd" stroke-width="1" opacity="1"/><line transform="translate(0,50)" x2="400" y2="0" stroke="#ddd" stroke-width="1" opacity="1"/><line transform="translate(0,17)" x2="400" y2="0" stroke="#ddd" stroke-width="1" opacity="1"/></g></g><path class="foreground" aria-hidden="true" d="" pointer-events="none" display="none"/></g></g><g class="mark-group role-axis" role="graphics-symbol" aria-roledescription="axis" aria-label="X-axis titled 'TITLE' for a discrete scale with 20 values: THE LORD OF THE RINGS: THE RETURN OF THE KING, THE DARK KNIGHT, INCEPTION, WHIPLASH, GLADIATOR, ending with AVENGERS: ENDGAME"><g transform="translate(0.5,150.5)"><path class="background" aria-hidden="true" d="M0,0h0v0h0Z" pointer-events="none"/><g><g class="mark-rule role-axis-tick" pointer-events="none"><line transform="translate(10,0)" x2="0" y2="5" stroke="#888" stroke-width="1" opacity="1"/><line transform="translate(30,0)" x2="0" y2="5" stroke="#888" stroke-width="1" opacity="1"/><line transform="translate(50,0)" x2="0" y2="5" stroke="#888" stroke-width="1" opacity="1"/><line transform="translate(70,0)" x2="0" y2="5" stroke="#888" stroke-width="1" opacity="1"/><line transform="translate(90,0)" x2="0" y2="5" stroke="#888" stroke-width="1" opacity="1"/><line transform="translate(110,0)" x2="0" y2="5" stroke="#888" stroke-width="1" opacity="1"/><line transform="translate(130,0)" x2="0" y2="5" stroke="#888" stroke-width="1" opacity="1"/><line transform="translate(150,0)" x2="0" y2="5" stroke="#888" stroke-width="1" opacity="1"/><line transform="translate(170,0)" x2="0" y2="5" stroke="#888" stroke-width="1" opacity="1"/><line transform="translate(190,0)" x2="0" y2="5" stroke="#888" stroke-width="1" opacity="1"/><line transform="translate(210,0)" x2="0" y2="5" stroke="#888" stroke-width="1" opacity="1"/><line transform="translate(230,0)" x2="0" y2="5" stroke="#888" stroke-width="1" opacity="1"/><line transform="translate(250,0)" x2="0" y2="5" stroke="#888" stroke-width="1" opacity="1"/><line transform="translate(270,0)" x2="0" y2="5" stroke="#888" stroke-width="1" opacity="1"/><line transform="translate(290,0)" x2="0" y2="5" stroke="#888" stroke-width="1" opacity="1"/><line transform="translate(310,0)" x2="0" y2="5" stroke="#888" stroke-width="1" opacity="1"/><line transform="translate(330,0)" x2="0" y2="5" stroke="#888" stroke-width="1" opacity="1"/><line transform="translate(350,0)" x2="0" y2="5" stroke="#888" stroke-width="1" opacity="1"/><line transform="translate(370,0)" x2="0" y2="5" stroke="#888" stroke-width="1" opacity="1"/><line transform="translate(390,0)" x2="0" y2="5" stroke="#888" stroke-width="1" opacity="1"/></g><g class="mark-text role-axis-label" pointer-events="none"><text text-anchor="end" transform="translate(9.5,7) rotate(270) translate(0,3)" font-family="sans-serif" font-size="10px" fill="#000" opacity="1">THE LORD OF THE RINGS: THE RE…</text><text text-anchor="end" transform="translate(29.5,7) rotate(270) translate(0,3)" font-family="sans-serif" font-size="10px" fill="#000" opacity="1">THE DARK KNIGHT</text><text text-anchor="end" transform="translate(49.5,7) rotate(270) translate(0,3)" font-family="sans-serif" font-size="10px" fill="#000" opacity="1">INCEPTION</text><text text-anchor="end" transform="translate(69.5,7) rotate(270) translate(0,3)" font-family="sans-serif" font-size="10px" fill="#000" opacity="1">WHIPLASH</text><text text-anchor="end" transform="translate(89.5,7) rotate(270) translate(0,3)" font-family="sans-serif" font-size="10px" fill="#000" opacity="1">GLADIATOR</text><text text-anchor="end" transform="translate(109.5,7) rotate(270) translate(0,3)" font-family="sans-serif" font-size="10px" fill="#000" opacity="1">THE PRESTIGE</text><text text-anchor="end" transform="translate(129.5,7) rotate(270) translate(0,3)" font-family="sans-serif" font-size="10px" fill="#000" opacity="1">KILL BILL: THE WHOLE BLOODY AF…</text><text text-anchor="end" transform="translate(149.5,7) rotate(270) translate(0,3)" font-family="sans-serif" font-size="10px" fill="#000" opacity="1">THE LORD OF THE RINGS: THE FE…</text><text text-anchor="end" transform="translate(169.5,7) rotate(270) translate(0,3)" font-family="sans-serif" font-size="10px" fill="#000" opacity="1">THE DEPARTED</text><text text-anchor="end" transform="translate(189.5,7) rotate(270) translate(0,3)" font-family="sans-serif" font-size="10px" fill="#000" opacity="1">DJANGO UNCHAINED</text><text text-anchor="end" transform="translate(209.5,7) rotate(270) translate(0,3)" font-family="sans-serif" font-size="10px" fill="#000" opacity="1">THE LORD OF THE RINGS: THE TW…</text><text text-anchor="end" transform="translate(229.5,7) rotate(270) translate(0,3)" font-family="sans-serif" font-size="10px" fill="#000" opacity="1">THE PIANIST</text><text text-anchor="end" transform="translate(249.5,7) rotate(270) translate(0,3)" font-family="sans-serif" font-size="10px" fill="#000" opacity="1">INTERSTELLAR</text><text text-anchor="end" transform="translate(269.5,7) rotate(270) translate(0,3)" font-family="sans-serif" font-size="10px" fill="#000" opacity="1">MAD MAX: FURY ROAD</text><text text-anchor="end" transform="translate(289.5,7) rotate(270) translate(0,3)" font-family="sans-serif" font-size="10px" fill="#000" opacity="1">WOLFWALKERS</text><text text-anchor="end" transform="translate(309.5,7) rotate(270) translate(0,3)" font-family="sans-serif" font-size="10px" fill="#000" opacity="1">LA LA LAND</text><text text-anchor="end" transform="translate(329.5,7) rotate(270) translate(0,3)" font-family="sans-serif" font-size="10px" fill="#000" opacity="1">JOKER</text><text text-anchor="end" transform="translate(349.5,7) rotate(270) translate(0,3)" font-family="sans-serif" font-size="10px" fill="#000" opacity="1">V FOR VENDETTA</text><text text-anchor="end" transform="translate(369.5,7) rotate(270) translate(0,3)" font-family="sans-serif" font-size="10px" fill="#000" opacity="1">AVENGERS: INFINITY WAR</text><text text-anchor="end" transform="translate(389.5,7) rotate(270) translate(0,3)" font-family="sans-serif" font-size="10px" fill="#000" opacity="1">AVENGERS: ENDGAME</text></g><g class="mark-rule role-axis-domain" pointer-events="none"><line transform="translate(0,0)" x2="400" y2="0" stroke="#888" stroke-width="1" opacity="1"/></g><g class="mark-text role-axis-title" pointer-events="none"><text text-anchor="middle" transform="translate(200,200)" font-family="sans-serif" font-size="11px" font-weight="bold" fill="#000" opacity="1">TITLE</text></g></g><path class="foreground" aria-hidden="true" d="" pointer-events="none" display="none"/></g></g><g class="mark-group role-axis" role="graphics-symbol" aria-roledescription="axis" aria-label="Y-axis titled 'Rating' for a linear scale with values from 0 to 9"><g transform="translate(0.5,0.5)"><path class="background" aria-hidden="true" d="M0,0h0v0h0Z" pointer-events="none"/><g><g class="mark-rule role-axis-tick" pointer-events="none"><line transform="translate(0,150)" x2="-5" y2="0" stroke="#888" stroke-width="1" opacity="1"/><line transform="translate(0,117)" x2="-5" y2="0" stroke="#888" stroke-width="1" opacity="1"/><line transform="translate(0,83)" x2="-5" y2="0" stroke="#888" stroke-width="1" opacity="1"/><line transform="translate(0,50)" x2="-5" y2="0" stroke="#888" stroke-width="1" opacity="1"/><line transform="translate(0,17)" x2="-5" y2="0" stroke="#888" stroke-width="1" opacity="1"/></g><g class="mark-text role-axis-label" pointer-events="none"><text text-anchor="end" transform="translate(-7,153)" font-family="sans-serif" font-size="10px" fill="#000" opacity="1">0</text><text text-anchor="end" transform="translate(-7,119.66666666666667)" font-family="sans-serif" font-size="10px" fill="#000" opacity="1">2</text><text text-anchor="end" transform="translate(-7,86.33333333333334)" font-family="sans-serif" font-size="10px" fill="#000" opacity="1">4</text><text text-anchor="end" transform="translate(-7,53.00000000000001)" font-family="sans-serif" font-size="10px" fill="#000" opacity="1">6</text><text text-anchor="end" transform="translate(-7,19.666666666666675)" font-family="sans-serif" font-size="10px" fill="#000" opacity="1">8</text></g><g class="mark-rule role-axis-domain" pointer-events="none"><line transform="translate(0,150)" x2="0" y2="-150" stroke="#888" stroke-width="1" opacity="1"/></g><g class="mark-text role-axis-title" pointer-events="none"><text text-anchor="middle" transform="translate(-16.5615234375,75) rotate(-90) translate(0,-2)" font-family="sans-serif" font-size="11px" font-weight="bold" fill="#000" opacity="1">Rating</text></g></g><path class="foreground" aria-hidden="true" d="" pointer-events="none" display="none"/></g></g><g class="mark-rect role-mark marks" role="graphics-object" aria-roledescription="rect mark container"><path aria-label="TITLE: THE LORD OF THE RINGS: THE RETURN OF THE KING; Rating: 8.9" role="graphics-symbol" aria-roledescription="bar" d="M1,1.6666666666666607h18v148.33333333333334h-18Z" fill="#4c78a8"/><path aria-label="TITLE: THE DARK KNIGHT; Rating: 8.9" role="graphics-symbol" aria-roledescription="bar" d="M21,1.6666666666666607h18v148.33333333333334h-18Z" fill="#4c78a8"/><path aria-label="TITLE: INCEPTION; Rating: 8.4" role="graphics-symbol" aria-roledescription="bar" d="M41,9.999999999999998h18v140h-18Z" fill="#4c78a8"/><path aria-label="TITLE: WHIPLASH; Rating: 8.4" role="graphics-symbol" aria-roledescription="bar" d="M61,9.999999999999998h18v140h-18Z" fill="#4c78a8"/><path aria-label="TITLE: GLADIATOR; Rating: 8.4" role="graphics-symbol" aria-roledescription="bar" d="M81,9.999999999999998h18v140h-18Z" fill="#4c78a8"/><path aria-label="TITLE: THE PRESTIGE; Rating: 8.4" role="graphics-symbol" aria-roledescription="bar" d="M101,9.999999999999998h18v140h-18Z" fill="#4c78a8"/><path aria-label="TITLE: KILL BILL: THE WHOLE BLOODY AFFAIR; Rating: 8.4" role="graphics-symbol" aria-roledescription="bar" d="M121,9.999999999999998h18v140h-18Z" fill="#4c78a8"/><path aria-label="TITLE: THE LORD OF THE RINGS: THE FELLOWSHIP OF THE RING; Rating: 8.4" role="graphics-symbol" aria-roledescription="bar" d="M141,9.999999999999998h18v140h-18Z" fill="#4c78a8"/><path aria-label="TITLE: THE DEPARTED; Rating: 8.4" role="graphics-symbol" aria-roledescription="bar" d="M161,9.999999999999998h18v140h-18Z" fill="#4c78a8"/><path aria-label="TITLE: DJANGO UNCHAINED; Rating: 8.4" role="graphics-symbol" aria-roledescription="bar" d="M181,9.999999999999998h18v140h-18Z" fill="#4c78a8"/><path aria-label="TITLE: THE LORD OF THE RINGS: THE TWO TOWERS; Rating: 8.4" role="graphics-symbol" aria-roledescription="bar" d="M201,9.999999999999998h18v140h-18Z" fill="#4c78a8"/><path aria-label="TITLE: THE PIANIST; Rating: 8.4" role="graphics-symbol" aria-roledescription="bar" d="M221,9.999999999999998h18v140h-18Z" fill="#4c78a8"/><path aria-label="TITLE: INTERSTELLAR; Rating: 8.4" role="graphics-symbol" aria-roledescription="bar" d="M241,9.999999999999998h18v140h-18Z" fill="#4c78a8"/><path aria-label="TITLE: MAD MAX: FURY ROAD; Rating: 8" role="graphics-symbol" aria-roledescription="bar" d="M261,16.666666666666675h18v133.33333333333331h-18Z" fill="#4c78a8"/><path aria-label="TITLE: WOLFWALKERS; Rating: 8" role="graphics-symbol" aria-roledescription="bar" d="M281,16.666666666666675h18v133.33333333333331h-18Z" fill="#4c78a8"/><path aria-label="TITLE: LA LA LAND; Rating: 8" role="graphics-symbol" aria-roledescription="bar" d="M301,16.666666666666675h18v133.33333333333331h-18Z" fill="#4c78a8"/><path aria-label="TITLE: JOKER; Rating: 8" role="graphics-symbol" aria-roledescription="bar" d="M321,16.666666666666675h18v133.33333333333331h-18Z" fill="#4c78a8"/><path aria-label="TITLE: V FOR VENDETTA; Rating: 8" role="graphics-symbol" aria-roledescription="bar" d="M341,16.666666666666675h18v133.33333333333331h-18Z" fill="#4c78a8"/><path aria-label="TITLE: AVENGERS: INFINITY WAR; Rating: 8" role="graphics-symbol" aria-roledescription="bar" d="M361,16.666666666666675h18v133.33333333333331h-18Z" fill="#4c78a8"/><path aria-label="TITLE: AVENGERS: ENDGAME; Rating: 8" role="graphics-symbol" aria-roledescription="bar" d="M381,16.666666666666675h18v133.33333333333331h-18Z" fill="#4c78a8"/></g></g><path class="foreground" aria-hidden="true" d="" display="none"/></g></g></g></svg>