<svg xmlns="http://www.w3.org/2000/svg" xmlns:xlink="http://www.w3.org/1999/xlink" version="1.1" class="marks" width="477" height="362" viewBox="0 0 477 362"><rect width="477" height="362" fill="white"/><g fill="none" stroke-miterlimit="10" transform="translate(72,5)"><g class="mark-group role-frame root" role="graphics-object" aria-roledescription="group mark container"><g transform="translate(0,0)"><path class="background" aria-hidden="true" d="M0.5,0.5h400v150h-400Z" stroke="#ddd"/><g><g class="mark-group role-axis" aria-hidden="true"><g transform="translate(0.5,0.5)"><path class="background" aria-hidden="true" d="M0,0h0v0h0Z" pointer-events="none"/><g><g class="mark-rule role-axis-grid" pointer-events="none"><line transform="translate(0,150)" x2="400" y2="0" stroke="#ddd" stroke-width="1" opacity="1"/><line transform="translate(0,123)" x2="400" y2="0" stroke="#ddd" stroke-width="1" opacity="1"/><line transform="translate(0,96)" x2="400" y2="0" stroke="#ddd" stroke-width="1" opacity="1"/><line transform="translate(0,70)" x2="400" y2="0" stroke="#ddd" stroke-width="1" opacity="1"/><line transform="translate(0,43)" x2="400" y2="0" stroke="#ddd" stroke-width="1" opacity="1"/><line transform="translate(0,16)" x2="400" y2="0" stroke="#ddd" stroke-width="1" opacity="1"/></g></g><path class="foreground" aria-hidden="true" d="" pointer-events="none" display="none"/></g></g><g class="mark-group role-axis" role="graphics-symbol" aria-roledescription="axis" aria-label="X-axis titled 'TITLE' for a discrete scale with 20 values: THE DARK KNIGHT, INCEPTION, INTERSTELLAR, THE LORD OF THE RINGS: THE FELLOWSHIP OF THE RING, THE LORD OF THE RINGS: THE RETURN OF THE KING, ending with GUARDIANS OF THE GALAXY"><g transform="translate(0.5,150.5)"><path class="background" aria-hidden="true" d="M0,0h0v0h0Z" pointer-events="none"/><g><g class="mark-rule role-axis-tick" pointer-events="none"><line transform="translate(10,0)" x2="0" y2="5" stroke="#888" stroke-width="1" opacity="1"/><line transform="translate(30,0)" x2="0" y2="5" stroke="#888" stroke-width="1" opacity="1"/><line transform="translate(50,0)" x2="0" y2="5" stroke="#888" stroke-width="1" opacity="1"/><line transform="translate(70,0)" x2="0" y2="5" stroke="#888" stroke-width="1" opacity="1"/><line transform="translate(90,0)" x2="0" y2="5" stroke="#888" stroke-width="1" opacity="1"/><line transform="translate(110,0)" x2="0" y2="5" stroke="#888" stroke-width="1" opacity="1"/><line transform="translate(130,0)" x2="0" y2="5" stroke="#888" stroke-width="1" opacity="1"/><line transform="translate(150,0)" x2="0" y2="5" stroke="#888" stroke-width="1" opacity="1"/><line transform="translate(170,0)" x2="0" y2="5" stroke="#888" stroke-width="1" opacity="1"/><line transform="translate(190,0)" x2="0" y2="5" stroke="#888" stroke-width="1" opacity="1"/><line transform="translate(210,0)" x2="0" y2="5" stroke="#888" stroke-width="1" opacity="1"/><line transform="translate(230,0)" x2="0" y2="5" stroke="#888" stroke-width="1" opacity="1"/><line transform="translate(250,0)" x2="0" y2="5" stroke="#888" stroke-width="1" opacity="1"/><line transform="translate(270,0)" x2="0" y2="5" stroke="#888" stroke-width="1" opacity="1"/><line transform="translate(290,0)" x2="0" y2="5" stroke="#888" stroke-width="1" opacity="1"/><line transform="translate(310,0)" x2="0" y2="5" stroke="#888" stroke-width="1" opacity="1"/><line transform="translate(330,0)" x2="0" y2="5" stroke="#888" stroke-width="1" opacity="1"/><line transform="translate(350,0)" x2="0" y2="5" stroke="#888" stroke-width="1" opacity="1"/><line transform="translate(370,0)" x2="0" y2="5" stroke="#888" stroke-width="1" opacity="1"/><line transform="translate(390,0)" x2="0" y2="5" stroke="#888" stroke-width="1" opacity="1"/></g><g class="mark-text role-axis-label" pointer-events="none"><text text-anchor="end" transform="translate(9.5,7) rotate(270) translate(0,3)" font-family="sans-serif" font-size="10px" fill="#000" opacity="1">THE DARK KNIGHT</text><text text-anchor="end" transform="translate(29.5,7) rotate(270) translate(0,3)" font-family="sans-serif" font-size="10px" fill="#000" opacity="1">INCEPTION</text><text text-anchor="end" transform="translate(49.5,7) rotate(270) translate(0,3)" font-family="sans-serif" font-size="10px" fill="#000" opacity="1">INTERSTELLAR</text><text text-anchor="end" transform="translate(69.5,7) rotate(270) translate(0,3)" font-family="sans-serif" font-size="10px" fill="#000" opacity="1">THE LORD OF THE RINGS: THE FE…</text><text text-anchor="end" transform="translate(89.5,7) rotate(270) translate(0,3)" font-family="sans-serif" font-size="10px" fill="#000" opacity="1">THE LORD OF THE RINGS: THE RE…</text><text text-anchor="end" transform="translate(109.5,7) rotate(270) translate(0,3)" font-family="sans-serif" font-size="10px" fill="#000" opacity="1">THE DARK KNIGHT RISES</text><text text-anchor="end" transform="translate(129.5,7) rotate(270) translate(0,3)" font-family="sans-serif" font-size="10px" fill="#000" opacity="1">THE LORD OF THE RINGS: THE TW…</text><text text-anchor="end" transform="translate(149.5,7) rotate(270) translate(0,3)" font-family="sans-serif" font-size="10px" fill="#000" opacity="1">DJANGO UNCHAINED</text><text text-anchor="end" transform="translate(169.5,7) rotate(270) translate(0,3)" font-family="sans-serif" font-size="10px" fill="#000" opacity="1">GLADIATOR</text><text text-anchor="end" transform="translate(189.5,7) rotate(270) translate(0,3)" font-family="sans-serif" font-size="10px" fill="#000" opacity="1">BATMAN BEGINS</text><text text-anchor="end" transform="translate(209.5,7) rotate(270) translate(0,3)" font-family="sans-serif" font-size="10px" fill="#000" opacity="1">INGLOURIOUS BASTERDS</text><text text-anchor="end" transform="translate(229.5,7) rotate(270) translate(0,3)" font-family="sans-serif" font-size="10px" fill="#000" opacity="1">THE WOLF OF WALL STREET</text><text text-anchor="end" transform="translate(249.5,7) rotate(270) translate(0,3)" font-family="sans-serif" font-size="10px" fill="#000" opacity="1">THE AVENGERS</text><text text-anchor="end" transform="translate(269.5,7) rotate(270) translate(0,3)" font-family="sans-serif" font-size="10px" fill="#000" opacity="1">JOKER</text><text text-anchor="end" transform="translate(289.5,7) rotate(270) translate(0,3)" font-family="sans-serif" font-size="10px" fill="#000" opacity="1">THE PRESTIGE</text><text text-anchor="end" transform="translate(309.5,7) rotate(270) translate(0,3)" font-family="sans-serif" font-size="10px" fill="#000" opacity="1">SHUTTER ISLAND</text><text text-anchor="end" transform="translate(329.5,7) rotate(270) translate(0,3)" font-family="sans-serif" font-size="10px" fill="#000" opacity="1">THE DEPARTED</text><text text-anchor="end" transform="translate(349.5,7) rotate(270) translate(0,3)" font-family="sans-serif" font-size="10px" fill="#000" opacity="1">AVATAR</text><text text-anchor="end" transform="translate(369.5,7) rotate(270) translate(0,3)" font-family="sans-serif" font-size="10px" fill="#000" opacity="1">MEMENTO</text><text text-anchor="end" transform="translate(389.5,7) rotate(270) translate(0,3)" font-family="sans-serif" font-size="10px" fill="#000" opacity="1">GUARDIANS OF THE GALAXY</text></g><g class="mark-rule role-axis-domain" pointer-events="none"><line transform="translate(0,0)" x2="400" y2="0" stroke="#888" stroke-width="1" opacity="1"/></g><g class="mark-text role-axis-title" pointer-events="none"><text text-anchor="middle" transform="translate(200,200)" font-family="sans-serif" font-size="11px" font-weight="bold" fill="#000" opacity="1">TITLE</text></g></g><path class="foreground" aria-hidden="true" d="" pointer-events="none" display="none"/></g></g><g class="mark-group role-axis" role="graphics-symbol" aria-roledescription="axis" aria-label="Y-axis titled 'Average Votes' for a linear scale with values from 0 to 2,800,000"><g transform="translate(0.5,0.5)"><path class="background" aria-hidden="true" d="M0,0h0v0h0Z" pointer-events="none"/><g><g class="mark-rule role-axis-tick" pointer-events="none"><line transform="translate(0,150)" x2="-5" y2="0" stroke="#888" stroke-width="1" opacity="1"/><line transform="translate(0,123)" x2="-5" y2="0" stroke="#888" stroke-width="1" opacity="1"/><line transform="translate(0,96)" x2="-5" y2="0" stroke="#888" stroke-width="1" opacity="1"/><line transform="translate(0,70)" x2="-5" y2="0" stroke="#888" stroke-width="1" opacity="1"/><line transform="translate(0,43)" x2="-5" y2="0" stroke="#888" stroke-width="1" opacity="1"/><line transform="translate(0,16)" x2="-5" y2="0" stroke="#888" stroke-width="1" opacity="1"/></g><g class="mark-text role-axis-label" pointer-events="none"><text text-anchor="end" transform="translate(-7,153)" font-family="sans-serif" font-size="10px" fill="#000" opacity="1">0</text><text text-anchor="end" transform="translate(-7,126.21428571428571)" font-family="sans-serif" font-size="10px" fill="#000" opacity="1">500,000</text><text text-anchor="end" transform="translate(-7,99.42857142857142)" font-family="sans-serif" font-size="10px" fill="#000" opacity="1">1,000,000</text><text text-anchor="end" transform="translate(-7,72.64285714285714)" font-family="sans-serif" font-size="10px" fill="#000" opacity="1">1,500,000</text><text text-anchor="end" transform="translate(-7,45.857142857142854)" font-family="sans-serif" font-size="10px" fill="#000" opacity="1">2,000,000</text><text text-anchor="end" transform="translate(-7,19.071428571428566)" font-family="sans-serif" font-size="10px" fill="#000" opacity="1">2,500,000</text></g><g class="mark-rule role-axis-domain" pointer-events="none"><line transform="translate(0,150)" x2="0" y2="-150" stroke="#888" stroke-width="1" opacity="1"/></g><g class="mark-text role-axis-title" pointer-events="none"><text text-anchor="middle" transform="translate(-55.4873046875,75) rotate(-90) translate(0,-2)" font-family="sans-serif" font-size="11px" font-weight="bold" fill="#000" opacity="1">Average Votes</text></g></g><path class="foreground" aria-hidden="true" d="" pointer-events="none" display="none"/></g></g><g class="mark-rect role-mark marks" role="graphics-object" aria-roledescription="rect mark container"><path aria-label="TITLE: THE DARK KNIGHT; Average Votes: 2771597" role="graphics-symbol" aria-roledescription="bar" d="M1,1.521589285714281h18v148.47841071428573h-18Z" fill="#4c78a8"/><path aria-label="TITLE: INCEPTION; Average Votes: 2460667" role="graphics-symbol" aria-roledescription="bar" d="M21,18.17855357142858h18v131.82144642857142h-18Z" fill="#4c78a8"/><path aria-label="TITLE: INTERSTELLAR; Average Votes: 1978103" role="graphics-symbol" aria-roledescription="bar" d="M41,44.03019642857142h18v105.96980357142857h-18Z" fill="#4c78a8"/><path aria-label="TITLE: THE LORD OF THE RINGS: THE FELLOWSHIP OF THE RING; Average Votes: 1940134" role="graphics-symbol" aria-roledescription="bar" d="M61,46.06425h18v103.93575h-18Z" fill="#4c78a8"/><path aria-label="TITLE: THE LORD OF THE RINGS: THE RETURN OF THE KING; Average Votes: 1911940" role="graphics-symbol" aria-roledescription="bar" d="M81,47.57464285714285h18v102.42535714285715h-18Z" fill="#4c78a8"/><path aria-label="TITLE: THE DARK KNIGHT RISES; Average Votes: 1771212" role="graphics-symbol" aria-roledescription="bar" d="M101,55.113642857142864h18v94.88635714285714h-18Z" fill="#4c78a8"/><path aria-label="TITLE: THE LORD OF THE RINGS: THE TWO TOWERS; Average Votes: 1725308" role="graphics-symbol" aria-roledescription="bar" d="M121,57.572785714285715h18v92.42721428571429h-18Z" fill="#4c78a8"/><path aria-label="TITLE: DJANGO UNCHAINED; Average Votes: 1629554" role="graphics-symbol" aria-roledescription="bar" d="M141,62.70246428571429h18v87.29753571428571h-18Z" fill="#4c78a8"/><path aria-label="TITLE: GLADIATOR; Average Votes: 1558024" role="graphics-symbol" aria-roledescription="bar" d="M161,66.53442857142858h18v83.46557142857142h-18Z" fill="#4c78a8"/><path aria-label="TITLE: BATMAN BEGINS; Average Votes: 1530040" role="graphics-symbol" aria-roledescription="bar" d="M181,68.03357142857143h18v81.96642857142857h-18Z" fill="#4c78a8"/><path aria-label="TITLE: INGLOURIOUS BASTERDS; Average Votes: 1519665" role="graphics-symbol" aria-roledescription="bar" d="M201,68.589375h18v81.410625h-18Z" fill="#4c78a8"/><path aria-label="TITLE: THE WOLF OF WALL STREET; Average Votes: 1501149" role="graphics-symbol" aria-roledescription="bar" d="M221,69.58130357142856h18v80.41869642857144h-18Z" fill="#4c78a8"/><path aria-label="TITLE: THE AVENGERS; Average Votes: 1430707" role="graphics-symbol" aria-roledescription="bar" d="M241,73.35498214285715h18v76.64501785714285h-18Z" fill="#4c78a8"/><path aria-label="TITLE: JOKER; Average Votes: 1393906" role="graphics-symbol" aria-roledescription="bar" d="M261,75.32646428571428h18v74.67353571428572h-18Z" fill="#4c78a8"/><path aria-label="TITLE: THE PRESTIGE; Average Votes: 1391979" role="graphics-symbol" aria-roledescription="bar" d="M281,75.42969642857142h18v74.57030357142858h-18Z" fill="#4c78a8"/><path aria-label="TITLE: SHUTTER ISLAND; Average Votes: 1390367" role="graphics-symbol" aria-roledescription="bar" d="M301,75.51605357142857h18v74.48394642857143h-18Z" fill="#4c78a8"/><path aria-label="TITLE: THE DEPARTED; Average Votes: 1376182" role="graphics-symbol" aria-roledescription="bar" d="M321,76.27596428571428h18v73.72403571428572h-18Z" fill="#4c78a8"/><path aria-label="TITLE: AVATAR; Average Votes: 1359036" role="graphics-symbol" aria-roledescription="bar" d="M341,77.19449999999999h18v72.80550000000001h-18Z" fill="#4c78a8"/><path aria-label="TITLE: MEMENTO; Average Votes: 1283750" role="graphics-symbol" aria-roledescription="bar" d="M361,81.22767857142857h18v68.77232142857143h-18Z" fill="#4c78a8"/><path aria-label="TITLE: GUARDIANS OF THE GALAXY; Average Votes: 1240886" role="graphics-symbol" aria-roledescription="bar" d="M381,83.52396428571429h18v66.47603571428571h-18Z" fill="#4c78a8"/></g></g><path class="foreground" aria-hidden="true" d="" display="none"/></g></g></g></svg>