<svg xmlns="http://www.w3.org/2000/svg" xmlns:xlink="http://www.w3.org/1999/xlink" version="1.1" class="marks" width="477" height="286" viewBox="0 0 477 286"><rect width="477" height="286" fill="white"/><g fill="none" stroke-miterlimit="10" transform="translate(72,5)"><g class="mark-group role-frame root" role="graphics-object" aria-roledescription="group mark container"><g transform="translate(0,0)"><path class="background" aria-hidden="true" d="M0.5,0.5h400v150h-400Z" stroke="#ddd"/><g><g class="mark-group role-axis" aria-hidden="true"><g transform="translate(0.5,0.5)"><path class="background" aria-hidden="true" d="M0,0h0v0h0Z" pointer-events="none"/><g><g class="mark-rule role-axis-grid" pointer-events="none"><line transform="translate(0,150)" x2="400" y2="0" stroke="#ddd" stroke-width="1" opacity="1"/><line transform="translate(0,123)" x2="400" y2="0" stroke="#ddd" stroke-width="1" opacity="1"/><line transform="translate(0,96)" x2="400" y2="0" stroke="#ddd" stroke-width="1" opacity="1"/><line transform="translate(0,70)" x2="400" y2="0" stroke="#ddd" stroke-width="1" opacity="1"/><line transform="translate(0,43)" x2="400" y2="0" stroke="#ddd" stroke-width="1" opacity="1"/><line transform="translate(0,16)" x2="400" y2="0" stroke="#ddd" stroke-width="1" opacity="1"/></g></g><path class="foreground" aria-hidden="true" d="" pointer-events="none" display="none"/></g></g><g class="mark-group role-axis" role="graphics-symbol" aria-roledescription="axis" aria-label="X-axis titled 'Person' for a discrete scale with 20 values: RON DEAN, TAI-LI LEE, JOHNATHAN GEARE, MAGNUS NOLAN, LIAM DICKINSON, ending with MIRANDA NOLAN"><g transform="translate(0.5,150.5)"><path class="background" aria-hidden="true" d="M0,0h0v0h0Z" pointer-events="none"/><g><g class="mark-rule role-axis-tick" pointer-events="none"><line transform="translate(10,0)" x2="0" y2="5" stroke="#888" stroke-width="1" opacity="1"/><line transform="translate(30,0)" x2="0" y2="5" stroke="#888" stroke-width="1" opacity="1"/><line transform="translate(50,0)" x2="0" y2="5" stroke="#888" stroke-width="1" opacity="1"/><line transform="translate(70,0)" x2="0" y2="5" stroke="#888" stroke-width="1" opacity="1"/><line transform="translate(90,0)" x2="0" y2="5" stroke="#888" stroke-width="1" opacity="1"/><line transform="translate(110,0)" x2="0" y2="5" stroke="#888" stroke-width="1" opacity="1"/><line transform="translate(130,0)" x2="0" y2="5" stroke="#888" stroke-width="1" opacity="1"/><line transform="translate(150,0)" x2="0" y2="5" stroke="#888" stroke-width="1" opacity="1"/><line transform="translate(170,0)" x2="0" y2="5" stroke="#888" stroke-width="1" opacity="1"/><line transform="translate(190,0)" x2="0" y2="5" stroke="#888" stroke-width="1" opacity="1"/><line transform="translate(210,0)" x2="0" y2="5" stroke="#888" stroke-width="1" opacity="1"/><line transform="translate(230,0)" x2="0" y2="5" stroke="#888" stroke-width="1" opacity="1"/><line transform="translate(250,0)" x2="0" y2="5" stroke="#888" stroke-width="1" opacity="1"/><line transform="translate(270,0)" x2="0" y2="5" stroke="#888" stroke-width="1" opacity="1"/><line transform="translate(290,0)" x2="0" y2="5" stroke="#888" stroke-width="1" opacity="1"/><line transform="translate(310,0)" x2="0" y2="5" stroke="#888" stroke-width="1" opacity="1"/><line transform="translate(330,0)" x2="0" y2="5" stroke="#888" stroke-width="1" opacity="1"/><line transform="translate(350,0)" x2="0" y2="5" stroke="#888" stroke-width="1" opacity="1"/><line transform="translate(370,0)" x2="0" y2="5" stroke="#888" stroke-width="1" opacity="1"/><line transform="translate(390,0)" x2="0" y2="5" stroke="#888" stroke-width="1" opacity="1"/></g><g class="mark-text role-axis-label" pointer-events="none"><text text-anchor="end" transform="translate(9.5,7) rotate(270) translate(0,3)" font-family="sans-serif" font-size="10px" fill="#000" opacity="1">RON DEAN</text><text text-anchor="end" transform="translate(29.5,7) rotate(270) translate(0,3)" font-family="sans-serif" font-size="10px" fill="#000" opacity="1">TAI-LI LEE</text><text text-anchor="end" transform="translate(49.5,7) rotate(270) translate(0,3)" font-family="sans-serif" font-size="10px" fill="#000" opacity="1">JOHNATHAN GEARE</text><text text-anchor="end" transform="translate(69.5,7) rotate(270) translate(0,3)" font-family="sans-serif" font-size="10px" fill="#000" opacity="1">MAGNUS NOLAN</text><text text-anchor="end" transform="translate(89.5,7) rotate(270) translate(0,3)" font-family="sans-serif" font-size="10px" fill="#000" opacity="1">LIAM DICKINSON</text><text text-anchor="end" transform="translate(109.5,7) rotate(270) translate(0,3)" font-family="sans-serif" font-size="10px" fill="#000" opacity="1">SARAH MCLEOD</text><text text-anchor="end" transform="translate(129.5,7) rotate(270) translate(0,3)" font-family="sans-serif" font-size="10px" fill="#000" opacity="1">PETER MCKENZIE</text><text text-anchor="end" transform="translate(149.5,7) rotate(270) translate(0,3)" font-family="sans-serif" font-size="10px" fill="#000" opacity="1">MARK FERGUSON</text><text text-anchor="end" transform="translate(169.5,7) rotate(270) translate(0,3)" font-family="sans-serif" font-size="10px" fill="#000" opacity="1">MEGAN EDWARDS</text><text text-anchor="end" transform="translate(189.5,7) rotate(270) translate(0,3)" font-family="sans-serif" font-size="10px" fill="#000" opacity="1">BRENT MCINTYRE</text><text text-anchor="end" transform="translate(209.5,7) rotate(270) translate(0,3)" font-family="sans-serif" font-size="10px" fill="#000" opacity="1">MICHAEL ELSWORTH</text><text text-anchor="end" transform="translate(229.5,7) rotate(270) translate(0,3)" font-family="sans-serif" font-size="10px" fill="#000" opacity="1">ALAN HOWARD</text><text text-anchor="end" transform="translate(249.5,7) rotate(270) translate(0,3)" font-family="sans-serif" font-size="10px" fill="#000" opacity="1">NOEL APPLEBY</text><text text-anchor="end" transform="translate(269.5,7) rotate(270) translate(0,3)" font-family="sans-serif" font-size="10px" fill="#000" opacity="1">SADWYN BROPHY</text><text text-anchor="end" transform="translate(289.5,7) rotate(270) translate(0,3)" font-family="sans-serif" font-size="10px" fill="#000" opacity="1">RICHARD EDGE</text><text text-anchor="end" transform="translate(309.5,7) rotate(270) translate(0,3)" font-family="sans-serif" font-size="10px" fill="#000" opacity="1">JASON FITCH</text><text text-anchor="end" transform="translate(329.5,7) rotate(270) translate(0,3)" font-family="sans-serif" font-size="10px" fill="#000" opacity="1">ALI ASTIN</text><text text-anchor="end" transform="translate(349.5,7) rotate(270) translate(0,3)" font-family="sans-serif" font-size="10px" fill="#000" opacity="1">ALISTAIR BROWNING</text><text text-anchor="end" transform="translate(369.5,7) rotate(270) translate(0,3)" font-family="sans-serif" font-size="10px" fill="#000" opacity="1">JOHN BACH</text><text text-anchor="end" transform="translate(389.5,7) rotate(270) translate(0,3)" font-family="sans-serif" font-size="10px" fill="#000" opacity="1">MIRANDA NOLAN</text></g><g class="mark-rule role-axis-domain" pointer-events="none"><line transform="translate(0,0)" x2="400" y2="0" stroke="#888" stroke-width="1" opacity="1"/></g><g class="mark-text role-axis-title" pointer-events="none"><text text-anchor="middle" transform="translate(200,123.349609375)" font-family="sans-serif" font-size="11px" font-weight="bold" fill="#000" opacity="1">Person</text></g></g><path class="foreground" aria-hidden="true" d="" pointer-events="none" display="none"/></g></g><g class="mark-group role-axis" role="graphics-symbol" aria-roledescription="axis" aria-label="Y-axis titled 'Average Votes' for a linear scale with values from 0 to 2,800,000"><g transform="translate(0.5,0.5)"><path class="background" aria-hidden="true" d="M0,0h0v0h0Z" pointer-events="none"/><g><g class="mark-rule role-axis-tick" pointer-events="none"><line transform="translate(0,150)" x2="-5" y2="0" stroke="#888" stroke-width="1" opacity="1"/><line transform="translate(0,123)" x2="-5" y2="0" stroke="#888" stroke-width="1" opacity="1"/><line transform="translate(0,96)" x2="-5" y2="0" stroke="#888" stroke-width="1" opacity="1"/><line transform="translate(0,70)" x2="-5" y2="0" stroke="#888" stroke-width="1" opacity="1"/><line transform="translate(0,43)" x2="-5" y2="0" stroke="#888" stroke-width="1" opacity="1"/><line transform="translate(0,16)" x2="-5" y2="0" stroke="#888" stroke-width="1" opacity="1"/></g><g class="mark-text role-axis-label" pointer-events="none"><text text-anchor="end" transform="translate(-7,153)" font-family="sans-serif" font-size="10px" fill="#000" opacity="1">0</text><text text-anchor="end" transform="translate(-7,126.21428571428571)" font-family="sans-serif" font-size="10px" fill="#000" opacity="1">500,000</text><text text-anchor="end" transform="translate(-7,99.42857142857142)" font-family="sans-serif" font-size="10px" fill="#000" opacity="1">1,000,000</text><text text-anchor="end" transform="translate(-7,72.64285714285714)" font-family="sans-serif" font-size="10px" fill="#000" opacity="1">1,500,000</text><text text-anchor="end" transform="translate(-7,45.857142857142854)" font-family="sans-serif" font-size="10px" fill="#000" opacity="1">2,000,000</text><text text-anchor="end" transform="translate(-7,19.071428571428566)" font-family="sans-serif" font-size="10px" fill="#000" opacity="1">2,500,000</text></g><g class="mark-rule role-axis-domain" pointer-events="none"><line transform="translate(0,150)" x2="0" y2="-150" stroke="#888" stroke-width="1" opacity="1"/></g><g class="mark-text role-axis-title" pointer-events="none"><text text-anchor="middle" transform="translate(-55.4873046875,75) rotate(-90) translate(0,-2)" font-family="sans-serif" font-size="11px" font-weight="bold" fill="#000" opacity="1">Average Votes</text></g></g><path class="foreground" aria-hidden="true" d="" pointer-events="none" display="none"/></g></g><g class="mark-rect role-mark marks" role="graphics-object" aria-roledescription="rect mark container"><path aria-label="Person: RON DEAN; Average Votes: 2771597" role="graphics-symbol" aria-roledescription="bar" d="M1,1.521589285714281h18v148.47841071428573h-18Z" fill="#4c78a8"/><path aria-label="Person: TAI-LI LEE; Average Votes: 2460667" role="graphics-symbol" aria-roledescription="bar" d="M21,18.17855357142858h18v131.82144642857142h-18Z" fill="#4c78a8"/><path aria-label="Person: JOHNATHAN GEARE; Average Votes: 2460667" role="graphics-symbol" aria-roledescription="bar" d="M41,18.17855357142858h18v131.82144642857142h-18Z" fill="#4c78a8"/><path aria-label="Person: MAGNUS NOLAN; Average Votes: 2460667" role="graphics-symbol" aria-roledescription="bar" d="M61,18.17855357142858h18v131.82144642857142h-18Z" fill="#4c78a8"/><path aria-label="Person: LIAM DICKINSON; Average Votes: 1978103" role="graphics-symbol" aria-roledescription="bar" d="M81,44.03019642857142h18v105.96980357142857h-18Z" fill="#4c78a8"/><path aria-label="Person: SARAH MCLEOD; Average Votes: 1940134" role="graphics-symbol" aria-roledescription="bar" d="M101,46.06425h18v103.93575h-18Z" fill="#4c78a8"/><path aria-label="Person: PETER MCKENZIE; Average Votes: 1940134" role="graphics-symbol" aria-roledescription="bar" d="M121,46.06425h18v103.93575h-18Z" fill="#4c78a8"/><path aria-label="Person: MARK FERGUSON; Average Votes: 1940134" role="graphics-symbol" aria-roledescription="bar" d="M141,46.06425h18v103.93575h-18Z" fill="#4c78a8"/><path aria-label="Person: MEGAN EDWARDS; Average Votes: 1940134" role="graphics-symbol" aria-roledescription="bar" d="M161,46.06425h18v103.93575h-18Z" fill="#4c78a8"/><path aria-label="Person: BRENT MCINTYRE; Average Votes: 1940134" role="graphics-symbol" aria-roledescription="bar" d="M181,46.06425h18v103.93575h-18Z" fill="#4c78a8"/><path aria-label="Person: MICHAEL ELSWORTH; Average Votes: 1940134" role="graphics-symbol" aria-roledescription="bar" d="M201,46.06425h18v103.93575h-18Z" fill="#4c78a8"/><path aria-label="Person: ALAN HOWARD; Average Votes: 1940134" role="graphics-symbol" aria-roledescription="bar" d="M221,46.06425h18v103.93575h-18Z" fill="#4c78a8"/><path aria-label="Person: NOEL APPLEBY; Average Votes: 1928856.4" role="graphics-symbol" aria-roledescription="bar" d="M241,46.668407142857156h18v103.33159285714285h-18Z" fill="#4c78a8"/><path aria-label="Person: SADWYN BROPHY; Average Votes: 1911940" role="graphics-symbol" aria-roledescription="bar" d="M261,47.57464285714285h18v102.42535714285715h-18Z" fill="#4c78a8"/><path aria-label="Person: RICHARD EDGE; Average Votes: 1911940" role="graphics-symbol" aria-roledescription="bar" d="M281,47.57464285714285h18v102.42535714285715h-18Z" fill="#4c78a8"/><path aria-label="Person: JASON FITCH; Average Votes: 1911940" role="graphics-symbol" aria-roledescription="bar" d="M301,47.57464285714285h18v102.42535714285715h-18Z" fill="#4c78a8"/><path aria-label="Person: ALI ASTIN; Average Votes: 1911940" role="graphics-symbol" aria-roledescription="bar" d="M321,47.57464285714285h18v102.42535714285715h-18Z" fill="#4c78a8"/><path aria-label="Person: ALISTAIR BROWNING; Average Votes: 1911940" role="graphics-symbol" aria-roledescription="bar" d="M341,47.57464285714285h18v102.42535714285715h-18Z" fill="#4c78a8"/><path aria-label="Person: JOHN BACH; Average Votes: 1849729.33333" role="graphics-symbol" aria-roledescription="bar" d="M361,50.90735714285714h18v99.09264285714286h-18Z" fill="#4c78a8"/><path aria-label="Person: MIRANDA NOLAN; Average Votes: 1771212" role="graphics-symbol" aria-roledescription="bar" d="M381,55.113642857142864h18v94.88635714285714h-18Z" fill="#4c78a8"/></g></g><path class="foreground" aria-hidden="true" d="" display="none"/></g></g></g></svg>