<svg xmlns="http://www.w3.org/2000/svg" xmlns:xlink="http://www.w3.org/1999/xlink" version="1.1" class="marks" width="531" height="380" viewBox="0 0 531 380"><rect width="531" height="380" fill="white"/><g fill="none" stroke-miterlimit="10" transform="translate(125,72)"><g class="mark-group role-frame root" role="graphics-object" aria-roledescription="group mark container"><g transform="translate(0,0)"><path class="background" aria-hidden="true" d="M0,0h300v300h-300Z"/><g><g class="mark-arc role-mark layer_0_marks" role="graphics-object" aria-roledescription="arc mark container"><path aria-label="calls: 23461; reason: Billing Question" role="graphics-symbol" aria-roledescription="arc mark" transform="translate(150,150)" d="M-145.797,35.26A150,150,0,1,0,0,-150L0,-100A100,100,0,1,1,-97.198,23.507Z" fill="#4c78a8"/><path aria-label="calls: 4749; reason: Payments" role="graphics-symbol" aria-roledescription="arc mark" transform="translate(150,150)" d="M-117.707,-92.979A150,150,0,0,0,-145.797,35.26L-97.198,23.507A100,100,0,0,1,-78.471,-61.986Z" fill="#f58518"/><path aria-label="calls: 4730; reason: Service Outage" role="graphics-symbol" aria-roledescription="arc mark" transform="translate(150,150)" d="M0,-150A150,150,0,0,0,-117.707,-92.979L-78.471,-61.986A100,100,0,0,1,0,-100Z" fill="#e45756"/></g><g class="mark-text role-mark layer_1_marks" role="graphics-object" aria-roledescription="text mark container"><text aria-label="calls: 23461; reason: Billing Question" role="graphics-symbol" aria-roledescription="text mark" text-anchor="middle" transform="translate(299.3083271468105,273.50329120761256)" font-family="sans-serif" font-size="20px" fill="#4c78a8">23461</text><text aria-label="calls: 4749; reason: Payments" role="graphics-symbol" aria-roledescription="text mark" text-anchor="middle" transform="translate(-35.5995839590133,115.34542542048723)" font-family="sans-serif" font-size="20px" fill="#f58518">4749</text><text aria-label="calls: 4730; reason: Service Outage" role="graphics-symbol" aria-roledescription="text mark" text-anchor="middle" transform="translate(67.16581347044533,-14.99268271474935)" font-family="sans-serif" font-size="20px" fill="#e45756">4730</text></g><g class="mark-text role-mark layer_2_marks" role="graphics-object" aria-roledescription="text mark container"><text aria-label="calls: 23461; reason: Billing Question" role="graphics-symbol" aria-roledescription="text mark" text-anchor="middle" transform="translate(330.741659177718,298.2408261986889)" font-family="sans-serif" font-size="20px" fill="#4c78a8">Billing Question</text><text aria-label="calls: 4749; reason: Payments" role="graphics-symbol" aria-roledescription="text mark" text-anchor="middle" transform="translate(-74.67318058196349,106.78656761427402)" font-family="sans-serif" font-size="20px" fill="#f58518">Payments</text><text aria-label="calls: 4730; reason: Service Outage" role="graphics-symbol" aria-roledescription="text mark" text-anchor="middle" transform="translate(49.72703735896013,-50.991142233643956)" font-family="sans-serif" font-size="20px" fill="#e45756">Service Outage</text></g></g><path class="foreground" aria-hidden="true" d="" display="none"/></g></g></g></svg>