<svg xmlns="http://www.w3.org/2000/svg" xmlns:xlink="http://www.w3.org/1999/xlink" version="1.1" class="marks" width="525" height="476" viewBox="0 0 525 476"><rect width="525" height="476" fill="white"/><g fill="none" stroke-miterlimit="10" transform="translate(130,85)"><g class="mark-group role-frame root" role="graphics-object" aria-roledescription="group mark container"><g transform="translate(0,0)"><path class="background" aria-hidden="true" d="M0,0h300v300h-300Z"/><g><g class="mark-arc role-mark layer_0_marks" role="graphics-object" aria-roledescription="arc mark container"><path aria-label="calls: 11063; sentiment: Negative" role="graphics-symbol" aria-roledescription="arc mark" transform="translate(150,150)" d="M128.7,77.047A150,150,0,0,0,0,-150L0,-100A100,100,0,0,1,85.8,51.365Z" fill="#4c78a8"/><path aria-label="calls: 8754; sentiment: Neutral" role="graphics-symbol" aria-roledescription="arc mark" transform="translate(150,150)" d="M-89.39,120.455A150,150,0,0,0,128.7,77.047L85.8,51.365A100,100,0,0,1,-59.593,80.303Z" fill="#f58518"/><path aria-label="calls: 3928; sentiment: Positive" role="graphics-symbol" aria-roledescription="arc mark" transform="translate(150,150)" d="M-147.492,27.314A150,150,0,0,0,-89.39,120.455L-59.593,80.303A100,100,0,0,1,-98.328,18.209Z" fill="#e45756"/><path aria-label="calls: 6026; sentiment: Very Negative" role="graphics-symbol" aria-roledescription="arc mark" transform="translate(150,150)" d="M-85.25,-123.42A150,150,0,0,0,-147.492,27.314L-98.328,18.209A100,100,0,0,1,-56.833,-82.28Z" fill="#72b7b2"/><path aria-label="calls: 3169; sentiment: Very Positive" role="graphics-symbol" aria-roledescription="arc mark" transform="translate(150,150)" d="M0,-150A150,150,0,0,0,-85.25,-123.42L-56.833,-82.28A100,100,0,0,1,0,-100Z" fill="#54a24b"/></g><g class="mark-text role-mark layer_1_marks" role="graphics-object" aria-roledescription="text mark container"><text aria-label="calls: 11063; sentiment: Negative" role="graphics-symbol" aria-roledescription="text mark" text-anchor="middle" transform="translate(315.29168103413116,62.30549546045381)" font-family="sans-serif" font-size="20px" fill="#4c78a8">11063</text><text aria-label="calls: 8754; sentiment: Neutral" role="graphics-symbol" aria-roledescription="text mark" text-anchor="middle" transform="translate(187.08937681547388,342.34478293593247)" font-family="sans-serif" font-size="20px" fill="#f58518">8754</text><text aria-label="calls: 3928; sentiment: Positive" role="graphics-symbol" aria-roledescription="text mark" text-anchor="middle" transform="translate(-11.20591229418173,256.5616917190666)" font-family="sans-serif" font-size="20px" fill="#e45756">3928</text><text aria-label="calls: 6026; sentiment: Very Negative" role="graphics-symbol" aria-roledescription="text mark" text-anchor="middle" transform="translate(-25.616753135365173,83.4827191754117)" font-family="sans-serif" font-size="20px" fill="#72b7b2">6026</text><text aria-label="calls: 3169; sentiment: Very Positive" role="graphics-symbol" aria-roledescription="text mark" text-anchor="middle" transform="translate(93.44514289384688,-25.38783900168886)" font-family="sans-serif" font-size="20px" fill="#54a24b">3169</text></g><g class="mark-text role-mark layer_2_marks" role="graphics-object" aria-roledescription="text mark container"><text aria-label="calls: 11063; sentiment: Negative" role="graphics-symbol" aria-roledescription="text mark" text-anchor="middle" transform="translate(350.08992967289566,42.580336610023025)" font-family="sans-serif" font-size="20px" fill="#4c78a8">Negative</text><text aria-label="calls: 8754; sentiment: Neutral" role="graphics-symbol" aria-roledescription="text mark" text-anchor="middle" transform="translate(194.8976666713631,381.57526355402354)" font-family="sans-serif" font-size="20px" fill="#f58518">Neutral</text><text aria-label="calls: 3928; sentiment: Positive" role="graphics-symbol" aria-roledescription="text mark" text-anchor="middle" transform="translate(-45.14399909295685,277.7325741862385)" font-family="sans-serif" font-size="20px" fill="#e45756">Positive</text><text aria-label="calls: 6026; sentiment: Very Negative" role="graphics-symbol" aria-roledescription="text mark" text-anchor="middle" transform="translate(-62.58870116386311,68.21592321234048)" font-family="sans-serif" font-size="20px" fill="#72b7b2">Very Negative</text><text aria-label="calls: 3169; sentiment: Very Positive" role="graphics-symbol" aria-roledescription="text mark" text-anchor="middle" transform="translate(81.53885718728833,-63.574752475728616)" font-family="sans-serif" font-size="20px" fill="#54a24b">Very Positive</text></g></g><path class="foreground" aria-hidden="true" d="" display="none"/></g></g></g></svg>