<svg xmlns="http://www.w3.org/2000/svg" xmlns:xlink="http://www.w3.org/1999/xlink" version="1.1" class="marks" width="565" height="393" viewBox="0 0 565 393"><rect width="565" height="393" fill="white"/><g fill="none" stroke-miterlimit="10" transform="translate(149,5)"><g class="mark-group role-frame root" role="graphics-object" aria-roledescription="group mark container"><g transform="translate(0,0)"><path class="background" aria-hidden="true" d="M0,0h300v300h-300Z"/><g><g class="mark-arc role-mark layer_0_marks" role="graphics-object" aria-roledescription="arc mark container"><path aria-label="calls: 11012; call_center: Baltimore/MD" role="graphics-symbol" aria-roledescription="arc mark" transform="translate(150,150)" d="M129.444,75.792A150,150,0,0,0,0,-150L0,-100A100,100,0,0,1,86.296,50.528Z" fill="#4c78a8"/><path aria-label="calls: 5418; call_center: Chicago/IL" role="graphics-symbol" aria-roledescription="arc mark" transform="translate(150,150)" d="M1.144,149.996A150,150,0,0,0,129.444,75.792L86.296,50.528A100,100,0,0,1,0.763,99.997Z" fill="#f58518"/><path aria-label="calls: 2776; call_center: Denver/CO" role="graphics-symbol" aria-roledescription="arc mark" transform="translate(150,150)" d="M-74.777,130.032A150,150,0,0,0,1.144,149.996L0.763,99.997A100,100,0,0,1,-49.851,86.688Z" fill="#e45756"/><path aria-label="calls: 13734; call_center: Los Angeles/CA" role="graphics-symbol" aria-roledescription="arc mark" transform="translate(150,150)" d="M0,-150A150,150,0,0,0,-74.777,130.032L-49.851,86.688A100,100,0,0,1,0,-100Z" fill="#72b7b2"/></g><g class="mark-text role-mark layer_1_marks" role="graphics-object" aria-roledescription="text mark container"><text aria-label="calls: 11012; call_center: Baltimore/MD" role="graphics-symbol" aria-roledescription="text mark" text-anchor="middle" transform="translate(314.8339944323991,61.50262289640092)" font-family="sans-serif" font-size="20px" fill="#4c78a8">11012</text><text aria-label="calls: 5418; call_center: Chicago/IL" role="graphics-symbol" aria-roledescription="text mark" text-anchor="middle" transform="translate(245.125517647032,320.47229521224597)" font-family="sans-serif" font-size="20px" fill="#f58518">5418</text><text aria-label="calls: 2776; call_center: Denver/CO" role="graphics-symbol" aria-roledescription="text mark" text-anchor="middle" transform="translate(101.68258434291377,339.7537138242935)" font-family="sans-serif" font-size="20px" fill="#e45756">2776</text><text aria-label="calls: 13734; call_center: Los Angeles/CA" role="graphics-symbol" aria-roledescription="text mark" text-anchor="middle" transform="translate(-33.56804969817,106.98193057646814)" font-family="sans-serif" font-size="20px" fill="#72b7b2">13734</text></g><g class="mark-text role-mark layer_2_marks" role="graphics-object" aria-roledescription="text mark container"><text aria-label="calls: 11012; call_center: Baltimore/MD" role="graphics-symbol" aria-roledescription="text mark" text-anchor="middle" transform="translate(349.53588799711474,41.60843824301165)" font-family="sans-serif" font-size="20px" fill="#4c78a8">Baltimore/MD</text><text aria-label="calls: 5418; call_center: Chicago/IL" role="graphics-symbol" aria-roledescription="text mark" text-anchor="middle" transform="translate(265.1519424148282,355.09804157271884)" font-family="sans-serif" font-size="20px" fill="#f58518">Chicago/IL</text><text aria-label="calls: 2776; call_center: Denver/CO" role="graphics-symbol" aria-roledescription="text mark" text-anchor="middle" transform="translate(91.51049683615878,378.4387062083553)" font-family="sans-serif" font-size="20px" fill="#e45756">Denver/CO</text><text aria-label="calls: 13734; call_center: Los Angeles/CA" role="graphics-symbol" aria-roledescription="text mark" text-anchor="middle" transform="translate(-72.21395489778473,96.66233701361932)" font-family="sans-serif" font-size="20px" fill="#72b7b2">Los Angeles/CA</text></g></g><path class="foreground" aria-hidden="true" d="" display="none"/></g></g></g></svg>