<svg xmlns="http://www.w3.org/2000/svg" xmlns:xlink="http://www.w3.org/1999/xlink" version="1.1" class="marks" width="494" height="435" viewBox="0 0 494 435"><rect width="494" height="435" fill="white"/><g fill="none" stroke-miterlimit="10" transform="translate(93,52)"><g class="mark-group role-frame root" role="graphics-object" aria-roledescription="group mark container"><g transform="translate(0,0)"><path class="background" aria-hidden="true" d="M0,0h300v300h-300Z"/><g><g class="mark-arc role-mark layer_0_marks" role="graphics-object" aria-roledescription="arc mark container"><path aria-label="calls: 10638; channel: Call-Center" role="graphics-symbol" aria-roledescription="arc mark" transform="translate(150,150)" d="M134.517,66.372A150,150,0,0,0,0,-150L0,-100A100,100,0,0,1,89.678,44.248Z" fill="#4c78a8"/><path aria-label="calls: 8256; channel: Chatbot" role="graphics-symbol" aria-roledescription="arc mark" transform="translate(150,150)" d="M-66.91,134.25A150,150,0,0,0,134.517,66.372L89.678,44.248A100,100,0,0,1,-44.607,89.5Z" fill="#f58518"/><path aria-label="calls: 7470; channel: Email" role="graphics-symbol" aria-roledescription="arc mark" transform="translate(150,150)" d="M-142.552,-46.679A150,150,0,0,0,-66.91,134.25L-44.607,89.5A100,100,0,0,1,-95.035,-31.119Z" fill="#e45756"/><path aria-label="calls: 6576; channel: Web" role="graphics-symbol" aria-roledescription="arc mark" transform="translate(150,150)" d="M0,-150A150,150,0,0,0,-142.552,-46.679L-95.035,-31.119A100,100,0,0,1,0,-100Z" fill="#72b7b2"/></g><g class="mark-text role-mark layer_1_marks" role="graphics-object" aria-roledescription="text mark container"><text aria-label="calls: 10638; channel: Call-Center" role="graphics-symbol" aria-roledescription="text mark" text-anchor="middle" transform="translate(311.35917876195026,55.6844208047974)" font-family="sans-serif" font-size="20px" fill="#4c78a8">10638</text><text aria-label="calls: 8256; channel: Chatbot" role="graphics-symbol" aria-roledescription="text mark" text-anchor="middle" transform="translate(210.67439647151497,336.05170816411993)" font-family="sans-serif" font-size="20px" fill="#f58518">8256</text><text aria-label="calls: 7470; channel: Email" role="graphics-symbol" aria-roledescription="text mark" text-anchor="middle" transform="translate(-25.296918710968413,229.28704039896908)" font-family="sans-serif" font-size="20px" fill="#e45756">7470</text><text aria-label="calls: 6576; channel: Web" role="graphics-symbol" aria-roledescription="text mark" text-anchor="middle" transform="translate(38.496796605679194,2.159057358566855)" font-family="sans-serif" font-size="20px" fill="#72b7b2">6576</text></g><g class="mark-text role-mark layer_2_marks" role="graphics-object" aria-roledescription="text mark container"><text aria-label="calls: 10638; channel: Call-Center" role="graphics-symbol" aria-roledescription="text mark" text-anchor="middle" transform="translate(345.3295321855188,34.56535150054421)" font-family="sans-serif" font-size="20px" fill="#4c78a8">Call-Center</text><text aria-label="calls: 8256; channel: Chatbot" role="graphics-symbol" aria-roledescription="text mark" text-anchor="middle" transform="translate(223.44795362341284,373.9573309355136)" font-family="sans-serif" font-size="20px" fill="#f58518">Chatbot</text><text aria-label="calls: 7470; channel: Email" role="graphics-symbol" aria-roledescription="text mark" text-anchor="middle" transform="translate(-62.20153317643545,244.71589100927835)" font-family="sans-serif" font-size="20px" fill="#e45756">Email</text><text aria-label="calls: 6576; channel: Web" role="graphics-symbol" aria-roledescription="text mark" text-anchor="middle" transform="translate(15.022437996348486,-30.22850951331381)" font-family="sans-serif" font-size="20px" fill="#72b7b2">Web</text></g></g><path class="foreground" aria-hidden="true" d="" display="none"/></g></g></g></svg>